<?xml version="1.0" encoding="utf-8"?>
<!-- Generator: Adobe Illustrator 19.2.1, SVG Export Plug-In . SVG Version: 6.00 Build 0)  -->
<svg version="1.1" id="Calque_8" xmlns="http://www.w3.org/2000/svg" xmlns:xlink="http://www.w3.org/1999/xlink" x="0px" y="0px"
	 viewBox="0 0 468.7 456.4" style="enable-background:new 0 0 468.7 456.4;" xml:space="preserve">
<style type="text/css">
	.st0{fill:#F5D7A1;stroke:#EFBC63;stroke-width:10;stroke-linecap:round;stroke-linejoin:round;stroke-miterlimit:10;}
	.st1{fill:#3B4D57;}
</style>
<path id="france" class="st0" d="M266.2,6.5c0-3-29-1.6-32.7,4.6c-3.6,6.2-1.6,33.7-3.6,37.3c-2,3.6-12.9,17.1-21.3,18.1
	c-8.3,1-27,5.2-27.6,9.9c-0.6,4.6-3,18.7-3,18.7s-10.3,4.6-13.9,4.6S133.5,93,133.5,93l-6.2-15.1l-23.4-1.6l6.2,18.7l11.5,12.5
	c0,0-1.6,17.6,0,20.2c1.6,2.6-14.5,3-20.2,4.6s-19.7,8.9-22.4,8.9s-8.3-17.6-13.5-17.6S50,124.2,50,124.2s-6.2,7.8-10.3,7.8
	s-11.5-2.6-16.5,0.6c-5.2,3-16.5,3.6-18.1,8.9S16,151.4,17.6,154s-1,6.2-4.6,8.3c-3.6,2,1,3.6,5.7,8.9c4.6,5.2,5.2,2,12.5,3.6
	c6.4,1.5,49.3,12.6,62.8,30.3c0.9,1,14.1,2,14.7,4.4c-6.4-0.1-11.5-1.3-11.2,2.6c6.2,23.9,20.2,30.6,32.7,48.2
	c5.2,7.3,5.1,22.5,8.1,26.3c8.1,9.9,21.5,26.7,22.1,32.7c0.3,3.2-22.9-15.5-22.8-11.9c1.3,39.8-10.2,86.5-21.5,93.6
	c-15.1,9.3,169.7,61.7,170.1,48.2c1-24.1,22.4-63.7,58.6-55c23.9,5.8,48.2,28,53.4,24.4c5.2-3.6,42.1-31.6,44.1-35.9
	c2-4.2-7.3-23.4-16.1-27c-8.9-3.6-12.9-31.2-12.9-40.5s5.7-72.1-2-68.9c-7.8,3-26.4,10.9-17.6-3c8.9-14.1,29-40.9,38.9-47.8
	c9.9-6.7,10.5-22.8,12.9-38.3s14.1-35.9,17.7-38.9s-16.5-8.9-27-10.3c-10.5-1.6-33.7-22.4-40.9-21.3c-7.3,1-19.2,2-24.4,0.6
	c-5.2-1.6-22.8-12.5-23.4-14.5s-0.6-14.5-0.6-19.7s-3.6-0.6-8.9,4.2c-5.2,4.6-12.5,1.6-12.9-4.6c-0.6-6.2,5.2-6.2-10.9-12.9
	c-16.1-6.7-15.1-3-25-11.9S275.7,17,270.5,14.4C265.2,11.1,266.2,8.8,266.2,6.5L266.2,6.5z"/>
<g>
	<path class="st1" d="M193.7,233.5c9.9-9.9,22-14.9,36.1-14.9c14.1,0,26.2,5,36.1,14.9s14.9,22,14.9,36.1c0,7.1-1.8,15.2-5.3,24.3
		c-3.5,9.1-7.8,17.7-12.8,25.7c-5,8-10,15.5-14.9,22.4c-4.9,7-9.1,12.5-12.5,16.6l-5.5,5.8c-1.4-1.6-3.2-3.7-5.5-6.3
		c-2.3-2.6-6.4-7.9-12.3-15.7c-5.9-7.9-11.1-15.5-15.6-22.9c-4.5-7.4-8.5-15.8-12.2-25.2c-3.7-9.4-5.5-17.6-5.5-24.6
		C178.8,255.5,183.8,243.4,193.7,233.5z M217,282.4c3.5,3.5,7.8,5.3,12.8,5.3c5,0,9.3-1.8,12.8-5.3c3.5-3.5,5.3-7.8,5.3-12.8
		c0-5-1.8-9.3-5.3-12.8c-3.5-3.5-7.8-5.3-12.8-5.3c-5,0-9.3,1.8-12.8,5.3c-3.5,3.5-5.3,7.8-5.3,12.8
		C211.7,274.6,213.5,278.9,217,282.4z"/>
</g>
</svg>
