<?xml version="1.0" encoding="utf-8"?>
<!-- Generator: Adobe Illustrator 19.2.1, SVG Export Plug-In . SVG Version: 6.00 Build 0)  -->
<svg version="1.1" id="Calque_1" xmlns="http://www.w3.org/2000/svg" xmlns:xlink="http://www.w3.org/1999/xlink" x="0px" y="0px"
	 viewBox="0 0 340.9 300" style="enable-background:new 0 0 340.9 300;" xml:space="preserve">
<style type="text/css">
	.st0{fill:#EFBC64;}
	.st1{fill:#3B4D57;}
	.st2{fill:#516B78;}
	.st3{fill:#668796;}
	.st4{fill:#010202;}
	.st5{opacity:0.2;fill:#3B4D57;}
	.st6{fill:#F6F6F6;stroke:#F6F6F6;stroke-width:8;stroke-miterlimit:10;}
	.st7{opacity:0.2;clip-path:url(#SVGID_2_);fill:#F6F6F6;stroke:#F6F6F6;stroke-width:8;stroke-miterlimit:10;}
	.st8{fill:#A6A155;stroke:#E7675A;stroke-width:6;stroke-miterlimit:10;}
	.st9{fill:#CFC869;stroke:#E7675A;stroke-width:6;stroke-miterlimit:10;}
	.st10{fill:#D6D06D;stroke:#E7675A;stroke-width:6;stroke-miterlimit:10;}
	.st11{fill:#CFC868;stroke:#E7675A;stroke-width:6;stroke-miterlimit:10;}
	.st12{opacity:0.2;clip-path:url(#SVGID_4_);fill:#190810;stroke:#E7675A;stroke-width:6;stroke-miterlimit:10;}
</style>
<path class="st0" d="M179.1,0c-82.8,0-150,67.2-150,150c0,82.8,67.2,150,150,150c82.8,0,150-67.2,150-150
	C329.1,67.2,261.9,0,179.1,0z"/>
<g>
	<path class="st1" d="M106.2,44.5c-9.7,13.8-13.6,36.4-13.6,50.4c0,29.9,0.3,47.2,0.3,47.2l12.6,0.7c0,0-2-22.2-0.8-45
		c1.2-23.2,5.2-32.7,10.5-42.7c12.8-23.7,46.2-28.8,63.7-28.9v-13C179.1,13.2,131.2,8.8,106.2,44.5z"/>
	<path class="st2" d="M179.1,13.2v13c17.5,0.2,50.9,5.2,63.7,28.9c5.4,9.9,9.3,19.5,10.5,42.7c1.2,22.8-0.8,45-0.8,45l12.6-0.7
		c0,0,0.3-17.3,0.3-47.2c0-14-3.9-36.6-13.6-50.4C226.9,8.8,179.1,13.2,179.1,13.2z"/>
	<path class="st3" d="M70.4,116.9c-2.9,0-5.2,2.3-5.2,5.2v48.2c0,2.9,2.3,5.2,5.2,5.2c2.9,0,5.2-2.3,5.2-5.2v-48.2
		C75.6,119.2,73.3,116.9,70.4,116.9z"/>
	<path class="st3" d="M287.7,113.5c-2.9,0-5.2,2.3-5.2,5.2v48.2c0,2.9,2.3,5.2,5.2,5.2c2.9,0,5.2-2.3,5.2-5.2v-48.2
		C292.9,115.8,290.6,113.5,287.7,113.5z"/>
	<path class="st4" d="M92.6,95.6c-12.3,0-22.2,8.8-22.2,19.6v61.9c0,10.8,10,19.6,22.2,19.6c12.3,0,22.2-8.8,22.2-19.6v-61.9
		C114.9,104.4,104.9,95.6,92.6,95.6z"/>
	<path class="st4" d="M265.5,95.6c-12.3,0-22.2,8.8-22.2,19.6v61.9c0,10.8,10,19.6,22.2,19.6c12.3,0,22.2-8.8,22.2-19.6v-61.9
		C287.7,104.4,277.7,95.6,265.5,95.6z"/>
	<path class="st1" d="M260.4,217.9l-153.1,0c-0.1,0-6.4,0.3-9.7-3.7c-3.8-4.5-3-9.5-3-10l0-7.5h-4l0,7.2c0,0.3-1.1,6.9,3.9,12.9
		c3.9,4.7,10.4,5.1,12.3,5.1c0.3,0,0.5,0,0.6,0l157,0v-25.4h-4V217.9z"/>
	<path class="st1" d="M267.9,217.9h-5.5v4h5.5c0.7,0,7,0.2,7,7.6c0,7-5.4,7.4-6.4,7.4H105.1c-0.7,0-7.3-0.1-10.8,3.5
		c-3.7,3.8-3.7,9.3-3.7,9.5v8.1h4v-8.2c0,0,0-4,2.5-6.7c2-2,6.3-2.4,7.9-2.3h163.3c0.2,0,4.3,0,7.4-3c2-2,3.1-4.9,3.1-8.4
		C278.9,220.4,271.7,217.9,267.9,217.9z"/>
	<rect x="88.6" y="256" class="st4" width="8.2" height="26"/>
	<rect x="90.5" y="282" class="st1" width="4.3" height="13.3"/>
	<path class="st5" d="M99.6,102.7c-4.9,0-8.9,4-8.9,8.9v66.4c0,4.9,4,8.9,8.9,8.9c4.9,0,8.9-4,8.9-8.9v-66.4
		C108.5,106.7,104.5,102.7,99.6,102.7z"/>
	<path class="st5" d="M273.3,102.7c-4.9,0-8.9,4-8.9,8.9v66.4c0,4.9,4,8.9,8.9,8.9c4.9,0,8.9-4,8.9-8.9v-66.4
		C282.2,106.7,278.2,102.7,273.3,102.7z"/>
	<g>
		<path class="st6" d="M120.1,120.9c0,0,1.6,47.4,12.4,63.5c10.8,16.1,46.7,24.6,46.7,24.6s4.9-35.8-5.9-51.9
			C162.4,140.9,120.1,120.9,120.1,120.9z"/>
		<path class="st6" d="M146.7,168.1c-17.7-8-64.2-2.6-64.2-2.6s26.3,39.4,44,47.4c17.7,8,52.7-3.8,52.7-3.8S164.4,176.1,146.7,168.1
			z"/>
		<path class="st6" d="M185.1,157.1c-10.8,16.2-5.9,51.9-5.9,51.9s35.9-8.4,46.7-24.6c10.8-16.2,12.4-63.5,12.4-63.5
			S196,140.9,185.1,157.1z"/>
		<path class="st6" d="M211.7,168.1c-17.7,8-32.5,41-32.5,41s34.9,11.8,52.6,3.8c17.7-8,44.1-47.4,44.1-47.4
			S229.4,160.1,211.7,168.1z"/>
		<path class="st6" d="M154.1,162.6c0,19.5,25.1,46.4,25.1,46.4s24-27,24-46.4c0-19.5-24-59.6-24-59.6S154.1,143.1,154.1,162.6z"/>
		<g>
			<defs>
				<path id="SVGID_1_" d="M233.3,164c4.3-19.5,5-43.1,5-43.1s-22.8,10.8-39.2,22.9c-6.9-19.2-19.8-40.9-19.8-40.9
					s-13.3,21.3-20.5,40.4c-16.4-11.9-38.6-22.4-38.6-22.4s0.8,23.5,5,43.1c-19.8-1.2-42.6,1.5-42.6,1.5s26.3,39.4,44,47.4
					c17.7,8,52.7-3.8,52.7-3.8s0,0,0-0.1c0,0,0,0,0,0s0,0,0,0c0,0,0,0,0,0l0,0c0,0,0,0.1,0,0.1s34.9,11.8,52.6,3.8
					c17.7-8,44.1-47.4,44.1-47.4S253,162.8,233.3,164z"/>
			</defs>
			<use xlink:href="#SVGID_1_"  style="overflow:visible;fill:#F6F6F6;"/>
			<clipPath id="SVGID_2_">
				<use xlink:href="#SVGID_1_"  style="overflow:visible;"/>
			</clipPath>
			<rect x="79.2" y="101" class="st7" width="99.9" height="147.3"/>
			<use xlink:href="#SVGID_1_"  style="overflow:visible;fill:none;stroke:#F6F6F6;stroke-width:8;stroke-miterlimit:10;"/>
		</g>
	</g>
	<g>
		<path class="st8" d="M119.8,120.1c0,0,1.6,47.4,12.4,63.5c10.8,16.1,46.7,24.6,46.7,24.6s4.9-35.8-5.9-51.9
			C162.1,140.1,119.8,120.1,119.8,120.1z"/>
		<path class="st9" d="M146.4,167.2c-17.7-8-64.2-2.6-64.2-2.6s26.3,39.4,44,47.4c17.7,8,52.7-3.8,52.7-3.8S164.2,175.2,146.4,167.2
			z"/>
		<path class="st8" d="M184.9,156.2c-10.8,16.2-5.9,51.9-5.9,51.9s35.9-8.4,46.7-24.6c10.8-16.2,12.4-63.5,12.4-63.5
			S195.7,140.1,184.9,156.2z"/>
		<path class="st10" d="M211.4,167.2c-17.7,8-32.5,41-32.5,41s34.9,11.8,52.6,3.8c17.7-8,44.1-47.4,44.1-47.4
			S229.1,159.2,211.4,167.2z"/>
		<path class="st11" d="M153.9,161.7c0,19.5,25.1,46.4,25.1,46.4s24-27,24-46.4c0-19.5-24-59.6-24-59.6S153.9,142.3,153.9,161.7z"/>
		<g>
			<defs>
				<path id="SVGID_3_" d="M233,163.2c4.3-19.5,5-43.1,5-43.1s-22.8,10.8-39.2,22.9c-6.9-19.2-19.8-40.9-19.8-40.9
					s-13.3,21.3-20.5,40.4c-16.4-11.9-38.6-22.4-38.6-22.4s0.8,23.5,5,43.1c-19.8-1.2-42.6,1.5-42.6,1.5s26.3,39.4,44,47.4
					c17.7,8,52.7-3.8,52.7-3.8s0,0,0-0.1c0,0,0,0,0,0s0,0,0,0c0,0,0,0,0,0l0,0c0,0,0,0.1,0,0.1s34.9,11.8,52.6,3.8
					c17.7-8,44.1-47.4,44.1-47.4S252.8,162,233,163.2z"/>
			</defs>
			<clipPath id="SVGID_4_">
				<use xlink:href="#SVGID_3_"  style="overflow:visible;"/>
			</clipPath>
			<rect x="78.9" y="100.1" class="st12" width="99.9" height="147.3"/>
			<use xlink:href="#SVGID_3_"  style="overflow:visible;fill:none;stroke:#E7675A;stroke-width:6;stroke-miterlimit:10;"/>
		</g>
	</g>
</g>
</svg>
