<?xml version="1.0" encoding="utf-8"?>
<!-- Generator: Adobe Illustrator 19.2.1, SVG Export Plug-In . SVG Version: 6.00 Build 0)  -->
<svg version="1.1" id="Calque_1" xmlns="http://www.w3.org/2000/svg" xmlns:xlink="http://www.w3.org/1999/xlink" x="0px" y="0px"
	 viewBox="0 0 304.1 300" style="enable-background:new 0 0 304.1 300;" xml:space="preserve">
<style type="text/css">
	.st0{fill:#EFBC64;}
	.st1{fill:#A6A155;}
	.st2{fill:#F7F6F2;}
	.st3{fill:#557288;}
	.st4{fill:#3B4D57;}
	.st5{fill:#EFEEEA;}
</style>
<g>
	<circle class="st0" cx="151.4" cy="150.3" r="135.2"/>
</g>
<g>
	<polygon class="st1" points="29.5,148.6 33.3,28.6 43.5,28.9 40.4,149.7 	"/>
	<polygon class="st1" points="255.5,154.3 262.1,32.8 269.5,34.5 266.5,155.4 	"/>
	<g>
		<path class="st1" d="M276.4,29.9c-0.2,6.4-5.5,11.4-11.9,11.3c-6.4-0.2-11.4-5.5-11.3-11.9c0.2-6.4,4-11.8,10.4-11.6
			C270,17.9,276.5,23.5,276.4,29.9z"/>
		<path class="st2" d="M261.8,32.1c-3-0.3-5.2-3-4.9-6c0.3-3,3-5.2,6-4.8c3,0.3,5.4,2.4,5.1,5.4C267.8,29.6,264.8,32.4,261.8,32.1z"
			/>
	</g>
	<g>
		<path class="st1" d="M271.3,12.2c-0.1,4-3.4,7.2-7.4,7.1c-4-0.1-7.2-3.4-7.1-7.4c0.1-4,2.5-7.4,6.5-7.3
			C267.4,4.6,271.4,8.2,271.3,12.2z"/>
		<path class="st2" d="M262.3,13.5c-1.9-0.2-3.2-1.9-3-3.8c0.2-1.9,1.9-3.2,3.8-3c1.9,0.2,3.4,1.5,3.2,3.4
			C266,12,264.1,13.7,262.3,13.5z"/>
	</g>
	<g>
		<path class="st1" d="M48.9,24.9c-0.2,6.4-5.5,11.4-11.9,11.3c-6.4-0.2-11.4-5.5-11.3-11.9c0.2-6.4,4-11.8,10.4-11.6
			C42.5,12.9,49,18.6,48.9,24.9z"/>
		<path class="st2" d="M34.4,27.1c-3-0.3-5.2-3-4.9-6c0.3-3,3-5.2,6-4.9c3,0.3,5.4,2.4,5.1,5.4C40.3,24.6,37.4,27.5,34.4,27.1z"/>
	</g>
	<g>
		<path class="st1" d="M44.8,7.6c-0.1,4-3.4,7.2-7.4,7.1c-4-0.1-7.2-3.4-7.1-7.4c0.1-4,2.5-7.4,6.5-7.3C40.9,0.1,44.9,3.6,44.8,7.6z
			"/>
		<path class="st2" d="M35.7,9c-1.9-0.2-3.2-1.9-3-3.8c0.2-1.9,1.9-3.2,3.8-3c1.9,0.2,3.4,1.5,3.2,3.4C39.5,7.4,37.6,9.2,35.7,9z"/>
	</g>
	<polygon class="st1" points="38.8,57 264.9,59.9 263.6,66.6 39.4,65.7 	"/>
	<polygon class="st1" points="70.5,63.7 69.3,143.8 75.6,143.1 76,64.2 	"/>
	<polygon class="st1" points="111.7,64.7 109.3,144.8 115.6,144.1 116,63.3 	"/>
	<polygon class="st1" points="147.8,65.6 145.4,145.7 151.7,145 152.1,64.2 	"/>
	<polygon class="st1" points="187.8,64.9 185.4,146.7 191.7,146 192.2,65.2 	"/>
	<polygon class="st1" points="228.7,63.8 226.2,147.7 232.5,147 233.1,62.3 	"/>
	<polygon class="st1" points="40.1,246 38.9,294.7 49.3,294.9 51.6,246.8 	"/>
	<polygon class="st1" points="262,251 260.8,299.7 272.6,300 275,251.9 	"/>
	<g>
		<path class="st3" d="M39.3,148.3c0,0-1-28.5,0.9-38.6c0,0,65.6-14.1,103.7-3.7c0,0,7.5,25.3,2.3,40.1L39.3,148.3z"/>
		<g>
			<path class="st3" d="M42.4,111.2c-4.1,1.9-13-0.9-9.1-5.8C35.3,102.7,39.5,106,42.4,111.2"/>
		</g>
		<g>
			<path class="st3" d="M140,108.1c-0.8-4.3,4.3-11.9,8.2-7C150.3,103.8,146,106.7,140,108.1"/>
		</g>
	</g>
	<g>
		<path class="st3" d="M164.9,145c0,0-3.6-21.3,3.5-39.2c0,0,45-5.9,84-4.2c0,0,10,30.1,7.1,49.6L164.9,145z"/>
		<g>
			<path class="st3" d="M171.3,107.1c-4.2,1.8-13.3-0.9-9.3-5.8C164,98.6,168.2,101.8,171.3,107.1"/>
		</g>
		<g>
			<path class="st3" d="M250.1,104.6c-0.8-4.3,4.3-11.9,8.4-7C260.6,100.2,256.2,103.2,250.1,104.6"/>
		</g>
	</g>
	<path class="st4" d="M8.6,147.9c0,0,57.7-5.9,138.4-6.4c80.1-0.6,149.6,5.3,149.6,5.3s3.5,21.6,6.6,49.6c2,18.2,0.1,57.8,0.1,57.8
		L0.7,251.8c0,0-1.8-34.6,0.3-63.1C2.3,171.3,7,161,8.6,147.9z"/>
	<path class="st4" d="M13.3,251.9c-0.6,18.5-1.1,22.3-2.7,22.2c-3.8-0.2-3.4-5.7-2.7-24.9c0.4-8.9,1.6-7.5,3.2-7.5
		C12.8,241.8,13.6,243,13.3,251.9z"/>
	<path class="st4" d="M35.3,252.5c-0.6,18.5-1.1,22.3-2.7,22.2c-3.8-0.2-3.4-5.6-2.7-24.9c0.4-8.9,1.6-7.5,3.2-7.5
		C34.8,242.3,35.6,243.5,35.3,252.5z"/>
	<path class="st4" d="M61.4,253.1c-0.6,18.5-1.1,22.3-2.7,22.2c-3.8-0.2-3.4-5.7-2.6-24.9c0.4-8.9,1.6-7.5,3.2-7.5
		C60.9,243,61.7,244.2,61.4,253.1z"/>
	<path class="st4" d="M86.6,253.2c-0.6,18.5-1.1,22.3-2.7,22.2c-3.8-0.2-3.4-5.7-2.6-24.9c0.4-8.9,1.6-7.5,3.2-7.5
		C86.1,243.1,86.9,244.3,86.6,253.2z"/>
	<path class="st4" d="M111.2,253.3c-0.6,18.5-1.1,22.3-2.7,22.2c-3.8-0.2-3.4-5.7-2.6-24.9c0.4-8.9,1.6-7.5,3.2-7.5
		C110.7,243.2,111.5,244.4,111.2,253.3z"/>
	<path class="st4" d="M135.2,253.9c-0.6,18.5-1.1,22.3-2.7,22.2c-3.8-0.2-3.4-5.6-2.7-24.9c0.4-8.9,1.6-7.5,3.2-7.5
		C134.7,243.8,135.5,245,135.2,253.9z"/>
	<path class="st4" d="M161.4,254.6c-0.6,18.5-1.1,22.3-2.7,22.2c-3.8-0.2-3.4-5.6-2.7-24.9c0.4-8.9,1.6-7.5,3.2-7.5
		C160.9,244.4,161.7,245.6,161.4,254.6z"/>
	<path class="st4" d="M184.9,256.2c-0.6,18.5-1.1,22.3-2.7,22.2c-3.8-0.2-3.4-5.6-2.7-24.9c0.4-8.9,1.6-7.5,3.2-7.5
		C184.4,246.1,185.2,247.3,184.9,256.2z"/>
	<path class="st4" d="M207.5,254.7c-0.6,18.5-1.1,22.3-2.7,22.2c-3.8-0.2-3.4-5.6-2.7-24.9c0.4-8.9,1.6-7.5,3.2-7.5
		C207,244.5,207.8,245.7,207.5,254.7z"/>
	<path class="st4" d="M226.3,255.7c-0.6,18.5-1.1,22.3-2.7,22.2c-3.8-0.2-3.4-5.6-2.7-24.9c0.4-8.9,1.6-7.5,3.2-7.5
		C225.8,245.5,226.6,246.7,226.3,255.7z"/>
	<path class="st4" d="M245.2,257.2c-0.6,18.5-1.1,22.3-2.7,22.2c-3.8-0.2-3.4-5.7-2.7-24.9c0.4-8.9,1.6-7.5,3.2-7.5
		C244.7,247,245.5,248.3,245.2,257.2z"/>
	<path class="st4" d="M270.4,255.7c-0.6,18.5-1.1,22.3-2.7,22.2c-3.8-0.2-3.4-5.7-2.7-24.9c0.4-8.9,1.6-7.5,3.2-7.5
		C269.9,245.6,270.7,246.8,270.4,255.7z"/>
	<path class="st4" d="M294.8,254.8c-0.6,18.5-1.1,22.3-2.7,22.2c-3.8-0.2-3.4-5.7-2.7-24.9c0.4-8.9,1.6-7.5,3.2-7.5
		C294.2,244.7,295,245.9,294.8,254.8z"/>
	<g>
		<path class="st5" d="M171.5,159.6c-0.6-0.9-1-3.2,0.5-3.4c1.4-0.3,1.3,1.6,1.1,2.6c0.3-0.9,2.4-1.7,3-0.8c0.8,1.3-1.3,1.9-2.2,2.2
			c1.1,0,3.1,1.6,2.4,2.9c-1,1.5-2.6-0.7-3.2-1.6c0.2,0.8,0.6,3.5-1,3.2c-1.2-0.3-1.1-1.9-0.7-3.1c-0.8,0.6-3.2,0.5-3-1.2
			C168.7,159.3,170.5,159.3,171.5,159.6"/>
	</g>
	<g>
		<path class="st5" d="M36.4,163.3c-0.6-0.9-1-3.2,0.5-3.4c1.4-0.3,1.3,1.6,1.1,2.6c0.3-0.9,2.4-1.7,3-0.8c0.8,1.3-1.3,1.9-2.2,2.2
			c1.1,0,3.1,1.7,2.4,2.9c-1,1.5-2.6-0.7-3.2-1.6c0.2,0.8,0.6,3.5-1,3.2c-1.2-0.3-1.1-1.9-0.7-3.1c-0.8,0.6-3.2,0.5-3-1.2
			C33.6,163,35.4,163,36.4,163.3"/>
	</g>
	<g>
		<path class="st5" d="M52.4,194.8c-0.6-0.9-1-3.2,0.5-3.4c1.4-0.3,1.3,1.6,1.1,2.6c0.3-0.9,2.4-1.7,3-0.8c0.8,1.3-1.3,1.9-2.2,2.2
			c1.1,0,3.1,1.7,2.4,2.9c-1,1.5-2.6-0.7-3.2-1.6c0.2,0.8,0.6,3.5-1,3.2c-1.2-0.3-1.1-1.9-0.7-3.1c-0.8,0.6-3.2,0.5-3-1.2
			C49.6,194.5,51.4,194.5,52.4,194.8"/>
	</g>
	<g>
		<path class="st5" d="M91.9,164.1c-0.6-0.9-1-3.2,0.5-3.4c1.4-0.3,1.3,1.6,1.1,2.6c0.3-0.9,2.4-1.7,3-0.8c0.8,1.3-1.3,1.9-2.2,2.2
			c1.1,0,3.1,1.6,2.4,2.9c-1,1.5-2.6-0.7-3.2-1.6c0.2,0.8,0.6,3.5-1,3.2c-1.2-0.3-1.1-1.9-0.7-3.1c-0.8,0.6-3.2,0.5-3-1.2
			C89.1,163.9,90.9,163.9,91.9,164.1"/>
	</g>
	<g>
		<path class="st5" d="M89.4,221.1c-0.6-0.9-1-3.2,0.5-3.4c1.4-0.3,1.3,1.6,1.1,2.6c0.3-0.9,2.4-1.7,3-0.8c0.8,1.3-1.3,1.9-2.2,2.2
			c1.1,0,3.1,1.7,2.4,2.9c-1,1.5-2.6-0.7-3.2-1.6c0.2,0.8,0.6,3.5-1,3.2c-1.2-0.3-1.1-1.9-0.7-3.1c-0.8,0.6-3.2,0.5-3-1.2
			C86.6,220.9,88.4,220.9,89.4,221.1"/>
	</g>
	<g>
		<path class="st5" d="M17.7,220.9c-0.6-0.9-1-3.2,0.5-3.4c1.4-0.3,1.3,1.6,1.1,2.6c0.3-0.9,2.4-1.7,3-0.8c0.8,1.3-1.3,1.9-2.2,2.2
			c1.1,0,3.1,1.7,2.4,2.9c-1,1.5-2.6-0.7-3.2-1.6c0.2,0.8,0.6,3.5-1,3.2c-1.2-0.3-1.1-1.9-0.7-3.1c-0.8,0.6-3.2,0.5-3-1.2
			C14.9,220.6,16.7,220.6,17.7,220.9"/>
	</g>
	<g>
		<path class="st5" d="M104.3,190.6c-0.6-0.9-1-3.2,0.5-3.4c1.4-0.3,1.3,1.6,1.1,2.6c0.3-0.9,2.4-1.7,3-0.8c0.8,1.3-1.3,1.9-2.2,2.2
			c1.1,0,3.1,1.6,2.4,2.9c-1,1.5-2.6-0.7-3.2-1.6c0.2,0.8,0.6,3.5-1,3.2c-1.2-0.3-1.1-1.9-0.7-3.1c-0.8,0.6-3.2,0.5-3-1.2
			C101.5,190.3,103.4,190.3,104.3,190.6"/>
	</g>
	<g>
		<path class="st5" d="M138.8,173.1c-0.6-0.9-1-3.2,0.5-3.4c1.4-0.3,1.3,1.6,1.1,2.6c0.3-0.9,2.4-1.7,3-0.8c0.8,1.3-1.3,1.9-2.2,2.2
			c1.1,0,3.1,1.7,2.4,2.9c-1,1.5-2.6-0.7-3.2-1.6c0.2,0.8,0.6,3.5-1,3.2c-1.2-0.3-1.1-1.9-0.7-3.1c-0.8,0.6-3.2,0.5-3-1.2
			C136,172.8,137.8,172.8,138.8,173.1"/>
	</g>
	<g>
		<path class="st5" d="M138.8,236.5c-0.6-0.9-1-3.2,0.5-3.4c1.4-0.3,1.3,1.6,1.1,2.6c0.3-0.9,2.4-1.7,3-0.8c0.8,1.3-1.3,1.9-2.2,2.2
			c1.1,0,3.1,1.7,2.4,2.9c-1,1.5-2.6-0.7-3.2-1.6c0.2,0.8,0.6,3.5-1,3.2c-1.2-0.3-1.1-1.9-0.7-3.1c-0.8,0.6-3.2,0.5-3-1.2
			C136,236.2,137.8,236.2,138.8,236.5"/>
	</g>
	<g>
		<path class="st5" d="M162,207.2c-0.6-0.9-1-3.2,0.5-3.4c1.4-0.3,1.3,1.6,1.1,2.6c0.3-0.9,2.4-1.7,3-0.8c0.8,1.3-1.3,1.9-2.2,2.2
			c1.1,0,3.1,1.7,2.4,2.9c-1,1.5-2.6-0.7-3.2-1.6c0.2,0.8,0.6,3.5-1,3.2c-1.2-0.3-1.1-1.9-0.7-3.1c-0.8,0.6-3.2,0.5-3-1.2
			C159.2,206.9,161.1,206.9,162,207.2"/>
	</g>
	<g>
		<path class="st5" d="M208.3,157c-0.6-0.9-1-3.2,0.5-3.4c1.4-0.3,1.3,1.6,1.1,2.6c0.3-0.9,2.4-1.7,3-0.8c0.8,1.3-1.3,1.9-2.2,2.2
			c1.1,0,3.1,1.7,2.4,2.9c-1,1.5-2.6-0.7-3.2-1.6c0.2,0.8,0.6,3.5-1,3.2c-1.2-0.3-1.1-1.9-0.7-3.1c-0.8,0.6-3.2,0.5-3-1.2
			C205.5,156.8,207.3,156.8,208.3,157"/>
	</g>
	<g>
		<path class="st5" d="M194.3,234.7c-0.6-0.9-1-3.2,0.5-3.4c1.4-0.3,1.3,1.6,1.1,2.6c0.3-0.9,2.4-1.7,3-0.8c0.8,1.3-1.3,1.9-2.2,2.2
			c1.1,0,3.1,1.7,2.4,2.9c-1,1.5-2.6-0.7-3.2-1.6c0.2,0.8,0.6,3.5-1,3.2c-1.2-0.3-1.1-1.9-0.7-3.1c-0.8,0.6-3.2,0.5-3-1.2
			C191.5,234.4,193.3,234.4,194.3,234.7"/>
	</g>
	<g>
		<path class="st5" d="M206.5,187.4c-0.6-0.9-1-3.2,0.5-3.4c1.4-0.3,1.3,1.6,1.1,2.6c0.3-0.9,2.4-1.7,3-0.8c0.8,1.3-1.3,1.9-2.2,2.2
			c1.1,0,3.1,1.7,2.4,2.9c-1,1.5-2.6-0.7-3.2-1.6c0.2,0.8,0.6,3.5-1,3.2c-1.2-0.3-1.1-1.9-0.7-3.1c-0.8,0.6-3.2,0.5-3-1.2
			C203.7,187.1,205.5,187.1,206.5,187.4"/>
	</g>
	<g>
		<path class="st5" d="M239.9,235.3c-0.6-0.9-1-3.2,0.5-3.4c1.4-0.3,1.3,1.6,1.1,2.6c0.3-0.9,2.4-1.7,3-0.8c0.8,1.3-1.3,1.9-2.2,2.2
			c1.1,0,3.1,1.7,2.4,2.9c-1,1.5-2.6-0.7-3.2-1.6c0.2,0.8,0.6,3.5-1,3.2c-1.2-0.3-1.1-1.9-0.7-3.1c-0.8,0.6-3.2,0.5-3-1.2
			C237,235,238.9,235,239.9,235.3"/>
	</g>
	<g>
		<path class="st5" d="M246.4,161.7c-0.6-0.9-1-3.2,0.5-3.4c1.4-0.3,1.3,1.6,1.1,2.6c0.3-0.9,2.4-1.7,3-0.8c0.8,1.3-1.3,1.9-2.2,2.2
			c1.1,0,3.1,1.7,2.4,2.9c-1,1.5-2.6-0.7-3.2-1.6c0.2,0.8,0.6,3.5-1,3.2c-1.2-0.3-1.1-1.9-0.7-3.1c-0.8,0.6-3.2,0.5-3-1.2
			C243.6,161.4,245.4,161.4,246.4,161.7"/>
	</g>
	<g>
		<path class="st5" d="M251.7,202.1c-0.6-0.9-1-3.2,0.5-3.4c1.4-0.3,1.3,1.6,1.1,2.6c0.3-0.9,2.4-1.7,3-0.8c0.8,1.3-1.3,1.9-2.2,2.2
			c1.1,0,3.1,1.7,2.4,2.9c-1,1.5-2.6-0.7-3.2-1.6c0.2,0.8,0.6,3.5-1,3.2c-1.2-0.3-1.1-1.9-0.7-3.1c-0.8,0.6-3.2,0.5-3-1.2
			C248.9,201.8,250.7,201.8,251.7,202.1"/>
	</g>
	<g>
		<path class="st5" d="M281.5,223.8c-0.6-0.9-1-3.2,0.5-3.4c1.4-0.3,1.3,1.6,1.1,2.6c0.3-0.9,2.4-1.7,3-0.8c0.8,1.3-1.3,1.9-2.2,2.2
			c1.1,0,3.1,1.7,2.4,2.9c-1,1.5-2.6-0.7-3.2-1.6c0.2,0.8,0.6,3.5-1,3.2c-1.2-0.3-1.1-1.9-0.7-3.1c-0.8,0.6-3.2,0.5-3-1.2
			C278.7,223.5,280.5,223.5,281.5,223.8"/>
	</g>
	<g>
		<path class="st5" d="M282.3,172c-0.6-0.9-1-3.2,0.5-3.4c1.4-0.3,1.3,1.6,1.1,2.6c0.3-0.9,2.4-1.7,3-0.8c0.8,1.3-1.3,1.9-2.2,2.2
			c1.1,0,3.1,1.7,2.4,2.9c-1,1.5-2.6-0.7-3.2-1.6c0.2,0.8,0.6,3.5-1,3.2c-1.2-0.3-1.1-1.9-0.7-3.1c-0.8,0.6-3.2,0.5-3-1.2
			C279.4,171.7,281.3,171.7,282.3,172"/>
	</g>
	<g>
		<path class="st5" d="M48.8,234.2c-0.6-0.9-1-3.2,0.5-3.4c1.4-0.3,1.3,1.6,1.1,2.6c0.3-0.9,2.4-1.7,3-0.8c0.8,1.3-1.3,1.9-2.2,2.2
			c1.1,0,3.1,1.7,2.4,2.9c-1,1.5-2.6-0.7-3.2-1.6c0.2,0.8,0.6,3.5-1,3.2c-1.2-0.3-1.1-1.9-0.7-3.1c-0.8,0.6-3.2,0.5-3-1.2
			C46,233.9,47.8,233.9,48.8,234.2"/>
	</g>
</g>
</svg>
