<?xml version="1.0" encoding="utf-8"?>
<!-- Generator: Adobe Illustrator 19.2.1, SVG Export Plug-In . SVG Version: 6.00 Build 0)  -->
<svg version="1.1" id="Calque_1" xmlns="http://www.w3.org/2000/svg" xmlns:xlink="http://www.w3.org/1999/xlink" x="0px" y="0px"
	 viewBox="0 0 340.9 300" style="enable-background:new 0 0 340.9 300;" xml:space="preserve">
<style type="text/css">
	.st0{fill:#EFBC64;}
	.st1{fill:#D6D06D;}
	.st2{fill:#A6A155;}
	.st3{opacity:0.2;clip-path:url(#SVGID_2_);fill:#3B1011;}
	.st4{fill:#F7F2EE;}
	.st5{fill:#3B4D57;}
	.st6{opacity:0.3;fill:#353340;}
	.st7{fill:#FFFFFF;}
	.st8{fill:#D79C21;}
	.st9{opacity:0.2;clip-path:url(#SVGID_4_);fill:#3B1011;}
	.st10{opacity:0.5;fill:#FFFFFF;}
	.st11{fill:#736E69;}
	.st12{fill:#F7C8BB;}
	.st13{fill:#E7685A;}
</style>
<path class="st0" d="M179.1,0c-82.8,0-150,67.2-150,150c0,82.8,67.2,150,150,150c82.8,0,150-67.2,150-150
	C329.1,67.2,261.9,0,179.1,0z"/>
<g>
	<g>
		<path class="st1" d="M126.4,142.1H72.3c-29.5,0-52.1,2.5-50,32.9c1,14.7,13.3,25.6,13.3,25.6H22.3c0,8.9,0,24.5,0,24.5
			s31.5,0,49.9,0h54.4c29.5,0,50.9,0,53.4-42.8C180,153,155.9,142.1,126.4,142.1z"/>
		<path class="st2" d="M147.8,136.7c-7.9-1.4-98.3,0.2-103.7,1.3c-17.3,3.3-27.7,15.9-27.7,33.7c0,9.9,3,17.4,7,22.9h-1.1
			c-3.3,0-5.9,2.7-5.9,5.9v24.5c0,1.6,0.6,3.1,1.8,4.2c1.1,1.1,2.6,1.7,4.2,1.7c0,0,0,0,0,0c1.2,0,121-1,126.4-0.9
			c8.6,0,17.3-3.5,23.8-9.8c6.2-6.1,13.5-17.9,13.5-39.5C186,157.6,171.7,141.1,147.8,136.7z M164.2,211.9
			c-4.2,4.1-9.7,6.6-15.3,6.4c-4.9,0-95.9,0.6-120.7,0.8v-12.6h7.4c0.9,0,1.8-0.2,2.5-0.6c0.3,0.1,0.6,0.2,0.9,0.3
			c11.3,3.5,85.6,3.2,89.2,2.6c0.2,0,0.5-0.1,0.9-0.1c19.7-2.3,24.2-16.1,24.6-27.2c0.2-6.9-2.2-13-6.9-17.8c-6-6-15.6-9.5-25.7-9.3
			c-2.8,0-11,0-20.6-0.1c-21.8-0.1-38.7-0.2-42.5,0.2c-3.9,0.4-7.5,2.6-10.1,6.3c-3.1,4.4-4.3,10.1-3.2,14.8
			c2.7,10.9,9.9,13.5,15.5,13.7c8.5,0.4,59.4,0.4,61.5,0.4c3.3,0,5.9-2.7,5.9-5.9c0-3.3-2.7-5.9-5.9-5.9c-0.5,0-52.8,0-61-0.4
			c-2.6-0.1-3.7-1.2-4.6-4.9c-0.2-0.9,0.2-3.1,1.4-4.9c0.7-0.9,1.3-1.3,1.5-1.3c3.5-0.3,26.2-0.2,41.3-0.1c9.6,0.1,18,0.1,20.9,0.1
			c6.8-0.1,13.4,2.1,17,5.8c2.4,2.4,3.5,5.4,3.4,9.1c-0.4,13-7.5,14.9-14.1,15.7c-0.6,0.1-1.1,0.1-1.3,0.2
			c-5.7,0.6-75.7,0.3-83.9-2.2c-4.9-1.5-14.3-8.4-14.3-23.2c0-15.4,9.8-20.5,18-22c6.9-1.1,93.3-2.2,99.4-1.3
			c10.7,2,28.5,8.8,28.5,32.4C174.2,194.7,170.7,205.4,164.2,211.9z"/>
		<path class="st1" d="M124.7,74.1H82.4c-23,0-40.7,1.9-39,25.7c0.8,11.5,10.4,20,10.4,20H43.4c0,6.9,0,19.2,0,19.2s24.6,0,39,0
			h42.5c23,0,39.7,0,41.7-33.4C166.6,82.6,147.7,74.1,124.7,74.1z"/>
		<path class="st2" d="M141.6,68.6c-6.6-1.2-76.9,0.1-81.5,1c-14.2,2.7-22.7,13-22.7,27.6c0,7,1.8,12.5,4.5,16.8
			c-2.6,0.7-4.5,3-4.5,5.7v19.2c0,1.6,0.6,3.1,1.8,4.2c1.1,1.1,2.6,1.7,4.2,1.7c0,0,0,0,0,0c0.9,0,94.5-0.7,98.7-0.7
			c7.2,0.1,14.2-2.8,19.5-8.1c5-4.9,10.9-14.4,11-31.8C172.6,85.5,161,72.2,141.6,68.6z M153.3,127.7c-4.3,4.3-9.2,4.7-11,4.6
			c-3.7-0.1-71.9,0.5-92.9,0.6v-7.2h4.5c0.7,0,1.4-0.1,2-0.3c0.1,0,0.2,0.1,0.3,0.1c8.9,2.8,67.5,2.6,70.3,2.1l0.6-0.1
			c16.3-1.9,20.1-13.3,20.4-22.5c0.2-5.8-1.8-10.9-5.7-14.8c-4.9-4.9-12.6-7.8-21-7.6c-2.2,0-8.6,0-16.1,0
			c-17.6-0.1-30.3-0.2-33.3,0.1c-3.4,0.3-6.5,2.3-8.8,5.5c-2.6,3.7-3.7,8.6-2.7,12.6c2.3,9.2,8.5,11.5,13.3,11.7
			c6.7,0.3,46.4,0.3,48.1,0.3c3.3,0,5.9-2.7,5.9-5.9c0-3.3-2.7-5.9-5.9-5.9c-0.4,0-41.2,0-47.5-0.3c-1.2-0.1-1.7-0.2-2.4-2.8
			c-0.2-0.9,0.7-3,1.2-3.3c2.7-0.3,20.3-0.2,32.1-0.1c7.6,0,14.1,0.1,16.4,0c4.9-0.1,9.8,1.5,12.4,4.1c1.6,1.6,2.4,3.6,2.3,6.1
			c-0.3,9.1-4.8,10.4-9.9,11c-0.5,0.1-0.9,0.1-1,0.1c-6.1,0.6-59.1,0.1-65-1.7c-3.6-1.1-10.3-6.1-10.3-16.9c0-8.9,4.4-14.3,13-15.9
			c5.7-0.9,72.2-1.7,77.2-1c9.7,1.8,21.2,7.4,21.2,24C160.7,114.8,158.1,122.9,153.3,127.7z"/>
		<g>
			<defs>
				<path id="SVGID_1_" d="M157.6,139.4c1.4-1,2.8-2.1,4-3.3c5-4.9,10.9-14.4,11-31.8c0-18.8-11.5-32.1-30.9-35.7
					c-6.6-1.2-76.9,0.1-81.5,1c-14.2,2.7-22.7,13-22.7,27.6c0,7,1.8,12.5,4.5,16.8c-2.6,0.7-4.5,3-4.5,5.7v19.2c0,0.3,0,0.6,0.1,0.9
					c-13.4,4.9-21.2,16.5-21.2,31.9c0,9.9,3,17.4,7,22.9h-1.1c-3.3,0-5.9,2.7-5.9,5.9v24.5c0,1.6,0.6,3.1,1.8,4.2
					c1.1,1.1,2.6,1.7,4.2,1.7c0,0,0,0,0,0c1.2,0,121-1,126.4-0.9c8.6,0,17.3-3.5,23.8-9.8c6.2-6.1,13.5-17.9,13.5-39.5
					C186,161,175.6,146.1,157.6,139.4z"/>
			</defs>
			<clipPath id="SVGID_2_">
				<use xlink:href="#SVGID_1_"  style="overflow:visible;"/>
			</clipPath>
			<rect x="11.4" y="63.4" class="st3" width="89.8" height="173"/>
		</g>
	</g>
	<path class="st4" d="M289.4,233.3h-53.1c-2.6,0-4.8,2.1-4.8,4.8c0,2.6,2.1,4.8,4.8,4.8h53.1c2.6,0,4.8-2.1,4.8-4.8
		C294.1,235.4,292,233.3,289.4,233.3z"/>
	<g>
		<path class="st5" d="M20.7,255.1h297.1c8.3-3.2,23-34.9,23-34.9H0C0,220.1,9.2,250.7,20.7,255.1z"/>
		<path class="st6" d="M312.3,245.3h-287c-1.7,0-3.1,1.4-3.1,3.2c0,1.7,1.4,3.1,3.1,3.1h287c1.7,0,3.1-1.4,3.1-3.1
			C315.4,246.7,314,245.3,312.3,245.3z"/>
	</g>
	<g>
		<path class="st7" d="M289.9,123.8c-3.8-1.9-6.6-3.9-9.2-7.3c-1.9-2.5-2.7-9.8-2.7-9.8V93.8h-32.9v12.4c0,0-1.7,8.5-3.6,11
			c-3.3,4.3-6.5,5.4-11,8.1c-18.3,10.7-30.7,30.5-30.7,53.3c0,34.1,27.7,61.8,61.8,61.8s61.8-27.7,61.8-61.8
			C323.3,154.8,309.8,134.1,289.9,123.8z"/>
		<rect x="242.4" y="92.1" class="st7" width="38.3" height="3.4"/>
		<rect x="240.1" y="70.1" class="st5" width="43" height="22"/>
		<path class="st8" d="M277.5,130.8H245c-20.8,6.5-35.9,26-35.9,48.9c0,28.3,23,51.3,51.3,51.3c28.3,0,51.3-23,51.3-51.3
			C311.6,157.5,297.4,137.9,277.5,130.8z"/>
		<g>
			<defs>
				<path id="SVGID_3_" d="M289.9,123.8c-3.8-1.9-6.6-3.9-9.2-7.3c-1.9-2.5-2.7-9.8-2.7-9.8V95.5h2.7v-3.4h2.3v-22h-43v22h2.3v3.4
					h2.7v10.7c0,0-1.7,8.5-3.6,11c-3.3,4.3-6.5,5.4-11,8.1c-18.3,10.7-30.7,30.5-30.7,53.3c0,34.1,27.7,61.8,61.8,61.8
					s61.8-27.7,61.8-61.8C323.3,154.8,309.8,134.1,289.9,123.8z"/>
			</defs>
			<clipPath id="SVGID_4_">
				<use xlink:href="#SVGID_3_"  style="overflow:visible;"/>
			</clipPath>
			<rect x="196.4" y="63" class="st9" width="65" height="185.6"/>
		</g>
		
			<ellipse transform="matrix(0.6846 -0.7289 0.7289 0.6846 -19.2053 255.6551)" class="st10" cx="285.8" cy="150" rx="9" ry="19.8"/>
		<path class="st11" d="M278.9,72.2c-0.5,0-0.9,0.4-0.9,0.9v15.7c0,0.5,0.4,0.9,0.9,0.9c0.5,0,0.9-0.4,0.9-0.9V73.1
			C279.8,72.6,279.4,72.2,278.9,72.2z"/>
		<path class="st11" d="M274.5,72.2c-0.5,0-0.9,0.4-0.9,0.9v15.7c0,0.5,0.4,0.9,0.9,0.9c0.5,0,0.9-0.4,0.9-0.9V73.1
			C275.4,72.6,275,72.2,274.5,72.2z"/>
		<path class="st11" d="M270.1,72.2c-0.5,0-0.9,0.4-0.9,0.9v15.7c0,0.5,0.4,0.9,0.9,0.9c0.5,0,0.9-0.4,0.9-0.9V73.1
			C271,72.6,270.6,72.2,270.1,72.2z"/>
		<path class="st11" d="M265.8,72.2c-0.5,0-0.9,0.4-0.9,0.9v15.7c0,0.5,0.4,0.9,0.9,0.9c0.5,0,0.9-0.4,0.9-0.9V73.1
			C266.7,72.6,266.3,72.2,265.8,72.2z"/>
		<path class="st11" d="M261.4,72.2c-0.5,0-0.9,0.4-0.9,0.9v15.7c0,0.5,0.4,0.9,0.9,0.9c0.5,0,0.9-0.4,0.9-0.9V73.1
			C262.3,72.6,261.9,72.2,261.4,72.2z"/>
		<path class="st11" d="M257,72.2c-0.5,0-0.9,0.4-0.9,0.9v15.7c0,0.5,0.4,0.9,0.9,0.9c0.5,0,0.9-0.4,0.9-0.9V73.1
			C257.9,72.6,257.5,72.2,257,72.2z"/>
		<path class="st11" d="M252.7,72.2c-0.5,0-0.9,0.4-0.9,0.9v15.7c0,0.5,0.4,0.9,0.9,0.9c0.5,0,0.9-0.4,0.9-0.9V73.1
			C253.6,72.6,253.2,72.2,252.7,72.2z"/>
		<path class="st11" d="M248.3,72.2c-0.5,0-0.9,0.4-0.9,0.9v15.7c0,0.5,0.4,0.9,0.9,0.9c0.5,0,0.9-0.4,0.9-0.9V73.1
			C249.2,72.6,248.8,72.2,248.3,72.2z"/>
		<path class="st11" d="M243.9,72.2c-0.5,0-0.9,0.4-0.9,0.9v15.7c0,0.5,0.4,0.9,0.9,0.9c0.5,0,0.9-0.4,0.9-0.9V73.1
			C244.8,72.6,244.4,72.2,243.9,72.2z"/>
	</g>
	<g>
		<g>
			<path class="st7" d="M162.5,175.5c-6.9,0-12.5,5.1-12.5,16.5c0,11.4,8.4,20.7,12.5,20.7c3.7,0,12.5-9.3,12.5-20.7
				C175,180.6,169.4,175.5,162.5,175.5z"/>
			<path class="st12" d="M162.5,185.3c-5.1,0-9.3,3.7-9.3,12.2c0,8.4,6.2,15.2,9.3,15.2c2.7,0,9.3-6.8,9.3-15.2
				C171.7,189,167.6,185.3,162.5,185.3z"/>
			<path class="st13" d="M162.5,195.5c-3.2,0-5.8,2.3-5.8,7.6c0,5.3,3.9,9.6,5.8,9.6c1.7,0,5.8-4.3,5.8-9.6
				C168.3,197.9,165.7,195.5,162.5,195.5z"/>
		</g>
		<g>
			<path class="st7" d="M146.1,195.5c-10.9-3.5-17.4,0.2-19.6,6.8c-2.1,6.6,0.9,13.5,11.8,17c10.9,3.5,22.2-1.6,23.5-5.5
				C163,210.3,157,199,146.1,195.5z"/>
			<path class="st12" d="M150.2,200.3c-8-2.6-12.8,0.2-14.4,5c-1.6,4.9,0.7,10,8.7,12.6c8,2.6,16.4-1.2,17.4-4.1
				C162.7,211.2,158.3,202.9,150.2,200.3z"/>
			<path class="st13" d="M154.6,205.3c-5-1.6-8.1,0.1-9,3.2c-1,3,0.4,6.2,5.5,7.9c5,1.6,10.3-0.7,10.9-2.6
				C162.4,212.2,159.6,207,154.6,205.3z"/>
		</g>
		<g>
			<path class="st7" d="M162.5,212.9c-3-2.2-15.6,0.1-22.3,9.3c-6.7,9.2-5.2,16.6,0.5,20.7c5.6,4.1,13.1,3.3,19.8-6
				C167.2,227.8,165.9,215.4,162.5,212.9z"/>
			<path class="st12" d="M146.1,219.8c-5,6.8-3.8,12.3,0.3,15.3c4.1,3,9.7,2.4,14.6-4.4c5-6.8,4-16,1.5-17.8
				C160.3,211.3,151,213,146.1,219.8z"/>
			<path class="st13" d="M152.2,217.3c-3.1,4.3-2.4,7.7,0.2,9.6c2.6,1.9,6.1,1.5,9.2-2.8c3.1-4.3,2.5-10,0.9-11.1
				C161.1,211.9,155.3,213,152.2,217.3z"/>
		</g>
		<g>
			<path class="st7" d="M162.5,212.6c-3,2.2-4.7,14.9,2,24.1c6.7,9.2,14.2,10,19.8,6c5.6-4.1,7.2-11.5,0.5-20.7
				C178.1,212.7,165.9,210.1,162.5,212.6z"/>
			<path class="st12" d="M162.5,212.6c-2.2,1.6-3.5,11,1.5,17.8c4.9,6.8,10.5,7.4,14.6,4.4c4.1-3,5.3-8.5,0.3-15.3
				C174,212.7,165,210.8,162.5,212.6z"/>
			<path class="st13" d="M162.5,212.6c-1.4,1-2.2,6.9,0.9,11.1c3.1,4.3,6.6,4.6,9.2,2.8c2.6-1.9,3.3-5.3,0.2-9.6
				C169.7,212.6,164.1,211.4,162.5,212.6z"/>
		</g>
		<g>
			<path class="st7" d="M178.5,194.7c-10.9,3.5-17.1,14.3-15.8,18.3c1.1,3.5,12.7,9.1,23.5,5.5c10.9-3.5,14-10.4,11.8-17
				C195.9,195,189.4,191.2,178.5,194.7z"/>
			<path class="st12" d="M174.4,199.5c-8,2.6-12.6,10.6-11.6,13.5c0.8,2.6,9.4,6.7,17.4,4.1c8-2.6,10.3-7.7,8.7-12.6
				C187.2,199.7,182.4,196.9,174.4,199.5z"/>
			<path class="st13" d="M170,204.6c-5,1.6-7.9,6.6-7.3,8.5c0.5,1.6,5.9,4.2,10.9,2.6c5-1.6,6.5-4.8,5.5-7.9
				C178.1,204.7,175,202.9,170,204.6z"/>
		</g>
	</g>
	<g>
		<g>
			<path class="st7" d="M210.6,189.4c-5,0-9.1,3.7-9.1,11.9c0,8.2,6,14.9,9.1,14.9c2.7,0,9.1-6.7,9.1-14.9
				C219.6,193.1,215.6,189.4,210.6,189.4z"/>
			<path class="st12" d="M210.6,196.5c-3.7,0-6.7,2.7-6.7,8.8c0,6.1,4.5,11,6.7,11c2,0,6.7-4.9,6.7-11
				C217.3,199.2,214.3,196.5,210.6,196.5z"/>
			<path class="st13" d="M210.6,203.9c-2.3,0-4.2,1.7-4.2,5.5s2.8,6.9,4.2,6.9c1.2,0,4.2-3.1,4.2-6.9S212.9,203.9,210.6,203.9z"/>
		</g>
		<g>
			<path class="st7" d="M198.8,203.8c-7.8-2.5-12.6,0.2-14.1,4.9c-1.5,4.8,0.7,9.7,8.5,12.3c7.8,2.5,16.1-1.1,17-4
				C211,214.5,206.6,206.4,198.8,203.8z"/>
			<path class="st12" d="M201.7,207.3c-5.8-1.9-9.3,0.1-10.4,3.6c-1.1,3.5,0.5,7.2,6.3,9.1c5.8,1.9,11.8-0.8,12.5-3
				C210.8,215.2,207.5,209.2,201.7,207.3z"/>
			<path class="st13" d="M204.9,210.9c-3.6-1.2-5.8,0.1-6.5,2.3c-0.7,2.2,0.3,4.5,3.9,5.7c3.6,1.2,7.4-0.5,7.9-1.9
				C210.5,215.9,208.5,212.1,204.9,210.9z"/>
		</g>
		<g>
			<path class="st7" d="M194.5,223.2c-4.8,6.7-3.7,12,0.3,15c4,2.9,9.5,2.4,14.3-4.3c4.8-6.7,3.9-15.6,1.4-17.4
				C208.4,214.9,199.3,216.5,194.5,223.2z"/>
			<path class="st12" d="M198.7,221.4c-3.6,4.9-2.7,8.9,0.2,11c3,2.2,7,1.7,10.6-3.2c3.6-4.9,2.9-11.5,1.1-12.8
				C209,215.3,202.3,216.5,198.7,221.4z"/>
			<path class="st13" d="M203.2,219.6c-2.2,3.1-1.7,5.6,0.2,6.9c1.9,1.4,4.4,1.1,6.6-2c2.2-3.1,1.8-7.2,0.7-8
				C209.6,215.7,205.4,216.5,203.2,219.6z"/>
		</g>
		<g>
			<path class="st7" d="M210.6,216.2c-2.2,1.6-3.4,10.7,1.4,17.4c4.8,6.7,10.3,7.3,14.3,4.3c4-2.9,5.2-8.3,0.3-15
				C221.9,216.3,213.1,214.4,210.6,216.2z"/>
			<path class="st12" d="M210.6,216.2c-1.6,1.2-2.5,7.9,1.1,12.8c3.6,4.9,7.6,5.4,10.6,3.2c3-2.2,3.8-6.1,0.2-11
				C218.9,216.2,212.4,214.9,210.6,216.2z"/>
			<path class="st13" d="M210.6,216.2c-1,0.7-1.6,5,0.7,8c2.2,3.1,4.8,3.4,6.6,2c1.9-1.4,2.4-3.8,0.2-6.9
				C215.8,216.2,211.7,215.4,210.6,216.2z"/>
		</g>
		<g>
			<path class="st7" d="M222.1,203.3c-7.8,2.5-12.3,10.4-11.4,13.2c0.8,2.6,9.2,6.5,17,4c7.8-2.5,10.1-7.5,8.5-12.3
				C234.7,203.5,230,200.7,222.1,203.3z"/>
			<path class="st12" d="M219.2,206.8c-5.8,1.9-9.1,7.6-8.4,9.8c0.6,1.9,6.8,4.8,12.5,2.9c5.8-1.9,7.4-5.6,6.3-9.1
				C228.4,206.9,224.9,204.9,219.2,206.8z"/>
			<path class="st13" d="M216,210.4c-3.6,1.2-5.7,4.8-5.3,6.1c0.4,1.2,4.2,3,7.9,1.9c3.6-1.2,4.7-3.5,3.9-5.7
				C221.8,210.5,219.6,209.2,216,210.4z"/>
		</g>
	</g>
	<g>
		<g>
			<path class="st7" d="M63.2,37c-4.5,0-8.2,3.3-8.2,10.7c0,7.4,5.4,13.5,8.2,13.5c2.4,0,8.2-6,8.2-13.5C71.4,40.3,67.7,37,63.2,37z
				"/>
			<path class="st12" d="M63.2,43.4c-3.3,0-6,2.4-6,7.9c0,5.5,4,9.9,6,9.9c1.8,0,6-4.4,6-9.9C69.2,45.8,66.5,43.4,63.2,43.4z"/>
			<path class="st13" d="M63.2,50c-2.1,0-3.8,1.5-3.8,5c0,3.4,2.5,6.2,3.8,6.2c1.1,0,3.8-2.8,3.8-6.2C67,51.6,65.3,50,63.2,50z"/>
		</g>
		<g>
			<path class="st7" d="M52.5,50c-7.1-2.3-11.3,0.2-12.7,4.4c-1.4,4.3,0.6,8.8,7.7,11.1c7.1,2.3,14.5-1,15.3-3.6
				C63.6,59.6,59.6,52.3,52.5,50z"/>
			<path class="st12" d="M55.2,53.1c-5.2-1.7-8.4,0.1-9.4,3.3c-1,3.2,0.5,6.5,5.7,8.2c5.2,1.7,10.7-0.8,11.3-2.7
				C63.4,60.2,60.4,54.8,55.2,53.1z"/>
			<path class="st13" d="M58.1,56.4c-3.3-1.1-5.2,0.1-5.9,2.1c-0.6,2,0.3,4.1,3.6,5.1c3.3,1.1,6.7-0.5,7.1-1.7
				C63.1,60.9,61.3,57.5,58.1,56.4z"/>
		</g>
		<g>
			<path class="st7" d="M48.7,67.4c-4.4,6-3.4,10.8,0.3,13.5c3.7,2.6,8.6,2.1,12.9-3.9c4.4-6,3.5-14.1,1.3-15.7
				C61.2,59.9,53.1,61.4,48.7,67.4z"/>
			<path class="st12" d="M52.5,65.8c-3.2,4.4-2.5,8,0.2,9.9c2.7,2,6.3,1.6,9.5-2.9c3.2-4.4,2.6-10.4,1-11.6
				C61.8,60.3,55.7,61.4,52.5,65.8z"/>
			<path class="st13" d="M56.5,64.2c-2,2.8-1.6,5,0.1,6.2c1.7,1.2,3.9,1,6-1.8c2-2.8,1.6-6.5,0.6-7.3C62.3,60.7,58.5,61.4,56.5,64.2
				z"/>
		</g>
		<g>
			<path class="st7" d="M63.2,61.1c-2,1.4-3.1,9.7,1.3,15.7c4.4,6,9.3,6.5,12.9,3.9c3.6-2.7,4.7-7.5,0.3-13.5
				C73.4,61.2,65.4,59.5,63.2,61.1z"/>
			<path class="st12" d="M63.2,61.1c-1.4,1-2.3,7.1,1,11.6c3.2,4.4,6.8,4.8,9.5,2.9c2.7-2,3.4-5.5,0.2-9.9
				C70.7,61.2,64.8,59.9,63.2,61.1z"/>
			<path class="st13" d="M63.2,61.1c-0.9,0.7-1.4,4.5,0.6,7.3c2,2.8,4.3,3,6,1.8c1.7-1.2,2.2-3.5,0.1-6.2
				C67.9,61.2,64.2,60.4,63.2,61.1z"/>
		</g>
		<g>
			<path class="st7" d="M73.6,49.5c-7.1,2.3-11.1,9.3-10.3,11.9c0.7,2.3,8.2,5.9,15.3,3.6c7.1-2.3,9.1-6.8,7.7-11.1
				C85,49.7,80.7,47.2,73.6,49.5z"/>
			<path class="st12" d="M70.9,52.6c-5.2,1.7-8.2,6.9-7.6,8.8c0.5,1.7,6.1,4.4,11.3,2.7c5.2-1.7,6.7-5,5.7-8.2
				C79.3,52.7,76.1,50.9,70.9,52.6z"/>
			<path class="st13" d="M68.1,55.9c-3.3,1.1-5.1,4.3-4.7,5.5c0.3,1.1,3.8,2.7,7.1,1.7C73.7,62,74.6,60,74,58
				C73.3,56,71.4,54.8,68.1,55.9z"/>
		</g>
	</g>
</g>
</svg>
