<?xml version="1.0" encoding="utf-8"?>
<!-- Generator: Adobe Illustrator 19.2.1, SVG Export Plug-In . SVG Version: 6.00 Build 0)  -->
<svg version="1.1" id="Calque_1" xmlns="http://www.w3.org/2000/svg" xmlns:xlink="http://www.w3.org/1999/xlink" x="0px" y="0px"
	 viewBox="0 0 288 300" style="enable-background:new 0 0 288 300;" xml:space="preserve">
<style type="text/css">
	.st0{fill:#EFBC64;}
	.st1{fill:#3B4D57;}
	.st2{fill:#FFFFFF;}
	.st3{fill:#A6A155;}
	.st4{fill:#F8BC96;}
	.st5{fill:#FACAAC;}
	.st6{fill:#37100E;}
	.st7{opacity:0.2;clip-path:url(#SVGID_2_);fill:#401011;}
</style>
<g>
	<circle class="st0" cx="144" cy="156" r="144"/>
</g>
<g>
	<g>
		<g>
			<g>
				
					<ellipse transform="matrix(0.858 -0.5137 0.5137 0.858 -25.3385 134.6421)" class="st1" cx="230.8" cy="113.1" rx="2.3" ry="2.3"/>
			</g>
			<g>
				
					<ellipse transform="matrix(0.858 -0.5137 0.5137 0.858 -30.5566 129.6507)" class="st1" cx="219.2" cy="120.1" rx="2.3" ry="2.3"/>
			</g>
			<g>
				
					<ellipse transform="matrix(0.8578 -0.514 0.514 0.8578 -35.7736 124.7795)" class="st1" cx="207.6" cy="127" rx="2.3" ry="2.3"/>
			</g>
			<g>
				<ellipse transform="matrix(0.8578 -0.514 0.514 0.8578 -40.9952 119.8033)" class="st1" cx="196" cy="134" rx="2.3" ry="2.3"/>
			</g>
			<g>
				
					<ellipse transform="matrix(0.858 -0.5137 0.5137 0.858 -46.2053 114.7301)" class="st1" cx="184.4" cy="140.9" rx="2.3" ry="2.3"/>
			</g>
			<g>
				
					<ellipse transform="matrix(0.858 -0.5136 0.5136 0.858 -51.4204 109.7472)" class="st1" cx="172.8" cy="147.9" rx="2.3" ry="2.3"/>
			</g>
			<g>
				
					<ellipse transform="matrix(0.858 -0.5136 0.5136 0.858 -56.636 104.7739)" class="st1" cx="161.2" cy="154.8" rx="2.3" ry="2.3"/>
			</g>
			<g>
				
					<ellipse transform="matrix(0.858 -0.5137 0.5137 0.858 -61.8564 99.8156)" class="st1" cx="149.6" cy="161.8" rx="2.3" ry="2.3"/>
			</g>
			<g>
				<ellipse transform="matrix(0.858 -0.5137 0.5137 0.858 -67.0732 94.8424)" class="st1" cx="138" cy="168.7" rx="2.3" ry="2.3"/>
			</g>
			<g>
				
					<ellipse transform="matrix(0.858 -0.5136 0.5136 0.858 -72.284 89.8549)" class="st1" cx="126.4" cy="175.7" rx="2.3" ry="2.3"/>
			</g>
			<g>
				
					<ellipse transform="matrix(0.858 -0.5136 0.5136 0.858 -77.4996 84.8815)" class="st1" cx="114.8" cy="182.6" rx="2.3" ry="2.3"/>
			</g>
			<g>
				<path class="st1" d="M102,187.6c-1.1,0.6-1.4,2.1-0.7,3.1c0.7,1.1,2.1,1.5,3.1,0.8c1.1-0.6,1.4-2.1,0.7-3.1
					C104.5,187.3,103,186.9,102,187.6z"/>
			</g>
			<g>
				<path class="st1" d="M90.4,194.5c-1.1,0.6-1.4,2.1-0.7,3.1c0.7,1.1,2.1,1.5,3.1,0.8c1.1-0.6,1.4-2.1,0.7-3.1
					C92.8,194.3,91.4,193.9,90.4,194.5z"/>
			</g>
			<g>
				<path class="st1" d="M78.8,201.5c-1.1,0.6-1.4,2.1-0.7,3.1c0.7,1.1,2.1,1.5,3.1,0.8c1.1-0.6,1.4-2.1,0.7-3.1
					C81.2,201.2,79.8,200.8,78.8,201.5z"/>
			</g>
			<g>
				<path class="st1" d="M67.2,208.4c-1.1,0.6-1.4,2.1-0.7,3.2c0.7,1.1,2.1,1.5,3.1,0.8c1.1-0.6,1.4-2.1,0.7-3.1
					C69.6,208.1,68.2,207.8,67.2,208.4z"/>
			</g>
			<g>
				
					<ellipse transform="matrix(0.858 -0.5137 0.5137 0.858 -103.5966 60.0333)" class="st1" cx="56.8" cy="217.4" rx="2.3" ry="2.3"/>
			</g>
		</g>
		<g>
			<g>
				<ellipse class="st1" cx="144.2" cy="64.4" rx="2.3" ry="2.3"/>
			</g>
			<g>
				<ellipse class="st1" cx="144.2" cy="78.1" rx="2.3" ry="2.3"/>
			</g>
			<g>
				<ellipse class="st1" cx="144.2" cy="91.9" rx="2.3" ry="2.3"/>
			</g>
			<g>
				<ellipse class="st1" cx="144.2" cy="105.6" rx="2.3" ry="2.3"/>
			</g>
			<g>
				<ellipse class="st1" cx="144.2" cy="119.3" rx="2.3" ry="2.3"/>
			</g>
			<g>
				<ellipse class="st1" cx="144.2" cy="133.1" rx="2.3" ry="2.3"/>
			</g>
			<g>
				<ellipse class="st1" cx="144.2" cy="146.8" rx="2.3" ry="2.3"/>
			</g>
			<g>
				<ellipse class="st1" cx="144.2" cy="160.5" rx="2.3" ry="2.3"/>
			</g>
			<g>
				<ellipse class="st1" cx="144.2" cy="174.2" rx="2.3" ry="2.3"/>
			</g>
			<g>
				<ellipse class="st1" cx="144.2" cy="188" rx="2.3" ry="2.3"/>
			</g>
			<g>
				<ellipse class="st1" cx="144.2" cy="201.7" rx="2.3" ry="2.3"/>
			</g>
			<g>
				<ellipse class="st1" cx="144.2" cy="215.4" rx="2.3" ry="2.3"/>
			</g>
			<g>
				<ellipse class="st1" cx="144.2" cy="229.2" rx="2.3" ry="2.3"/>
			</g>
			<g>
				<ellipse class="st1" cx="144.2" cy="242.9" rx="2.3" ry="2.3"/>
			</g>
			<g>
				<ellipse class="st1" cx="144.2" cy="256.6" rx="2.3" ry="2.3"/>
			</g>
			<g>
				<ellipse class="st1" cx="144.2" cy="270.3" rx="2.3" ry="2.3"/>
			</g>
		</g>
		<g>
			<g>
				
					<ellipse transform="matrix(0.5121 -0.8589 0.8589 0.5121 -69.4639 103.9886)" class="st1" cx="56.8" cy="113.1" rx="2.3" ry="2.3"/>
			</g>
			<g>
				
					<ellipse transform="matrix(0.5122 -0.8589 0.8589 0.5122 -69.7462 117.3771)" class="st1" cx="68.5" cy="120.1" rx="2.3" ry="2.3"/>
			</g>
			<g>
				
					<ellipse transform="matrix(0.5122 -0.8589 0.8589 0.5122 -70.0286 130.7754)" class="st1" cx="80.1" cy="127" rx="2.3" ry="2.3"/>
			</g>
			<g>
				<ellipse transform="matrix(0.5122 -0.8589 0.8589 0.5122 -70.312 144.172)" class="st1" cx="91.8" cy="134" rx="2.3" ry="2.3"/>
			</g>
			<g>
				
					<ellipse transform="matrix(0.5121 -0.8589 0.8589 0.5121 -70.5942 157.5808)" class="st1" cx="103.4" cy="140.9" rx="2.3" ry="2.3"/>
			</g>
			<g>
				
					<ellipse transform="matrix(0.5122 -0.8589 0.8589 0.5122 -70.8779 170.9667)" class="st1" cx="115.1" cy="147.9" rx="2.3" ry="2.3"/>
			</g>
			<g>
				
					<ellipse transform="matrix(0.5122 -0.8589 0.8589 0.5122 -71.1604 184.365)" class="st1" cx="126.7" cy="154.8" rx="2.3" ry="2.3"/>
			</g>
			<g>
				
					<ellipse transform="matrix(0.5122 -0.8589 0.8589 0.5122 -71.443 197.7611)" class="st1" cx="138.4" cy="161.8" rx="2.3" ry="2.3"/>
			</g>
			<g>
				
					<ellipse transform="matrix(0.5121 -0.8589 0.8589 0.5121 -71.7219 211.1724)" class="st1" cx="150" cy="168.7" rx="2.3" ry="2.3"/>
			</g>
			<g>
				
					<ellipse transform="matrix(0.5122 -0.8589 0.8589 0.5122 -72.0067 224.5545)" class="st1" cx="161.7" cy="175.7" rx="2.3" ry="2.3"/>
			</g>
			<g>
				
					<ellipse transform="matrix(0.5122 -0.8589 0.8589 0.5122 -72.2891 237.9528)" class="st1" cx="173.3" cy="182.6" rx="2.3" ry="2.3"/>
			</g>
			<g>
				
					<ellipse transform="matrix(0.5122 -0.8589 0.8589 0.5122 -72.5725 251.3493)" class="st1" cx="185" cy="189.6" rx="2.3" ry="2.3"/>
			</g>
			<g>
				
					<ellipse transform="matrix(0.5122 -0.8589 0.8589 0.5122 -72.8559 264.746)" class="st1" cx="196.6" cy="196.5" rx="2.3" ry="2.3"/>
			</g>
			<g>
				
					<ellipse transform="matrix(0.5121 -0.8589 0.8589 0.5121 -73.1331 278.164)" class="st1" cx="208.3" cy="203.5" rx="2.3" ry="2.3"/>
			</g>
			<g>
				
					<ellipse transform="matrix(0.5122 -0.8589 0.8589 0.5122 -73.4208 291.5423)" class="st1" cx="219.9" cy="210.4" rx="2.3" ry="2.3"/>
			</g>
			<g>
				
					<ellipse transform="matrix(0.5122 -0.8589 0.8589 0.5122 -73.7042 304.9389)" class="st1" cx="231.6" cy="217.4" rx="2.3" ry="2.3"/>
			</g>
		</g>
		<g>
			<g>
				<ellipse transform="matrix(0.5143 -0.8576 0.8576 0.5143 32.555 157.1211)" class="st1" cx="155" cy="49.8" rx="2.3" ry="2.2"/>
			</g>
			<g>
				
					<ellipse transform="matrix(0.5146 -0.8574 0.8574 0.5146 32.1798 170.3114)" class="st1" cx="166.5" cy="56.7" rx="2.3" ry="2.2"/>
			</g>
			<g>
				<ellipse transform="matrix(0.5137 -0.858 0.858 0.5137 31.9838 183.7163)" class="st1" cx="178" cy="63.6" rx="2.3" ry="2.2"/>
			</g>
			<g>
				
					<ellipse transform="matrix(0.5146 -0.8574 0.8574 0.5146 31.5238 196.8001)" class="st1" cx="189.6" cy="70.6" rx="2.3" ry="2.2"/>
			</g>
			<g>
				
					<ellipse transform="matrix(0.5143 -0.8576 0.8576 0.5143 31.2431 210.105)" class="st1" cx="201.1" cy="77.5" rx="2.3" ry="2.2"/>
			</g>
			<g>
				
					<ellipse transform="matrix(0.5146 -0.8574 0.8574 0.5146 30.8565 223.2758)" class="st1" cx="212.6" cy="84.4" rx="2.3" ry="2.2"/>
			</g>
			<g>
				
					<ellipse transform="matrix(0.514 -0.8578 0.8578 0.514 30.6278 236.6525)" class="st1" cx="224.2" cy="91.3" rx="2.3" ry="2.2"/>
			</g>
			<g>
				
					<ellipse transform="matrix(0.5146 -0.8574 0.8574 0.5146 30.2016 249.7664)" class="st1" cx="235.7" cy="98.2" rx="2.3" ry="2.2"/>
			</g>
			<g>
				<ellipse class="st1" cx="246.4" cy="117.5" rx="2.3" ry="2.3"/>
			</g>
			<g>
				<ellipse class="st1" cx="246.4" cy="131.3" rx="2.3" ry="2.3"/>
			</g>
			<g>
				<ellipse class="st1" cx="246.4" cy="145.2" rx="2.3" ry="2.3"/>
			</g>
			<g>
				<ellipse class="st1" cx="246.4" cy="159" rx="2.3" ry="2.3"/>
			</g>
			<g>
				<ellipse class="st1" cx="246.4" cy="172.9" rx="2.3" ry="2.3"/>
			</g>
			<g>
				<ellipse class="st1" cx="246.4" cy="186.7" rx="2.3" ry="2.3"/>
			</g>
			<g>
				<ellipse class="st1" cx="246.4" cy="200.6" rx="2.3" ry="2.3"/>
			</g>
			<g>
				<ellipse class="st1" cx="246.4" cy="214.4" rx="2.3" ry="2.3"/>
			</g>
			<g>
				
					<ellipse transform="matrix(0.8576 -0.5143 0.5143 0.8576 -86.6234 154.4818)" class="st1" cx="235.7" cy="233.7" rx="2.2" ry="2.3"/>
			</g>
			<g>
				
					<ellipse transform="matrix(0.8578 -0.514 0.514 0.8578 -91.7899 149.4342)" class="st1" cx="224.2" cy="240.6" rx="2.2" ry="2.3"/>
			</g>
			<g>
				
					<ellipse transform="matrix(0.8574 -0.5146 0.5146 0.8574 -97.059 144.7215)" class="st1" cx="212.6" cy="247.5" rx="2.2" ry="2.3"/>
			</g>
			<g>
				
					<ellipse transform="matrix(0.8576 -0.5143 0.5143 0.8576 -102.2118 139.6452)" class="st1" cx="201.1" cy="254.4" rx="2.2" ry="2.3"/>
			</g>
			<g>
				
					<ellipse transform="matrix(0.8574 -0.5146 0.5146 0.8574 -107.4555 134.8128)" class="st1" cx="189.6" cy="261.3" rx="2.2" ry="2.3"/>
			</g>
			<g>
				
					<ellipse transform="matrix(0.8578 -0.514 0.514 0.8578 -112.565 129.6733)" class="st1" cx="178" cy="268.3" rx="2.2" ry="2.3"/>
			</g>
			<g>
				
					<ellipse transform="matrix(0.8576 -0.5143 0.5143 0.8576 -117.7998 124.8097)" class="st1" cx="166.5" cy="275.2" rx="2.2" ry="2.3"/>
			</g>
			<g>
				
					<ellipse transform="matrix(0.8574 -0.5146 0.5146 0.8574 -123.0573 119.969)" class="st1" cx="155" cy="282.1" rx="2.2" ry="2.3"/>
			</g>
			<g>
				
					<ellipse transform="matrix(0.514 -0.8578 0.8578 0.514 -177.1358 251.5076)" class="st1" cx="133.4" cy="282.1" rx="2.3" ry="2.2"/>
			</g>
			<g>
				
					<ellipse transform="matrix(0.5137 -0.858 0.858 0.5137 -176.8216 238.3512)" class="st1" cx="121.9" cy="275.2" rx="2.3" ry="2.2"/>
			</g>
			<g>
				
					<ellipse transform="matrix(0.5146 -0.8574 0.8574 0.5146 -176.4515 224.7988)" class="st1" cx="110.3" cy="268.3" rx="2.3" ry="2.2"/>
			</g>
			<g>
				
					<ellipse transform="matrix(0.5146 -0.8574 0.8574 0.5146 -176.1221 211.5709)" class="st1" cx="98.8" cy="261.3" rx="2.3" ry="2.2"/>
			</g>
			<g>
				
					<ellipse transform="matrix(0.5143 -0.8576 0.8576 0.5143 -175.8132 198.4305)" class="st1" cx="87.3" cy="254.4" rx="2.3" ry="2.2"/>
			</g>
			<g>
				
					<ellipse transform="matrix(0.514 -0.8578 0.8578 0.514 -175.5027 185.257)" class="st1" cx="75.7" cy="247.5" rx="2.3" ry="2.2"/>
			</g>
			<g>
				
					<ellipse transform="matrix(0.5141 -0.8578 0.8578 0.5141 -175.1741 172.0018)" class="st1" cx="64.2" cy="240.6" rx="2.3" ry="2.2"/>
			</g>
			<g>
				
					<ellipse transform="matrix(0.5143 -0.8576 0.8576 0.5143 -174.8281 158.6982)" class="st1" cx="52.7" cy="233.7" rx="2.3" ry="2.2"/>
			</g>
			<g>
				<ellipse class="st1" cx="42" cy="214.4" rx="2.3" ry="2.3"/>
			</g>
			<g>
				<ellipse class="st1" cx="42" cy="200.6" rx="2.3" ry="2.3"/>
			</g>
			<g>
				<ellipse class="st1" cx="42" cy="186.7" rx="2.3" ry="2.3"/>
			</g>
			<g>
				<ellipse class="st1" cx="42" cy="172.9" rx="2.3" ry="2.3"/>
			</g>
			<g>
				<ellipse class="st1" cx="42" cy="159" rx="2.3" ry="2.3"/>
			</g>
			<g>
				<ellipse class="st1" cx="42" cy="145.2" rx="2.3" ry="2.3"/>
			</g>
			<g>
				<ellipse class="st1" cx="42" cy="131.3" rx="2.3" ry="2.3"/>
			</g>
			<g>
				<ellipse class="st1" cx="42" cy="117.5" rx="2.3" ry="2.3"/>
			</g>
			<g>
				
					<ellipse transform="matrix(0.8574 -0.5146 0.5146 0.8574 -43.026 41.1139)" class="st1" cx="52.7" cy="98.2" rx="2.2" ry="2.3"/>
			</g>
			<g>
				<ellipse transform="matrix(0.8577 -0.5141 0.5141 0.8577 -37.7989 46)" class="st1" cx="64.2" cy="91.3" rx="2.2" ry="2.3"/>
			</g>
			<g>
				<ellipse transform="matrix(0.8578 -0.514 0.514 0.8578 -32.6028 50.9358)" class="st1" cx="75.7" cy="84.4" rx="2.2" ry="2.3"/>
			</g>
			<g>
				
					<ellipse transform="matrix(0.8576 -0.5143 0.5143 0.8576 -27.4156 55.9105)" class="st1" cx="87.3" cy="77.5" rx="2.2" ry="2.3"/>
			</g>
			<g>
				<ellipse transform="matrix(0.8574 -0.5146 0.5146 0.8574 -22.223 60.901)" class="st1" cx="98.8" cy="70.6" rx="2.2" ry="2.3"/>
			</g>
			<g>
				
					<ellipse transform="matrix(0.8576 -0.5143 0.5143 0.8576 -17.0232 65.7996)" class="st1" cx="110.3" cy="63.6" rx="2.2" ry="2.3"/>
			</g>
			<g>
				
					<ellipse transform="matrix(0.8577 -0.5141 0.5141 0.8577 -11.8302 70.7152)" class="st1" cx="121.9" cy="56.7" rx="2.2" ry="2.3"/>
			</g>
			<g>
				<ellipse transform="matrix(0.858 -0.5137 0.5137 0.858 -6.6491 75.59)" class="st1" cx="133.4" cy="49.8" rx="2.2" ry="2.3"/>
			</g>
		</g>
		<g>
			<ellipse class="st2" cx="144.2" cy="288.5" rx="6.5" ry="6.8"/>
			<path class="st1" d="M144.2,279.9c-4.6,0-8.4,3.9-8.4,8.7c0,4.8,3.8,8.7,8.4,8.7c4.6,0,8.4-3.9,8.4-8.7
				C152.6,283.8,148.8,279.9,144.2,279.9z M144.2,293.4c-2.5,0-4.6-2.2-4.6-4.9c0-2.7,2.1-4.9,4.6-4.9c2.5,0,4.6,2.2,4.6,4.9
				C148.8,291.2,146.7,293.4,144.2,293.4z"/>
		</g>
		<g>
			<path class="st2" d="M42,220.5c-3.6,0-6.5,3-6.5,6.8c0,3.7,2.9,6.8,6.5,6.8c3.6,0,6.5-3,6.5-6.8C48.5,223.5,45.5,220.5,42,220.5z
				"/>
			<path class="st1" d="M42,218.6c-4.6,0-8.4,3.9-8.4,8.7c0,4.8,3.8,8.7,8.4,8.7c4.6,0,8.4-3.9,8.4-8.7
				C50.4,222.5,46.6,218.6,42,218.6z M42,232.1c-2.5,0-4.6-2.2-4.6-4.9c0-2.7,2.1-4.9,4.6-4.9c2.5,0,4.6,2.2,4.6,4.9
				C46.6,229.9,44.5,232.1,42,232.1z"/>
		</g>
		<g>
			<path class="st2" d="M42,97.9c-3.6,0-6.5,3-6.5,6.8c0,3.7,2.9,6.8,6.5,6.8c3.6,0,6.5-3,6.5-6.8C48.5,100.9,45.5,97.9,42,97.9z"/>
			<path class="st1" d="M42,96c-4.6,0-8.4,3.9-8.4,8.7c0,4.8,3.8,8.7,8.4,8.7c4.6,0,8.4-3.9,8.4-8.7C50.4,99.9,46.6,96,42,96z
				 M42,109.5c-2.5,0-4.6-2.2-4.6-4.9c0-2.7,2.1-4.9,4.6-4.9c2.5,0,4.6,2.2,4.6,4.9C46.6,107.3,44.5,109.5,42,109.5z"/>
		</g>
		<g>
			<ellipse class="st2" cx="246.4" cy="227.3" rx="6.5" ry="6.8"/>
			<path class="st1" d="M246.4,218.6c-4.6,0-8.4,3.9-8.4,8.7s3.8,8.7,8.4,8.7c4.6,0,8.4-3.9,8.4-8.7S251.1,218.6,246.4,218.6z
				 M246.4,232.1c-2.5,0-4.6-2.2-4.6-4.9s2.1-4.9,4.6-4.9c2.5,0,4.6,2.2,4.6,4.9S249,232.1,246.4,232.1z"/>
		</g>
		<g>
			<ellipse class="st2" cx="246.4" cy="104.6" rx="6.5" ry="6.8"/>
			<path class="st1" d="M246.4,96c-4.6,0-8.4,3.9-8.4,8.7c0,4.8,3.8,8.7,8.4,8.7c4.6,0,8.4-3.9,8.4-8.7
				C254.8,99.9,251.1,96,246.4,96z M246.4,109.5c-2.5,0-4.6-2.2-4.6-4.9c0-2.7,2.1-4.9,4.6-4.9c2.5,0,4.6,2.2,4.6,4.9
				C251.1,107.3,249,109.5,246.4,109.5z"/>
		</g>
		<g>
			<ellipse class="st2" cx="144.2" cy="46.2" rx="6.5" ry="6.8"/>
			<path class="st1" d="M144.2,37.5c-4.6,0-8.4,3.9-8.4,8.7c0,4.8,3.8,8.7,8.4,8.7c4.6,0,8.4-3.9,8.4-8.7
				C152.6,41.4,148.8,37.5,144.2,37.5z M144.2,51.1c-2.5,0-4.6-2.2-4.6-4.9c0-2.7,2.1-4.9,4.6-4.9c2.5,0,4.6,2.2,4.6,4.9
				C148.8,48.9,146.7,51.1,144.2,51.1z"/>
		</g>
	</g>
	<g>
		<path class="st3" d="M101.3,233.1c0,0-73.1,13.5-87.1,21.4c-5.3,3-4.3,8.8-3.3,13.1c1,4.3,6.3,7.7,12.6,7.6
			c23.4-0.5,71.2-0.7,96.2-4.8c25-4.1,25.6-20.2,21.8-31.7C137.8,227.2,101.3,233.1,101.3,233.1z"/>
		<path class="st3" d="M273.7,255.2c-14-7.8-87.2-20.9-87.2-20.9s-36.5-5.7-40.2,5.8c-3.7,11.5-3,27.6,21.9,31.6
			c25,4,72.8,3.9,96.2,4.3c6.3,0.1,11.6-3.4,12.5-7.7C278,264.1,279,258.2,273.7,255.2z"/>
		<path class="st3" d="M105.6,97.4c-12.5,0-11.5,25.3-13.3,40.9c-1.8,15.6-14.6,43.7-1.3,46.5c13.3,2.8,18.1-25.2,23.5-51.7
			C120,106.6,121.1,97.4,105.6,97.4z"/>
		<path class="st4" d="M86.8,172.7c-8,6.9-11.1,11.7-21.2,24.5c-10.1,12.8-25,32.3-25,32.3l6.2,5c0,0,17.5-13.2,28.3-22.5
			c11.7-10,20.3-18.9,22.8-26.8C102.2,172.1,86.8,172.7,86.8,172.7z"/>
		<g>
			<path class="st4" d="M43.5,227.7c-4.6,0-8.9,1.5-13.5,7c-4.7,5.5-12.4,18.4-10.1,19.6c2.2,1.2,6.2-6.4,11.2-9.9
				c7.4-5.1,12.5-3,15.4-7.6C49.1,232.8,48.2,227.7,43.5,227.7z"/>
			<path class="st4" d="M38,240.5c-3.5,3.2-5.8,6.4-5,7.2c0.8,0.8,4.2-1.1,7.8-4.3c3.5-3.2,5.8-6.4,5-7.2
				C45,235.4,41.5,237.3,38,240.5z"/>
		</g>
		<path class="st3" d="M181.5,99.2c-15.4,0-14.4,9.2-8.9,35.7c5.4,26.5,10.2,54.5,23.5,51.7c13.3-2.8,0.5-30.9-1.3-46.5
			C193,124.5,194,99.2,181.5,99.2z"/>
		<path class="st4" d="M200.4,174.5c0,0-15.4-0.6-11.2,12.5c2.5,7.9,11.2,16.8,22.8,26.8c10.8,9.3,28.3,22.5,28.3,22.5l6.2-5
			c0,0-14.9-19.5-25-32.3C211.5,186.3,208.4,181.4,200.4,174.5z"/>
		<g>
			<path class="st4" d="M243.6,229.5c-4.6,0-5.5,5-3,9.1c2.9,4.6,8,2.5,15.4,7.6c5.1,3.5,9,11.1,11.2,9.9
				c2.2-1.2-5.5-14.1-10.1-19.6C252.5,231,248.3,229.5,243.6,229.5z"/>
			<path class="st4" d="M249.2,242.3c-3.5-3.2-7-5.1-7.8-4.3c-0.8,0.8,1.5,4,5,7.2c3.5,3.2,7,5.1,7.8,4.3
				C254.9,248.7,252.7,245.4,249.2,242.3z"/>
		</g>
		<path class="st3" d="M155,66.2c0.1-4.9-20.8-5.5-20.9-0.6c-0.3,18.3-7.5,22.6-7.5,22.6s0,19.8,17.6,20.4
			c16.8,0.6,17.6-20.4,17.6-20.4S154.5,85.8,155,66.2z"/>
		<path class="st5" d="M144.2,9.6c-13.6,0-26.4,14.4-24.6,31.9c1.9,18.5,15.3,33.2,24.6,33.2c9,0,22.5-14.9,24.6-33.2
			C170.7,24,157.8,9.6,144.2,9.6z"/>
		<path class="st3" d="M188.5,241.7c-2.3-25.4-18.8-31.3-18.8-48c0-16.6,9.5-63.6,18.7-88.9c2.2-6.2-26.8-16.5-26.8-16.5
			c-2.6,14-17.6,15.4-17.6,15.4s-11.6-1.4-17.6-15.4c0,0-29.4,6.7-26,14.4c9.1,21,17.6,74.4,17.6,91c0,16.7-14.6,23.6-18.5,48
			c-0.3,1.8-0.5,4-0.6,6.4c-1.6,29.3,46.1,19.6,46.1,19.6s48.1,11.8,43.8-22C188.7,244.3,188.6,242.9,188.5,241.7z"/>
		<g>
			<path class="st4" d="M270.9,255.9c0,0-11.3-4.7-50.7-7.9c-43.9-3.5-56.2-2.9-75.3-3.7c-19.1-0.8-32.2-4.7-43.5-5.9
				c-7.2-0.7-14.4,1.2-14.5,7.1c-0.1,4.4,4.1,9,9.5,9.5c5.4,0.5,22-1.5,44.9,1.6c22.9,3.2,49.7,16.2,67,20.1
				c17.3,3.9,39.4,2.7,53.4,0.8C275.7,275.5,284.7,265,270.9,255.9z"/>
			<path class="st4" d="M104.1,238.6c0,0-24-4.1-27.3,4.3c-3.3,8.3,12.3,13,26.9,12.4c0,0-15.7-2.5-14.1-9.6
				C91.1,238.8,104.1,238.6,104.1,238.6z"/>
		</g>
		<g>
			<path class="st4" d="M186.5,238.4c-11.3,1.2-24.4,5.1-43.5,5.9c-19,0.7-31.3,0.1-75.3,3.7c-39.4,3.2-50.7,7.9-50.7,7.9
				c-13.8,9.1-4.8,19.6,9.2,21.6c14,2,36.2,3.1,53.4-0.8c17.3-3.9,44.1-17,67-20.1c22.9-3.1,39.5-1.1,44.9-1.6
				c5.4-0.5,9.6-5.1,9.5-9.5C200.9,239.6,193.7,237.7,186.5,238.4z"/>
			<path class="st4" d="M183.8,238.6c0,0,13,0.1,14.5,7c1.6,7.1-14.1,9.6-14.1,9.6c14.5,0.6,30.1-4,26.9-12.4
				C207.8,234.6,183.8,238.6,183.8,238.6z"/>
		</g>
		<path class="st6" d="M144.2,9.6c-13.6,0-26.4,14.4-24.6,31.9c0.1,0.9,0.3,1.7,0.4,2.5c2.8-12.7,13-22,23.9-22
			c11.2,0,21.7,9.8,24.1,23c0.2-1.2,0.5-2.3,0.7-3.5C170.7,24,157.8,9.6,144.2,9.6z"/>
		<g>
			<defs>
				<path id="SVGID_1_" d="M277.7,264.4c0.3-3.4-0.2-7-4-9.2c-1.6-0.9-3.9-1.8-6.7-2.8c-1.8-4.5-6.6-12.1-9.9-16
					c-4.1-4.8-7.9-6.6-11.9-6.9c-3.8-5-15.4-20.1-23.7-30.6c-9.3-11.8-12.7-16.9-19.5-23c-0.2-10.3-6-25.7-7.2-35.9
					c-1.4-12.2-1.1-30.2-6.9-37.6c-3.6-5.9-24.5-13.5-26.1-14.1c0,0,0-0.1,0-0.1s-6.5-2.2-6.8-19c6.5-5.9,12.5-16.2,13.8-27.8
					c1.5-13.4-5.7-25-15.3-29.7c0.2-0.7,0.3-1.5,0.3-2.3c0-5.3-4.3-9.6-9.6-9.6c-5.3,0-9.6,4.3-9.6,9.6c0,0.8,0.1,1.5,0.3,2.3
					c-9.5,4.7-16.7,16.2-15.3,29.7c1.2,12.2,7.5,22.6,14.2,28.4c-1.2,14.7-7.3,18.4-7.3,18.4s0,0.2,0,0.4c-0.1-0.1-0.1-0.3-0.2-0.4
					c0,0-19.7,4.5-25,10.4c-8,5.3-7.5,26.1-9,39.7c-1.2,10.2-7,25.6-7.2,35.9c-6.8,6.2-10.2,11.2-19.5,23
					c-8.3,10.5-19.8,25.6-23.7,30.6c-4,0.3-7.8,2.1-11.9,6.9c-3.7,4.3-9.3,13.3-10.3,17.4c-2.3,0.8-4.1,1.6-5.4,2.4
					c-4,2.3-4.4,6.1-3.9,9.6c-1.3,6.4,6.1,12,15.9,13.4c14,2,36.2,3.1,53.4-0.8c3.6-0.8,7.7-2.1,12-3.5c10.6-0.6,20.4-1.5,28.1-2.8
					c2-0.3,3.8-0.8,5.5-1.2c3.9,0.2,7.6,0,10.8-0.3c1.7,2.8,4.7,4.6,8.1,4.6c3.4,0,6.4-1.8,8.1-4.5c2.3,0.3,4.9,0.6,7.7,0.7
					c2.4,0.8,5.2,1.5,8.3,2c8.6,1.4,20,2.3,32.2,2.9c2.8,0.9,5.4,1.6,7.9,2.2c17.3,3.9,39.4,2.7,53.4,0.8c3-0.4,5.7-1.2,8-2.3
					c3.2-1.1,5.7-3.1,6.8-5.5C277.5,268.1,278,266.3,277.7,264.4z M256,246.2c1.6,1.1,3.2,2.7,4.5,4.3c-2-0.6-4.1-1.2-6.3-1.7
					c-0.2-1.2-1.8-3.2-4-5.4C252,243.9,253.9,244.7,256,246.2z M212,213.8c9.3,8,23.6,18.9,27.4,21.8c0.2,1,0.6,2,1.2,3
					c0.4,0.6,0.9,1.1,1.3,1.5c0.9,1.4,2.4,3.2,4.4,5c0.9,0.8,1.9,1.6,2.7,2.2c-24-6-56.1-11.9-61.8-12.9
					c-4.4-19.5-17.7-25.8-17.7-40.8c0-8.6,2.5-25.1,6.2-42.7c3.2,14.9,6.9,28.1,12.7,33.3c0.1,0.8,0.3,1.7,0.6,2.7
					C191.7,195,200.4,203.8,212,213.8z M75.1,212.1c11.7-10,20.3-18.9,22.8-26.8c0.3-1,0.5-1.9,0.6-2.7c6.2-5.5,9.9-20.1,13.3-36.3
					c3.6,19.3,6.1,38.6,6.1,47.4c0,14.5-11.1,21.7-16.5,39.4c0,0-0.1,0-0.1,0s-40.7,7.5-67.1,14.6c1.5-0.4,4-2,6.6-4.4
					c2-1.8,3.6-3.6,4.4-5c0.5-0.4,0.9-0.9,1.3-1.5c0.6-1,1-2,1.2-3C51.5,231,65.8,220,75.1,212.1z M31.2,244.4
					c2.1-1.5,4-2.3,5.8-2.9c-2.9,2.8-4.6,5.5-3.9,6.2c0.2,0.2,0.5,0.2,1,0.1c-3.2,0.9-6.1,1.7-8.8,2.5
					C26.9,248.3,28.9,246,31.2,244.4z"/>
			</defs>
			<clipPath id="SVGID_2_">
				<use xlink:href="#SVGID_1_"  style="overflow:visible;"/>
			</clipPath>
			<rect x="2.4" y="-10.1" class="st7" width="141.8" height="300.6"/>
		</g>
	</g>
</g>
</svg>
