<?xml version="1.0" encoding="utf-8"?>
<!-- Generator: Adobe Illustrator 19.2.1, SVG Export Plug-In . SVG Version: 6.00 Build 0)  -->
<svg version="1.1" id="Calque_1" xmlns="http://www.w3.org/2000/svg" xmlns:xlink="http://www.w3.org/1999/xlink" x="0px" y="0px"
	 viewBox="0 0 300 264" style="enable-background:new 0 0 300 264;" xml:space="preserve">
<style type="text/css">
	.st0{fill:#3B4D57;}
	.st1{fill:#F9DBB5;}
	.st2{fill:#EFA774;}
	.st3{fill:#F9C99C;}
	.st4{opacity:0.2;clip-path:url(#SVGID_2_);fill:#3B1011;}
	.st5{fill:#F7F2EE;}
	.st6{fill:#896466;}
	.st7{opacity:0.3;fill:#353340;}
	.st8{fill:#FFFFFF;}
	.st9{fill:#353340;}
	.st10{fill:#D79C21;}
	.st11{opacity:0.2;clip-path:url(#SVGID_4_);fill:#3B1011;}
	.st12{opacity:0.5;fill:#FFFFFF;}
	.st13{fill:#736E69;}
	.st14{fill:#FFF1BE;}
	.st15{fill:#FEF074;}
</style>
<circle class="st0" cx="157.6" cy="132" r="132"/>
<g>
	<g>
		<path class="st1" d="M111.2,125H63.6c-25.9,0-45.8,2.2-44,29c0.9,13,11.7,22.5,11.7,22.5H19.6c0,7.8,0,21.6,0,21.6s27.7,0,44,0
			h47.9c25.9,0,44.8,0,47-37.6C158.5,134.6,137.2,125,111.2,125z"/>
		<path class="st2" d="M130.1,120.3c-6.9-1.3-86.5,0.2-91.3,1.1c-15.3,2.9-24.4,14-24.4,29.7c0,8.7,2.6,15.4,6.2,20.2h-0.9
			c-2.9,0-5.2,2.3-5.2,5.2v21.6c0,1.4,0.6,2.7,1.5,3.7c1,1,2.3,1.5,3.7,1.5c0,0,0,0,0,0c1.1,0,106.5-0.9,111.2-0.8
			c7.6,0,15.3-3.1,20.9-8.7c5.4-5.4,11.9-15.7,11.9-34.8C163.7,138.7,151.1,124.2,130.1,120.3z M144.5,186.5
			c-3.7,3.6-8.6,5.8-13.5,5.6c-4.3,0-84.4,0.6-106.2,0.7v-11.1h6.5c0.8,0,1.5-0.2,2.2-0.5c0.3,0.1,0.5,0.2,0.8,0.3
			c9.9,3.1,75.4,2.8,78.5,2.3c0.2,0,0.5-0.1,0.8-0.1c17.3-2.1,21.3-14.1,21.6-23.9c0.2-6.1-1.9-11.5-6-15.6
			c-5.2-5.3-13.7-8.4-22.6-8.2c-2.5,0-9.7,0-18.1,0c-19.1-0.1-34.1-0.2-37.4,0.1c-3.4,0.3-6.6,2.3-8.9,5.6c-2.7,3.9-3.8,8.9-2.8,13
			c2.4,9.6,8.7,11.9,13.6,12.1c7.5,0.4,52.3,0.4,54.2,0.4c2.9,0,5.2-2.3,5.2-5.2c0-2.9-2.3-5.2-5.2-5.2c-0.5,0-46.4,0-53.7-0.4
			c-2.3-0.1-3.2-1.1-4-4.3c-0.2-0.8,0.1-2.8,1.2-4.3c0.6-0.8,1.1-1.2,1.3-1.2c3.1-0.3,23.1-0.2,36.3-0.1c8.5,0.1,15.8,0.1,18.4,0
			c6-0.1,11.8,1.8,15,5.1c2.1,2.1,3.1,4.8,3,8c-0.3,11.5-6.6,13.1-12.4,13.8c-0.5,0.1-0.9,0.1-1.1,0.1c-5,0.5-66.7,0.3-73.8-1.9
			c-4.4-1.4-12.6-7.4-12.6-20.4c0-13.5,8.6-18,15.9-19.4c6.1-1,82.1-1.9,87.5-1.1c9.4,1.7,25.1,7.7,25.1,28.5
			C153.3,171.3,150.2,180.8,144.5,186.5z"/>
		<path class="st3" d="M109.7,65.2H72.6c-20.3,0-35.8,1.7-34.4,22.6c0.7,10.1,9.1,17.6,9.1,17.6h-9.1c0,6.1,0,16.9,0,16.9
			s21.7,0,34.3,0h37.4c20.3,0,35,0,36.7-29.4C146.6,72.7,130,65.2,109.7,65.2z"/>
		<path class="st2" d="M124.7,60.4c-5.8-1.1-67.7,0.1-71.7,0.9c-12.5,2.4-20,11.5-20,24.3c0,6.2,1.6,11,3.9,14.8
			c-2.3,0.6-3.9,2.6-3.9,5.1v16.9c0,1.4,0.6,2.7,1.5,3.7c1,1,2.3,1.5,3.7,1.5c0,0,0,0,0,0c0.8,0,83.2-0.6,86.8-0.6
			c6.4,0.1,12.5-2.5,17.2-7.1c4.4-4.3,9.6-12.7,9.6-28C151.9,75.3,141.7,63.5,124.7,60.4z M134.9,112.4c-3.8,3.7-8.1,4.1-9.7,4.1
			c-3.3-0.1-63.3,0.4-81.8,0.6v-6.4h3.9c0.6,0,1.2-0.1,1.8-0.3c0.1,0,0.1,0,0.2,0.1c7.8,2.5,59.4,2.3,61.9,1.8l0.6-0.1
			c14.4-1.7,17.7-11.7,17.9-19.8c0.2-5.1-1.6-9.6-5-13.1c-4.3-4.4-11.1-6.9-18.5-6.7c-2,0-7.6,0-14.2,0c-15.5-0.1-26.6-0.1-29.3,0.1
			c-3,0.3-5.8,2-7.7,4.8c-2.3,3.3-3.2,7.6-2.4,11.1c2.1,8.1,7.5,10.1,11.7,10.3c5.9,0.3,40.9,0.3,42.4,0.3c2.9,0,5.2-2.3,5.2-5.2
			c0-2.9-2.3-5.2-5.2-5.2c-0.4,0-36.2,0-41.8-0.3c-1.1-0.1-1.5-0.2-2.1-2.5c-0.1-0.8,0.6-2.6,1-2.9C66,82.9,81.6,83,91.9,83
			c6.7,0,12.4,0.1,14.4,0c4.3-0.1,8.6,1.3,10.9,3.6c1.4,1.4,2.1,3.2,2,5.4c-0.2,8-4.3,9.2-8.7,9.7c-0.4,0-0.8,0.1-0.9,0.1
			c-5.4,0.5-52,0.1-57.2-1.5c-3.1-1-9-5.3-9-14.9c0-7.9,3.9-12.6,11.4-14c5-0.7,63.5-1.5,67.9-0.9c8.5,1.6,18.7,6.5,18.7,21.1
			C141.4,101,139.2,108.2,134.9,112.4z"/>
		<g>
			<defs>
				<path id="SVGID_1_" d="M138.7,122.7c1.2-0.9,2.4-1.8,3.5-2.9c4.4-4.3,9.6-12.7,9.6-28c0-16.5-10.2-28.3-27.2-31.4
					c-5.8-1.1-67.7,0.1-71.7,0.9c-12.5,2.4-20,11.5-20,24.3c0,6.2,1.6,11,3.9,14.8c-2.3,0.6-3.9,2.6-3.9,5.1v16.9
					c0,0.3,0,0.5,0.1,0.8c-11.8,4.3-18.7,14.5-18.7,28.1c0,8.7,2.6,15.4,6.2,20.2h-0.9c-2.9,0-5.2,2.3-5.2,5.2v21.6
					c0,1.4,0.6,2.7,1.5,3.7c1,1,2.3,1.5,3.7,1.5c0,0,0,0,0,0c1.1,0,106.5-0.9,111.2-0.8c7.6,0,15.3-3.1,20.9-8.7
					c5.4-5.4,11.9-15.7,11.9-34.8C163.7,141.7,154.5,128.6,138.7,122.7z"/>
			</defs>
			<clipPath id="SVGID_2_">
				<use xlink:href="#SVGID_1_"  style="overflow:visible;"/>
			</clipPath>
			<rect x="10" y="55.8" class="st4" width="79" height="152.3"/>
		</g>
	</g>
	<path class="st5" d="M254.7,205.3H208c-2.3,0-4.2,1.9-4.2,4.2c0,2.3,1.9,4.2,4.2,4.2h46.7c2.3,0,4.2-1.9,4.2-4.2
		C258.9,207.2,257,205.3,254.7,205.3z"/>
	<g>
		<path class="st6" d="M18.2,224.5h261.5c7.3-2.8,20.3-30.7,20.3-30.7H0C0,193.7,8.1,220.6,18.2,224.5z"/>
		<path class="st7" d="M274.8,215.9H22.3c-1.5,0-2.8,1.2-2.8,2.8c0,1.5,1.2,2.8,2.8,2.8h252.5c1.5,0,2.8-1.2,2.8-2.8
			C277.6,217.2,276.3,215.9,274.8,215.9z"/>
	</g>
	<g>
		<path class="st8" d="M255.1,109c-3.3-1.7-5.8-3.4-8.1-6.4c-1.7-2.2-2.4-8.7-2.4-8.7V82.6h-28.9v10.9c0,0-1.5,7.5-3.2,9.7
			c-2.9,3.8-5.7,4.8-9.7,7.1c-16.1,9.4-27,26.9-27,46.9c0,30,24.3,54.4,54.4,54.4s54.4-24.3,54.4-54.4
			C284.6,136.2,272.6,118,255.1,109z"/>
		<rect x="213.3" y="81.1" class="st8" width="33.7" height="3"/>
		<rect x="211.3" y="61.7" class="st9" width="37.8" height="19.4"/>
		<path class="st10" d="M244.2,115.1h-28.6c-18.3,5.8-31.6,22.9-31.6,43.1c0,24.9,20.2,45.1,45.1,45.1c24.9,0,45.1-20.2,45.1-45.1
			C274.3,138.6,261.7,121.3,244.2,115.1z"/>
		<g>
			<defs>
				<path id="SVGID_3_" d="M255.1,109c-3.3-1.7-5.8-3.4-8.1-6.4c-1.7-2.2-2.4-8.7-2.4-8.7v-9.8h2.4v-3h2V61.7h-37.8v19.4h2v3h2.4
					v9.4c0,0-1.5,7.5-3.2,9.7c-2.9,3.8-5.7,4.8-9.7,7.1c-16.1,9.4-27,26.9-27,46.9c0,30,24.3,54.4,54.4,54.4s54.4-24.3,54.4-54.4
					C284.6,136.2,272.6,118,255.1,109z"/>
			</defs>
			<clipPath id="SVGID_4_">
				<use xlink:href="#SVGID_3_"  style="overflow:visible;"/>
			</clipPath>
			<rect x="172.8" y="55.5" class="st11" width="57.2" height="163.3"/>
		</g>
		
			<ellipse transform="matrix(0.6846 -0.7289 0.7289 0.6846 -16.9024 224.9987)" class="st12" cx="251.6" cy="132" rx="7.9" ry="17.4"/>
		<path class="st13" d="M245.4,63.6c-0.4,0-0.8,0.4-0.8,0.8v13.8c0,0.4,0.4,0.8,0.8,0.8c0.4,0,0.8-0.4,0.8-0.8V64.4
			C246.2,63.9,245.9,63.6,245.4,63.6z"/>
		<path class="st13" d="M241.6,63.6c-0.4,0-0.8,0.4-0.8,0.8v13.8c0,0.4,0.4,0.8,0.8,0.8c0.4,0,0.8-0.4,0.8-0.8V64.4
			C242.4,63.9,242,63.6,241.6,63.6z"/>
		<path class="st13" d="M237.7,63.6c-0.4,0-0.8,0.4-0.8,0.8v13.8c0,0.4,0.4,0.8,0.8,0.8c0.4,0,0.8-0.4,0.8-0.8V64.4
			C238.5,63.9,238.2,63.6,237.7,63.6z"/>
		<path class="st13" d="M233.9,63.6c-0.4,0-0.8,0.4-0.8,0.8v13.8c0,0.4,0.4,0.8,0.8,0.8c0.4,0,0.8-0.4,0.8-0.8V64.4
			C234.7,63.9,234.3,63.6,233.9,63.6z"/>
		<path class="st13" d="M230.1,63.6c-0.4,0-0.8,0.4-0.8,0.8v13.8c0,0.4,0.4,0.8,0.8,0.8c0.4,0,0.8-0.4,0.8-0.8V64.4
			C230.9,63.9,230.5,63.6,230.1,63.6z"/>
		<path class="st13" d="M226.2,63.6c-0.4,0-0.8,0.4-0.8,0.8v13.8c0,0.4,0.4,0.8,0.8,0.8c0.4,0,0.8-0.4,0.8-0.8V64.4
			C227,63.9,226.7,63.6,226.2,63.6z"/>
		<path class="st13" d="M222.4,63.6c-0.4,0-0.8,0.4-0.8,0.8v13.8c0,0.4,0.4,0.8,0.8,0.8c0.4,0,0.8-0.4,0.8-0.8V64.4
			C223.2,63.9,222.8,63.6,222.4,63.6z"/>
		<path class="st13" d="M218.5,63.6c-0.4,0-0.8,0.4-0.8,0.8v13.8c0,0.4,0.4,0.8,0.8,0.8c0.4,0,0.8-0.4,0.8-0.8V64.4
			C219.3,63.9,219,63.6,218.5,63.6z"/>
		<path class="st13" d="M214.7,63.6c-0.4,0-0.8,0.4-0.8,0.8v13.8c0,0.4,0.4,0.8,0.8,0.8c0.4,0,0.8-0.4,0.8-0.8V64.4
			C215.5,63.9,215.1,63.6,214.7,63.6z"/>
	</g>
	<g>
		<g>
			<path class="st8" d="M143,154.5c-6.1,0-11,4.5-11,14.5c0,10,7.4,18.2,11,18.2c3.3,0,11-8.1,11-18.2
				C154,159,149.1,154.5,143,154.5z"/>
			<path class="st14" d="M143,163.1c-4.5,0-8.1,3.3-8.1,10.7c0,7.4,5.4,13.4,8.1,13.4c2.4,0,8.1-6,8.1-13.4
				C151.1,166.4,147.5,163.1,143,163.1z"/>
			<path class="st15" d="M143,172.1c-2.8,0-5.1,2.1-5.1,6.7c0,4.6,3.4,8.4,5.1,8.4c1.5,0,5.1-3.8,5.1-8.4
				C148.1,174.1,145.8,172.1,143,172.1z"/>
		</g>
		<g>
			<path class="st8" d="M128.6,172c-9.6-3.1-15.3,0.2-17.2,6c-1.9,5.8,0.8,11.9,10.4,15c9.6,3.1,19.6-1.4,20.7-4.9
				C143.5,185.1,138.1,175.1,128.6,172z"/>
			<path class="st14" d="M132.2,176.3c-7-2.3-11.3,0.2-12.7,4.4c-1.4,4.3,0.6,8.8,7.7,11.1c7,2.3,14.4-1,15.3-3.6
				C143.2,185.9,139.3,178.6,132.2,176.3z"/>
			<path class="st15" d="M136.1,180.7c-4.4-1.4-7.1,0.1-8,2.8c-0.9,2.7,0.4,5.5,4.8,6.9c4.4,1.4,9.1-0.6,9.6-2.3
				C142.9,186.7,140.5,182.1,136.1,180.7z"/>
		</g>
		<g>
			<path class="st8" d="M143,187.4c-2.6-1.9-13.7,0.1-19.6,8.2c-5.9,8.1-4.5,14.6,0.4,18.2c4.9,3.6,11.6,2.9,17.5-5.3
				C147.2,200.5,146,189.6,143,187.4z"/>
			<path class="st14" d="M128.6,193.5c-4.4,6-3.3,10.8,0.3,13.4c3.6,2.6,8.5,2.1,12.9-3.9c4.4-6,3.5-14,1.3-15.6
				C141.1,186,132.9,187.5,128.6,193.5z"/>
			<path class="st15" d="M133.9,191.2c-2.7,3.8-2.1,6.8,0.2,8.4c2.3,1.7,5.3,1.3,8.1-2.4c2.7-3.8,2.2-8.8,0.8-9.8
				C141.8,186.5,136.7,187.4,133.9,191.2z"/>
		</g>
		<g>
			<path class="st8" d="M143,187.1c-2.6,1.9-4.1,13.1,1.8,21.2c5.9,8.1,12.5,8.8,17.5,5.3c4.9-3.6,6.3-10.1,0.4-18.2
				C156.8,187.2,146,184.9,143,187.1z"/>
			<path class="st14" d="M143,187.1c-2,1.4-3.1,9.6,1.3,15.6c4.3,6,9.2,6.5,12.9,3.9c3.6-2.6,4.7-7.5,0.3-13.4
				C153.2,187.2,145.2,185.5,143,187.1z"/>
			<path class="st15" d="M143,187.1c-1.2,0.9-1.9,6,0.8,9.8c2.7,3.8,5.8,4.1,8.1,2.4c2.3-1.7,2.9-4.7,0.2-8.4
				C149.4,187.1,144.4,186.1,143,187.1z"/>
		</g>
		<g>
			<path class="st8" d="M157.1,171.4c-9.6,3.1-15,12.6-13.9,16.1c1,3.1,11.2,8,20.7,4.9c9.6-3.1,12.3-9.2,10.4-15
				C172.4,171.6,166.7,168.3,157.1,171.4z"/>
			<path class="st14" d="M153.4,175.6c-7,2.3-11.1,9.3-10.2,11.9c0.7,2.3,8.2,5.9,15.3,3.6c7-2.3,9.1-6.8,7.7-11
				C164.8,175.8,160.5,173.3,153.4,175.6z"/>
			<path class="st15" d="M149.6,180c-4.4,1.4-6.9,5.8-6.4,7.5c0.5,1.4,5.2,3.7,9.6,2.3c4.4-1.4,5.7-4.2,4.8-6.9
				C156.7,180.1,154,178.6,149.6,180z"/>
		</g>
	</g>
	<g>
		<g>
			<path class="st8" d="M185.3,166.7c-4.4,0-8,3.2-8,10.5c0,7.3,5.3,13.1,8,13.1c2.4,0,8-5.9,8-13.1
				C193.3,170,189.7,166.7,185.3,166.7z"/>
			<path class="st14" d="M185.3,172.9c-3.2,0-5.9,2.4-5.9,7.7c0,5.4,3.9,9.7,5.9,9.7c1.7,0,5.9-4.3,5.9-9.7
				C191.2,175.3,188.6,172.9,185.3,172.9z"/>
			<path class="st15" d="M185.3,179.4c-2,0-3.7,1.5-3.7,4.8s2.5,6.1,3.7,6.1c1.1,0,3.7-2.7,3.7-6.1S187.4,179.4,185.3,179.4z"/>
		</g>
		<g>
			<path class="st8" d="M174.9,179.4c-6.9-2.2-11.1,0.2-12.4,4.3c-1.4,4.2,0.6,8.6,7.5,10.8c6.9,2.2,14.1-1,15-3.5
				C185.7,188.8,181.8,181.6,174.9,179.4z"/>
			<path class="st14" d="M177.6,182.5c-5.1-1.7-8.2,0.1-9.2,3.2c-1,3.1,0.4,6.3,5.5,8c5.1,1.7,10.4-0.7,11-2.6
				C185.5,189.4,182.6,184.1,177.6,182.5z"/>
			<path class="st15" d="M180.3,185.7c-3.2-1-5.1,0.1-5.8,2c-0.6,1.9,0.3,4,3.5,5c3.2,1,6.5-0.5,6.9-1.6
				C185.3,190,183.5,186.7,180.3,185.7z"/>
		</g>
		<g>
			<path class="st8" d="M171.2,196.4c-4.3,5.9-3.3,10.6,0.3,13.2c3.6,2.6,8.3,2.1,12.6-3.8c4.3-5.9,3.4-13.7,1.3-15.3
				C183.4,189.1,175.4,190.6,171.2,196.4z"/>
			<path class="st14" d="M174.9,194.9c-3.1,4.3-2.4,7.8,0.2,9.7c2.6,1.9,6.2,1.5,9.3-2.8c3.1-4.3,2.5-10.1,0.9-11.3
				C183.9,189.5,178,190.5,174.9,194.9z"/>
			<path class="st15" d="M178.8,193.2c-2,2.7-1.5,4.9,0.1,6.1c1.6,1.2,3.9,1,5.8-1.8c2-2.7,1.6-6.4,0.6-7.1
				C184.5,189.8,180.8,190.5,178.8,193.2z"/>
		</g>
		<g>
			<path class="st8" d="M185.4,190.3c-1.9,1.4-3,9.4,1.3,15.3c4.3,5.9,9,6.4,12.6,3.8c3.6-2.6,4.6-7.3,0.3-13.2
				C195.3,190.3,187.5,188.7,185.4,190.3z"/>
			<path class="st14" d="M185.4,190.3c-1.4,1-2.2,7,0.9,11.3c3.1,4.3,6.7,4.7,9.3,2.8c2.6-1.9,3.4-5.4,0.2-9.7
				C192.7,190.3,186.9,189.1,185.4,190.3z"/>
			<path class="st15" d="M185.4,190.3c-0.9,0.6-1.4,4.4,0.6,7.1c2,2.7,4.2,3,5.8,1.8c1.6-1.2,2.1-3.4,0.1-6.1
				C189.9,190.3,186.3,189.5,185.4,190.3z"/>
		</g>
		<g>
			<path class="st8" d="M195.5,178.9c-6.9,2.2-10.8,9.1-10,11.6c0.7,2.2,8.1,5.8,15,3.5c6.9-2.2,8.9-6.6,7.5-10.8
				C206.6,179.1,202.4,176.7,195.5,178.9z"/>
			<path class="st14" d="M192.9,182c-5.1,1.7-8,6.7-7.4,8.6c0.5,1.7,5.9,4.3,11,2.6c5.1-1.6,6.5-4.9,5.5-8
				C201,182.1,198,180.3,192.9,182z"/>
			<path class="st15" d="M190.1,185.2c-3.2,1-5,4.2-4.6,5.4c0.3,1,3.7,2.7,6.9,1.6c3.2-1,4.1-3.1,3.5-5
				C195.2,185.2,193.3,184.1,190.1,185.2z"/>
		</g>
	</g>
	<g>
		<g>
			<path class="st8" d="M55.6,32.6c-4,0-7.2,2.9-7.2,9.5c0,6.5,4.8,11.8,7.2,11.8c2.1,0,7.2-5.3,7.2-11.8
				C62.8,35.5,59.6,32.6,55.6,32.6z"/>
			<path class="st14" d="M55.6,38.2c-2.9,0-5.3,2.1-5.3,7c0,4.8,3.5,8.7,5.3,8.7c1.6,0,5.3-3.9,5.3-8.7
				C60.9,40.3,58.5,38.2,55.6,38.2z"/>
			<path class="st15" d="M55.6,44c-1.8,0-3.3,1.3-3.3,4.4c0,3,2.2,5.5,3.3,5.5c1,0,3.3-2.5,3.3-5.5C58.9,45.4,57.5,44,55.6,44z"/>
		</g>
		<g>
			<path class="st8" d="M46.2,44c-6.2-2-10,0.1-11.2,3.9c-1.2,3.8,0.5,7.7,6.8,9.8c6.2,2,12.7-0.9,13.5-3.2
				C55.9,52.5,52.4,46,46.2,44z"/>
			<path class="st14" d="M48.6,46.8c-4.6-1.5-7.4,0.1-8.3,2.9c-0.9,2.8,0.4,5.7,5,7.2c4.6,1.5,9.4-0.7,9.9-2.3
				C55.8,53,53.2,48.2,48.6,46.8z"/>
			<path class="st15" d="M51.1,49.6c-2.9-0.9-4.6,0.1-5.2,1.8C45.3,53.2,46.2,55,49,56c2.9,0.9,5.9-0.4,6.2-1.5
				C55.6,53.6,54,50.6,51.1,49.6z"/>
		</g>
		<g>
			<path class="st8" d="M42.9,59.4c-3.8,5.3-3,9.5,0.3,11.9c3.2,2.3,7.5,1.9,11.4-3.4c3.8-5.3,3.1-12.4,1.1-13.8
				C53.9,52.7,46.7,54.1,42.9,59.4z"/>
			<path class="st14" d="M46.2,58c-2.8,3.9-2.2,7,0.2,8.8c2.4,1.7,5.5,1.4,8.4-2.5c2.8-3.9,2.3-9.1,0.8-10.2
				C54.4,53.1,49,54,46.2,58z"/>
			<path class="st15" d="M49.7,56.5c-1.8,2.5-1.4,4.4,0.1,5.5c1.5,1.1,3.5,0.9,5.3-1.6c1.8-2.4,1.4-5.7,0.5-6.4
				C54.8,53.4,51.5,54,49.7,56.5z"/>
		</g>
		<g>
			<path class="st8" d="M55.6,53.8c-1.7,1.2-2.7,8.5,1.1,13.8c3.8,5.3,8.2,5.8,11.4,3.4c3.2-2.3,4.1-6.6,0.3-11.9
				C64.6,53.9,57.6,52.4,55.6,53.8z"/>
			<path class="st14" d="M55.6,53.8c-1.3,0.9-2,6.3,0.9,10.2c2.8,3.9,6,4.2,8.4,2.5c2.4-1.7,3-4.9,0.2-8.8
				C62.2,53.8,57.1,52.8,55.6,53.8z"/>
			<path class="st15" d="M55.6,53.8c-0.8,0.6-1.3,3.9,0.5,6.4c1.8,2.4,3.8,2.7,5.3,1.6c1.5-1.1,1.9-3,0.1-5.5
				C59.8,53.8,56.5,53.1,55.6,53.8z"/>
		</g>
		<g>
			<path class="st8" d="M64.8,43.6c-6.2,2-9.8,8.2-9,10.5c0.7,2,7.3,5.2,13.5,3.2c6.2-2,8-6,6.8-9.8C74.8,43.7,71,41.5,64.8,43.6z"
				/>
			<path class="st14" d="M62.4,46.3c-4.6,1.5-7.2,6.1-6.7,7.7c0.5,1.5,5.4,3.8,9.9,2.3c4.6-1.5,5.9-4.4,5-7.2
				C69.8,46.4,67,44.8,62.4,46.3z"/>
			<path class="st15" d="M59.9,49.2c-2.9,0.9-4.5,3.8-4.2,4.9c0.3,0.9,3.4,2.4,6.2,1.5c2.9-0.9,3.7-2.8,3.1-4.5
				C64.5,49.3,62.8,48.3,59.9,49.2z"/>
		</g>
	</g>
</g>
</svg>
