<?xml version="1.0" encoding="utf-8"?>
<!-- Generator: Adobe Illustrator 19.2.1, SVG Export Plug-In . SVG Version: 6.00 Build 0)  -->
<svg version="1.1" id="Calque_1" xmlns="http://www.w3.org/2000/svg" xmlns:xlink="http://www.w3.org/1999/xlink" x="0px" y="0px"
	 viewBox="0 0 365.7 300" style="enable-background:new 0 0 365.7 300;" xml:space="preserve">
<style type="text/css">
	.st0{fill:#EFBC64;}
	.st1{fill:#A6A155;}
	.st2{fill:none;stroke:#3B4D57;stroke-width:2.1977;stroke-linecap:round;stroke-linejoin:round;stroke-miterlimit:10;}
	.st3{fill:#3B4D57;}
	.st4{fill:#FACBAC;}
	.st5{fill:#2B5871;}
	.st6{fill:#466E6E;}
	.st7{fill:#381209;}
	.st8{fill:#E7685A;}
	.st9{fill:#E7675A;}
</style>
<g>
	<circle class="st0" cx="187.1" cy="150" r="150"/>
</g>
<g>
	<g>
		<g>
			<path class="st1" d="M28.2,35.6C64.9,52.3,49,119.5,64.7,99.9C87,72.1,104,95.6,97.8,128.5c-6.2,32.9-10.9,59.8,23,50.6
				c34-9.2,7.4,47.2-0.3,59.5c-7.6,12.2-28.9,28.6-54.3,18.1c-13.4-5.5-67.2-34.5-34.5-47.5c32.7-12.9,12.8-31.7-11.9-54.3
				c-24.7-22.6-29.6-49,5.1-40.9c24.9,5.8-26.7-38.9-7.7-74.4c1.7-3.1,4.4-6.8,4.4-6.8S24.5,33.8,28.2,35.6z"/>
			<path class="st2" d="M96.9,256.8c0,0-34-75.2-65.5-196.9"/>
		</g>
		<g>
			<path class="st1" d="M349.5,60c-25.2-16.9-61,4.1-70.9,36.3c-12,39-30.2,55.7-57.9,72.6c-27.7,16.9-30.1,61.6,2.7,83.6
				c27.8,18.7,73.6,2.4,78.9-29.7c5.3-32,12.6-64.7,39.3-84.7C372.4,115.2,372.3,75.4,349.5,60z"/>
			<path class="st2" d="M219.7,251c0,0,63.4-70.6,113.6-162.9"/>
		</g>
		<g>
			<path class="st1" d="M242.2,54.4c0-1,6.6,0.4,12.6-5.8c8.2-8.5,19,2.7,5.8,9.5C251.5,62.9,242.1,57,242.2,54.4z"/>
			<path class="st1" d="M242.1,51.4c-0.2-1-6.5,1.5-13.3-3.6c-9.5-7-18.2,5.8-4.1,10.4C234.3,61.3,242.6,54,242.1,51.4z"/>
			<path class="st1" d="M237.5,19.6c-0.2-1,6.6-0.9,11.3-8c6.5-9.9,19.1-0.9,7.5,8.3C248.2,26.3,237.9,22.3,237.5,19.6z"/>
			<path class="st1" d="M236.7,17.7c0.1-1-6.6-0.2-12-6.8c-7.5-9.2-19.1,1-6.6,9C226.7,25.4,236.6,20.4,236.7,17.7z"/>
			<path class="st1" d="M239.6,36.9c0-2.6,10.6,1.6,15.4-8.4c8.1-16.9,22.8,2.7,6.1,12.3C251.4,46.3,239.6,40.3,239.6,36.9z"/>
			<path class="st1" d="M240.1,31.1c-0.7-2.5-9.7,4.5-17.1-3.7c-12.6-14-21.1,9.1-2.4,13.5C231.4,43.5,241.1,34.4,240.1,31.1z"/>
			<path class="st1" d="M244.7,108.7c0.1-1,6.6,1,13-4.6c9-7.7,18.6,4.4,4.9,10C253.2,118,244.4,111.3,244.7,108.7z"/>
			<path class="st1" d="M244.9,105.7c-0.1-1-6.6,0.9-13-4.8c-8.8-7.8-18.7,4.1-5.1,10C236.3,114.9,245.2,108.4,244.9,105.7z"/>
			<path class="st1" d="M243.2,73.7c-0.1-1,6.6-0.3,11.9-7c7.4-9.3,19.1,0.8,6.7,8.9C253.3,81.3,243.4,76.3,243.2,73.7z"/>
			<path class="st1" d="M242.6,71.7c0.1-1-6.6-0.8-11.4-7.9c-6.6-9.8-19.1-0.7-7.4,8.4C231.9,78.5,242.3,74.4,242.6,71.7z"/>
			<path class="st1" d="M243.7,91.1c0.3-2.6,10.4,2.5,16.1-7c9.6-16.1,22.5,4.8,5,12.8C254.7,101.5,243.4,94.5,243.7,91.1z"/>
			<path class="st1" d="M244.8,85.3c-0.5-2.6-10.1,3.6-16.7-5.3c-11.3-15-21.8,7.1-3.7,13.2C235,96.9,245.5,88.7,244.8,85.3z"/>
			<path class="st1" d="M235.2,162c0.4-1,6.2,2.4,13.7-1.5c10.5-5.5,17.2,8.5,2.5,10.9C241.4,173,234.3,164.5,235.2,162z"/>
			<path class="st1" d="M235.6,160.1c0-1-6.6-0.1-12.1-6.6c-7.6-9.1-19.1,1.3-6.5,9.1C225.7,168,235.5,162.8,235.6,160.1z"/>
			<path class="st1" d="M242.2,129.1c0.1-1,6.6,0.7,12.9-5.1c8.6-8.1,18.8,3.6,5.3,9.8C251.1,138,242,131.7,242.2,129.1z"/>
			<path class="st1" d="M242.5,125.1c0.1-1-6.6-0.7-11.4-7.8c-6.7-9.8-19.1-0.6-7.3,8.4C231.8,131.9,242.1,127.7,242.5,125.1z"/>
			<path class="st1" d="M239.7,145.1c0.6-2.5,9.9,4,16.9-4.5c11.9-14.5,21.5,8,3.1,13.4C249,157.1,238.9,148.4,239.7,145.1z"/>
			<path class="st1" d="M240.1,140.3c-0.1-2.6-10.5,2.1-15.8-7.7c-9-16.5-22.6,3.8-5.6,12.6C228.8,150.3,240.3,143.7,240.1,140.3z"
				/>
			<path class="st1" d="M214.7,215c0.4-1,6.1,2.7,13.8-1c10.7-5.1,16.8,9.2,2.1,11C220.4,226.3,213.7,217.4,214.7,215z"/>
			<path class="st1" d="M215.1,213.1c0.1-1-6.6-0.4-11.8-7.1c-7.2-9.4-19.1,0.5-6.8,8.8C204.9,220.6,214.9,215.8,215.1,213.1z"/>
			<path class="st1" d="M229.1,182.7c0.1-1,6.6,1,13-4.6c9-7.7,18.6,4.4,4.9,10C237.6,192.1,228.7,185.4,229.1,182.7z"/>
			<path class="st1" d="M230.4,177.8c0.2-1-6.6-1-11.1-8.3c-6.2-10-19.1-1.4-7.7,8.1C219.5,184.2,230,180.4,230.4,177.8z"/>
			<path class="st1" d="M222.9,196.5c1.1-2.4,9,5.8,17.5-1.2c14.5-12,19.6,12,0.5,13.7C229.7,210,221.4,199.6,222.9,196.5z"/>
			<path class="st1" d="M224.5,192.7c0-2.6-10.6,1.6-15.4-8.3c-8.2-16.9-22.8,2.9-6.1,12.3C212.7,202.2,224.5,196.2,224.5,192.7z"/>
			<path class="st2" d="M201,233.2c0,0,68.5-74.5,33.6-223.3"/>
		</g>
		<g>
			<path class="st1" d="M95,63.5c-0.1-1-6.6,0.7-12.8-5.1c-8.6-8.1-18.8,3.6-5.3,9.8C86.1,72.5,95.2,66.2,95,63.5z"/>
			<path class="st1" d="M95,60.5c0.2-1,6.5,1.2,13.2-4.2c9.1-7.5,18.5,4.9,4.6,10.2C103.2,70.1,94.6,63.2,95,60.5z"/>
			<path class="st1" d="M98,28.6c0.1-1-6.6-0.5-11.7-7.4c-7-9.5-19.1,0.1-7.1,8.7C87.6,35.8,97.7,31.3,98,28.6z"/>
			<path class="st1" d="M98.6,26.7c-0.1-1,6.6-0.5,11.7-7.4c7-9.5,19.1,0.1,7.1,8.7C109,33.9,98.9,29.3,98.6,26.7z"/>
			<path class="st1" d="M96.7,45.9c-0.1-2.6-10.5,2.1-15.8-7.6c-9-16.5-22.6,3.9-5.5,12.6C85.4,55.9,96.9,49.4,96.7,45.9z"/>
			<path class="st1" d="M95.9,40.2c0.6-2.5,10,4,16.9-4.6c11.9-14.6,21.5,8,3.1,13.4C105.2,52.1,95.1,43.5,95.9,40.2z"/>
			<path class="st1" d="M95.2,117.9c-0.2-1-6.5,1.3-13.3-4c-9.3-7.3-18.4,5.3-4.4,10.3C87.1,127.7,95.7,120.5,95.2,117.9z"/>
			<path class="st1" d="M94.9,114.9c0.1-1,6.6,0.6,12.7-5.4c8.4-8.3,18.9,3.2,5.6,9.7C104,123.7,94.7,117.6,94.9,114.9z"/>
			<path class="st1" d="M95,82.9c0-1-6.6,0.1-12.3-6.3c-7.8-8.9-19.1,1.8-6.2,9.3C85.2,91,94.9,85.5,95,82.9z"/>
			<path class="st1" d="M95.4,80.9c-0.2-1,6.5-1.1,10.9-8.4c6.1-10.1,19.1-1.7,7.8,8C106.4,87.1,95.9,83.5,95.4,80.9z"/>
			<path class="st1" d="M95.3,100.2c-0.4-2.6-10.3,3-16.4-6.2c-10.4-15.6-22.2,5.9-4.4,13C84.9,111.2,95.8,103.6,95.3,100.2z"/>
			<path class="st1" d="M94,94.6c0.4-2.6,10.3,3.1,16.4-6.1c10.5-15.6,22.2,6,4.3,13C104.3,105.6,93.4,98,94,94.6z"/>
			<path class="st1" d="M107.3,170.7c-0.4-1-6,2.7-13.8-0.9c-10.7-5-16.7,9.3-2,11C101.7,182,108.4,173.1,107.3,170.7z"/>
			<path class="st1" d="M106.9,168.8c-0.1-1,6.6-0.4,11.8-7.2c7.1-9.4,19.1,0.4,6.9,8.8C117.2,176.2,107.1,171.5,106.9,168.8z"/>
			<path class="st1" d="M98.7,138.1c-0.1-1-6.6,1-13.1-4.5c-9-7.6-18.6,4.6-4.8,10.1C90.3,147.5,99.1,140.8,98.7,138.1z"/>
			<path class="st1" d="M98.2,134.2c-0.2-1,6.6-1.1,11-8.4c6.2-10.1,19.1-1.5,7.8,8.1C109.2,140.4,98.7,136.8,98.2,134.2z"/>
			<path class="st1" d="M102,154c-0.7-2.5-9.7,4.5-17.1-3.7c-12.6-13.9-21.1,9.1-2.4,13.5C93.3,166.4,103,157.3,102,154z"/>
			<path class="st1" d="M101.3,149.2c0-2.6,10.6,1.5,15.4-8.4c8.1-16.9,22.8,2.7,6.2,12.3C113.2,158.6,101.3,152.6,101.3,149.2z"/>
			<path class="st1" d="M130.5,222.6c-0.5-0.9-5.9,3-13.8-0.3c-10.9-4.5-16.3,10-1.5,11.1C125.3,234.1,131.6,225,130.5,222.6z"/>
			<path class="st1" d="M130,220.7c-0.1-1,6.6-0.7,11.5-7.7c6.7-9.7,19.1-0.4,7.3,8.5C140.5,227.6,130.3,223.4,130,220.7z"/>
			<path class="st1" d="M114.5,191.1c-0.2-1-6.5,1.3-13.3-3.9c-9.3-7.3-18.4,5.3-4.4,10.3C106.5,200.8,115,193.7,114.5,191.1z"/>
			<path class="st1" d="M112.9,186.2c-0.2-1,6.5-1.4,10.6-8.8c5.7-10.3,19-2.3,8.1,7.7C124.1,192,113.5,188.8,112.9,186.2z"/>
			<path class="st1" d="M121.4,204.5c-1.2-2.3-8.7,6.3-17.5-0.4c-15-11.3-19,13,0.2,13.7C115.3,218.3,123,207.5,121.4,204.5z"/>
			<path class="st1" d="M119.6,200.8c-0.1-2.6,10.7,1.1,15-9.1c7.4-17.3,22.9,1.7,6.7,12C131.9,209.7,119.7,204.3,119.6,200.8z"/>
			<path class="st2" d="M145.1,240c0,0-72.2-71-44.7-221.3"/>
		</g>
	</g>
	<g>
		<path class="st3" d="M163,270.8l88,5.2c8.9,1.3,17.5-2.8,18.7-11.7c1.3-8.9-4.9-17.1-13.8-18.4c0,0-69-16.9-86.7-9.9
			C160.6,239.4,163,270.8,163,270.8z"/>
		<path class="st3" d="M173.7,269.9l-88,5.2c-8.9,1.3-17.5-2.8-18.8-11.7c-1.3-8.9,4.9-17.1,13.8-18.4c0,0,69-16.9,86.7-9.9
			C176.1,238.5,173.7,269.9,173.7,269.9z"/>
		<g>
			<path class="st4" d="M187.1,279.3c0,0-1.6,7.1-16.6,2.3c-2.4-0.8-2.5-9.5,4.1-9.4C182.6,272.2,187.1,279.3,187.1,279.3z"/>
			<path class="st5" d="M191.1,283.2c7.4,1.6,20,8.3,26.2,3.8c6.1-4.6-9.6-18.6-37.6-23.1c-2.4-0.4-6.6,1.1-8.5,7.4
				c0,0,11.7,5.6,11.5,11.6C182.7,282.9,187.1,282.4,191.1,283.2z"/>
			<path class="st6" d="M171.3,283.1l-90.9-7.8c-8.8-1.6-14.9-9.1-13.3-17.9c1.6-8.8,9.2-13.9,18.1-12.3l89.5,18.9L171.3,283.1z"/>
		</g>
		<g>
			<path class="st4" d="M152.5,281.3c0,0,4.4,7.9,16.6,2.3c2.3-1.1,2.5-9.5-4.1-9.4C157,274.2,152.5,281.3,152.5,281.3z"/>
			<path class="st5" d="M149.1,287.3c-7.6,2-20.3,9.6-26.9,5.2c-6.6-4.4,9-19.7,37.7-25.8c2.5-0.5,6.9,0.8,9.2,7.2
				c0,0-8.7,2-11,11.4C158.2,285.3,153.2,286.2,149.1,287.3z"/>
			<path class="st6" d="M165.8,285.2l90.9-7.8c8.8-1.6,14.9-9,13.3-17.9c-1.6-8.8-9.2-13.9-18.1-12.3l-89.5,18.9L165.8,285.2z"/>
		</g>
		<path class="st7" d="M166.2,54.8c0,0-24.1,0.4-27.8,25.4c-3.7,24.9-2.5,25.6,1,34.8c3.6,9.2-14.8,15.9-16.9,30.5
			c-1.7,11.7,5.7,12.9-3.2,40.4c-6.1,18.8,98.8,17.6,92,1.9c-12.6-29.2,11.3-33.1,0.1-46.7c-11.2-13.5-19.4-21.9-16.7-30.3
			C197.5,102.5,206.8,55.9,166.2,54.8z"/>
		<path class="st8" d="M206.4,236.6c4.8-4.8,5-13.6,4.2-27c-1.1-20.7-12.4-30.9-12.4-30.9c4.1-23.7-5.2-40.7-7.8-44.2
			c-4.8-6.6-15.8-6.7-15.8-6.7h-16.8c0,0-10.3,0-15.4,7.2c-2.9,4.1-9.6,17.2-6.5,41.5c0,0-10.8,5.2-11.9,28.6
			c-0.7,14.7-2.3,27,2.8,31.8C138.2,247.7,191.9,251,206.4,236.6z"/>
		<path class="st4" d="M191.2,86c-1.3,19.6-6.7,26.6-13,32.1c-3.2,2.8-7.5,2.6-11.6,2.6c-4.6,0-7.2-1.2-10.6-3.6
			c-7-5.1-12.5-15.4-14-31.2c-1.6-17.1,9.4-28.7,25-28.7S192.5,66,191.2,86z"/>
		<g>
			<path class="st4" d="M206.7,199.3c1.6,6.4,7.4,10.8,13.8,9.3l0,0c8.7-1.9,11-8,8.9-14.4c-3.3-10.2-12.4-31-16.4-41.4
				c-7.6-19.5-22.3-25.4-30.9-23.8c-0.8,0.1-0.3,6.2,5.1,13.9c5.8,8.3,6.4,11.7,10.4,23.5C201.8,178.9,204.6,191,206.7,199.3z"/>
			<path class="st4" d="M175.7,230.9c6.5-6.7,22.6-29.7,31.8-36.7c8.6-6.5,15.5-8.2,20.4-1.7c4.4,5.9,2.8,12.1-7.4,18.7l-37.8,28.6
				L175.7,230.9z"/>
			<path class="st4" d="M172.7,230.6c0,0-9.2,0.9-9,4.2c0.2,3.3,6.3,1.7,6.3,1.7s-13.7,7.7-8,13.6c5.3,5.5,9.6,3,20.3-8.3
				C185.3,238.5,184.8,227.7,172.7,230.6z"/>
		</g>
		<g>
			<path class="st4" d="M125.8,199.3c-1.6,6.4-7.4,10.8-13.8,9.3l0,0c-8.7-1.9-10.9-8-8.9-14.4c3.3-10.2,12.4-31,16.4-41.4
				c7.6-19.5,23.7-24.8,30.9-23.8c0.8,0.1-0.5,6.8-5.1,13.9c-5.4,8.5-6.4,11.7-10.4,23.5C130.7,178.9,127.9,191,125.8,199.3z"/>
			<path class="st4" d="M156.8,230.9c-6.5-6.7-22.6-29.7-31.8-36.7c-8.6-6.5-15.5-8.2-20.4-1.7c-4.4,5.9-2.8,12.1,7.4,18.7
				l37.8,28.6L156.8,230.9z"/>
			<path class="st4" d="M159.7,230.6c0,0,9.2,0.9,9,4.2c-0.2,3.3-6.3,1.7-6.3,1.7s13.7,7.7,8,13.6c-5.3,5.5-9.6,3-20.3-8.3
				C147.1,238.5,147.7,227.7,159.7,230.6z"/>
		</g>
		<path class="st7" d="M142.3,88.9c0,0,8.4-0.4,11.8-7.4c3.4-6.9,11.2-0.6,12.9-8.2c0,0,2.4,4.2,10.2,5.6c7.7,1.5,3.6,11.1,13.9,9.9
			c0,0,4.8-13-3.1-22.9c-8-9.8-14.3-10.4-22.5-10.4C157.3,55.6,136.4,64.9,142.3,88.9z"/>
		<path class="st4" d="M144.8,91.8c0,3.1,3.7,6.1-0.7,6.5c-2.5,0.2-4.7-2.2-4.7-5.3c0-3,0.7-6.7,4.7-6.7
			C146.6,86.3,144.8,88.7,144.8,91.8z"/>
		<path class="st4" d="M189.3,91.8c0,3.1-3.7,6.1,0.7,6.5c2.5,0.2,4.7-2.2,4.7-5.3c0-3-0.7-6.7-4.7-6.7
			C187.5,86.3,189.3,88.7,189.3,91.8z"/>
		<path class="st4" d="M173.7,117.5h-13.5c0.6,2.2,1.3,6.7-1.4,10c-3.1,3.7,18.8,4.1,16,0.1C172.2,123.9,173,119.6,173.7,117.5z"/>
		<g>
			<g>
				<path class="st9" d="M144.5,95.9c-0.1,0-0.4,0.1-0.4,0.3c-0.1,0.4,0.1,0.6,0.1,0.7c0.6,0.3,1.2,1,1.2,1.9c0.1,1-0.5,1.8-1.5,1.8
					c-0.3,0-1.9,0-1.9-1.7c0-0.4,0.1-0.7,0.2-1c-0.1,0-0.8-0.5-0.9-0.6c-0.2,0.5-0.4,1.1-0.3,1.7c0.1,1.9,1.6,2.7,3,2.7
					c1.5-0.1,2.6-1.3,2.5-2.9C146.3,97.3,145.5,96,144.5,95.9z"/>
			</g>
		</g>
		<g>
			<g>
				<path class="st9" d="M189.5,96c0.1,0,0.4,0.1,0.5,0.3c0.1,0.4-0.1,0.6-0.1,0.7c-0.6,0.3-1.1,1-1.2,1.9c0,1,0.5,1.7,1.5,1.8
					c0.3,0,1.9,0,2-1.7c0-0.4-0.1-0.7-0.2-1c0.1,0,0.8-0.5,0.9-0.6c0.2,0.5,0.4,1.1,0.3,1.7c-0.1,1.9-1.6,2.7-3,2.7
					c-1.5-0.1-2.6-1.3-2.5-2.9C187.7,97.5,188.5,96.1,189.5,96z"/>
			</g>
		</g>
	</g>
</g>
<g>
</g>
<g>
</g>
<g>
</g>
<g>
</g>
<g>
</g>
<g>
</g>
</svg>
