<?xml version="1.0" encoding="utf-8"?>
<!-- Generator: Adobe Illustrator 19.2.1, SVG Export Plug-In . SVG Version: 6.00 Build 0)  -->
<svg version="1.1" id="Calque_1" xmlns="http://www.w3.org/2000/svg" xmlns:xlink="http://www.w3.org/1999/xlink" x="0px" y="0px"
	 viewBox="0 0 142 147.6" style="enable-background:new 0 0 142 147.6;" xml:space="preserve">
<style type="text/css">
	.st0{fill:#FDD28B;}
	.st1{fill:none;stroke:#3C4E58;stroke-width:7.211;stroke-miterlimit:10;}
</style>
<path class="st0" d="M67.9,81.5c-14.7-25.8-11.5-56.9,5.6-79C60.8,2.1,47.9,5.1,36,11.8C1.8,31.3-10.1,74.9,9.4,109.1
	c19.5,34.2,63.1,46.2,97.3,26.7c8.4-4.8,15.5-11.1,21.1-18.3C103.7,116.7,80.7,103.9,67.9,81.5z"/>
<path class="st1" d="M76,81.4C61.5,56,64.6,25.4,81.5,3.6C69,3.3,56.3,6.2,44.6,12.8C10.9,32-0.8,74.8,18.4,108.5
	c19.2,33.7,62,45.4,95.7,26.2c8.3-4.7,15.2-10.9,20.7-18C111.2,116,88.5,103.4,76,81.4z"/>
</svg>
