<?xml version="1.0" encoding="utf-8"?>
<!-- Generator: Adobe Illustrator 19.2.1, SVG Export Plug-In . SVG Version: 6.00 Build 0)  -->
<svg version="1.1" id="Calque_1" xmlns="http://www.w3.org/2000/svg" xmlns:xlink="http://www.w3.org/1999/xlink" x="0px" y="0px"
	 viewBox="0 0 300 323" style="enable-background:new 0 0 300 323;" xml:space="preserve">
<style type="text/css">
	.st0{fill:#EFBC64;}
	.st1{fill:#3B4D57;}
	.st2{fill:#FFFFFF;}
	.st3{fill:#A6A155;}
	.st4{fill:#F8BC96;}
	.st5{fill:#FACAAC;}
	.st6{fill:#37100E;}
	.st7{opacity:0.2;clip-path:url(#SVGID_2_);fill:#401011;}
</style>
<g>
	<circle class="st0" cx="150" cy="173" r="150"/>
</g>
<g>
	<g>
		<g>
			<g>
				
					<ellipse transform="matrix(0.858 -0.5137 0.5137 0.858 -31.7992 141.7536)" class="st1" cx="240.4" cy="128.4" rx="2.3" ry="2.4"/>
			</g>
			<g>
				
					<ellipse transform="matrix(0.858 -0.5137 0.5137 0.858 -37.2343 136.5535)" class="st1" cx="228.3" cy="135.6" rx="2.3" ry="2.4"/>
			</g>
			<g>
				
					<ellipse transform="matrix(0.8578 -0.514 0.514 0.8578 -42.6728 131.4813)" class="st1" cx="216.3" cy="142.9" rx="2.3" ry="2.4"/>
			</g>
			<g>
				
					<ellipse transform="matrix(0.8578 -0.514 0.514 0.8578 -48.1123 126.2976)" class="st1" cx="204.2" cy="150.1" rx="2.3" ry="2.4"/>
			</g>
			<g>
				
					<ellipse transform="matrix(0.858 -0.5137 0.5137 0.858 -53.5359 121.0104)" class="st1" cx="192.1" cy="157.3" rx="2.3" ry="2.4"/>
			</g>
			<g>
				
					<ellipse transform="matrix(0.858 -0.5136 0.5136 0.858 -58.9681 115.8194)" class="st1" cx="180" cy="164.6" rx="2.3" ry="2.4"/>
			</g>
			<g>
				
					<ellipse transform="matrix(0.858 -0.5136 0.5136 0.858 -64.4014 110.6386)" class="st1" cx="167.9" cy="171.8" rx="2.3" ry="2.4"/>
			</g>
			<g>
				
					<ellipse transform="matrix(0.858 -0.5137 0.5137 0.858 -69.8402 105.4738)" class="st1" cx="155.8" cy="179" rx="2.3" ry="2.4"/>
			</g>
			<g>
				
					<ellipse transform="matrix(0.858 -0.5137 0.5137 0.858 -75.2746 100.2931)" class="st1" cx="143.7" cy="186.3" rx="2.3" ry="2.4"/>
			</g>
			<g>
				
					<ellipse transform="matrix(0.858 -0.5136 0.5136 0.858 -80.7023 95.0971)" class="st1" cx="131.7" cy="193.5" rx="2.3" ry="2.4"/>
			</g>
			<g>
				
					<ellipse transform="matrix(0.858 -0.5136 0.5136 0.858 -86.1354 89.9163)" class="st1" cx="119.6" cy="200.8" rx="2.3" ry="2.4"/>
			</g>
			<g>
				<path class="st1" d="M106.2,205.9c-1.1,0.7-1.5,2.1-0.8,3.3c0.7,1.1,2.1,1.5,3.3,0.9c1.1-0.7,1.5-2.1,0.8-3.3
					C108.8,205.6,107.3,205.2,106.2,205.9z"/>
			</g>
			<g>
				<path class="st1" d="M94.1,213.2c-1.1,0.7-1.5,2.1-0.8,3.3c0.7,1.1,2.1,1.5,3.3,0.9c1.1-0.7,1.5-2.1,0.8-3.3
					C96.7,212.9,95.3,212.5,94.1,213.2z"/>
			</g>
			<g>
				<path class="st1" d="M82.1,220.4c-1.1,0.7-1.5,2.1-0.8,3.3c0.7,1.1,2.1,1.5,3.3,0.9c1.1-0.7,1.5-2.1,0.8-3.3
					C84.6,220.1,83.2,219.7,82.1,220.4z"/>
			</g>
			<g>
				<path class="st1" d="M70,227.6c-1.1,0.7-1.5,2.1-0.8,3.3c0.7,1.1,2.1,1.5,3.3,0.9c1.1-0.7,1.5-2.1,0.8-3.3
					C72.5,227.3,71.1,227,70,227.6z"/>
			</g>
			<g>
				<path class="st1" d="M57.9,234.9c-1.1,0.7-1.5,2.1-0.8,3.3c0.7,1.1,2.1,1.5,3.3,0.9c1.1-0.7,1.5-2.1,0.8-3.3
					C60.5,234.6,59,234.2,57.9,234.9z"/>
			</g>
		</g>
		<g>
			<g>
				<path class="st1" d="M150.2,75.2c-1.3,0-2.4,1.1-2.4,2.4s1.1,2.4,2.4,2.4c1.3,0,2.4-1.1,2.4-2.4S151.5,75.2,150.2,75.2z"/>
			</g>
			<g>
				<path class="st1" d="M150.2,89.5c-1.3,0-2.4,1.1-2.4,2.4s1.1,2.4,2.4,2.4c1.3,0,2.4-1.1,2.4-2.4S151.5,89.5,150.2,89.5z"/>
			</g>
			<g>
				<path class="st1" d="M150.2,103.8c-1.3,0-2.4,1.1-2.4,2.4s1.1,2.4,2.4,2.4c1.3,0,2.4-1.1,2.4-2.4S151.5,103.8,150.2,103.8z"/>
			</g>
			<g>
				<path class="st1" d="M150.2,118.1c-1.3,0-2.4,1.1-2.4,2.4s1.1,2.4,2.4,2.4c1.3,0,2.4-1.1,2.4-2.4S151.5,118.1,150.2,118.1z"/>
			</g>
			<g>
				<path class="st1" d="M150.2,132.4c-1.3,0-2.4,1.1-2.4,2.4s1.1,2.4,2.4,2.4c1.3,0,2.4-1.1,2.4-2.4S151.5,132.4,150.2,132.4z"/>
			</g>
			<g>
				<path class="st1" d="M150.2,146.7c-1.3,0-2.4,1.1-2.4,2.4c0,1.3,1.1,2.4,2.4,2.4c1.3,0,2.4-1.1,2.4-2.4
					C152.6,147.8,151.5,146.7,150.2,146.7z"/>
			</g>
			<g>
				<path class="st1" d="M150.2,161c-1.3,0-2.4,1.1-2.4,2.4c0,1.3,1.1,2.4,2.4,2.4c1.3,0,2.4-1.1,2.4-2.4
					C152.6,162.1,151.5,161,150.2,161z"/>
			</g>
			<g>
				<path class="st1" d="M150.2,175.3c-1.3,0-2.4,1.1-2.4,2.4s1.1,2.4,2.4,2.4c1.3,0,2.4-1.1,2.4-2.4S151.5,175.3,150.2,175.3z"/>
			</g>
			<g>
				<path class="st1" d="M150.2,189.6c-1.3,0-2.4,1.1-2.4,2.4c0,1.3,1.1,2.4,2.4,2.4c1.3,0,2.4-1.1,2.4-2.4
					C152.6,190.7,151.5,189.6,150.2,189.6z"/>
			</g>
			<g>
				<path class="st1" d="M150.2,203.9c-1.3,0-2.4,1.1-2.4,2.4s1.1,2.4,2.4,2.4c1.3,0,2.4-1.1,2.4-2.4S151.5,203.9,150.2,203.9z"/>
			</g>
			<g>
				<path class="st1" d="M150.2,218.2c-1.3,0-2.4,1.1-2.4,2.4s1.1,2.4,2.4,2.4c1.3,0,2.4-1.1,2.4-2.4S151.5,218.2,150.2,218.2z"/>
			</g>
			<g>
				<path class="st1" d="M150.2,232.6c-1.3,0-2.4,1.1-2.4,2.4s1.1,2.4,2.4,2.4c1.3,0,2.4-1.1,2.4-2.4S151.5,232.6,150.2,232.6z"/>
			</g>
			<g>
				<path class="st1" d="M150.2,246.9c-1.3,0-2.4,1.1-2.4,2.4s1.1,2.4,2.4,2.4c1.3,0,2.4-1.1,2.4-2.4S151.5,246.9,150.2,246.9z"/>
			</g>
			<g>
				<path class="st1" d="M150.2,261.2c-1.3,0-2.4,1.1-2.4,2.4s1.1,2.4,2.4,2.4c1.3,0,2.4-1.1,2.4-2.4S151.5,261.2,150.2,261.2z"/>
			</g>
			<g>
				<path class="st1" d="M150.2,275.5c-1.3,0-2.4,1.1-2.4,2.4c0,1.3,1.1,2.4,2.4,2.4c1.3,0,2.4-1.1,2.4-2.4
					C152.6,276.5,151.5,275.5,150.2,275.5z"/>
			</g>
			<g>
				<path class="st1" d="M150.2,289.8c-1.3,0-2.4,1.1-2.4,2.4s1.1,2.4,2.4,2.4c1.3,0,2.4-1.1,2.4-2.4S151.5,289.8,150.2,289.8z"/>
			</g>
		</g>
		<g>
			<g>
				<path class="st1" d="M60.4,126.3c-1.1-0.7-2.6-0.3-3.3,0.9c-0.7,1.1-0.3,2.6,0.8,3.3c1.1,0.7,2.6,0.3,3.3-0.9
					C61.9,128.4,61.5,127,60.4,126.3z"/>
			</g>
			<g>
				
					<ellipse transform="matrix(0.5122 -0.8589 0.8589 0.5122 -81.6901 127.4054)" class="st1" cx="71.3" cy="135.6" rx="2.4" ry="2.4"/>
			</g>
			<g>
				
					<ellipse transform="matrix(0.5122 -0.8589 0.8589 0.5122 -81.9843 141.3627)" class="st1" cx="83.4" cy="142.9" rx="2.4" ry="2.4"/>
			</g>
			<g>
				
					<ellipse transform="matrix(0.5122 -0.8589 0.8589 0.5122 -82.2795 155.3182)" class="st1" cx="95.6" cy="150.1" rx="2.4" ry="2.4"/>
			</g>
			<g>
				
					<ellipse transform="matrix(0.5121 -0.8589 0.8589 0.5121 -82.5739 169.287)" class="st1" cx="107.7" cy="157.3" rx="2.4" ry="2.4"/>
			</g>
			<g>
				
					<ellipse transform="matrix(0.5122 -0.8589 0.8589 0.5122 -82.869 183.2307)" class="st1" cx="119.9" cy="164.6" rx="2.4" ry="2.4"/>
			</g>
			<g>
				
					<ellipse transform="matrix(0.5122 -0.8589 0.8589 0.5122 -83.1633 197.188)" class="st1" cx="132" cy="171.8" rx="2.4" ry="2.4"/>
			</g>
			<g>
				
					<ellipse transform="matrix(0.5122 -0.8589 0.8589 0.5122 -83.4577 211.143)" class="st1" cx="144.1" cy="179" rx="2.4" ry="2.4"/>
			</g>
			<g>
				
					<ellipse transform="matrix(0.5121 -0.8589 0.8589 0.5121 -83.7487 225.1145)" class="st1" cx="156.3" cy="186.3" rx="2.4" ry="2.4"/>
			</g>
			<g>
				
					<ellipse transform="matrix(0.5122 -0.8589 0.8589 0.5122 -84.0449 239.0543)" class="st1" cx="168.4" cy="193.5" rx="2.4" ry="2.4"/>
			</g>
			<g>
				
					<ellipse transform="matrix(0.5122 -0.8589 0.8589 0.5122 -84.3391 253.0116)" class="st1" cx="180.6" cy="200.7" rx="2.4" ry="2.4"/>
			</g>
			<g>
				
					<ellipse transform="matrix(0.5122 -0.8589 0.8589 0.5122 -84.6343 266.967)" class="st1" cx="192.7" cy="208" rx="2.4" ry="2.4"/>
			</g>
			<g>
				
					<ellipse transform="matrix(0.5122 -0.8589 0.8589 0.5122 -84.9295 280.9226)" class="st1" cx="204.8" cy="215.2" rx="2.4" ry="2.4"/>
			</g>
			<g>
				
					<ellipse transform="matrix(0.5121 -0.8589 0.8589 0.5121 -85.2187 294.901)" class="st1" cx="217" cy="222.5" rx="2.4" ry="2.4"/>
			</g>
			<g>
				
					<ellipse transform="matrix(0.5122 -0.8589 0.8589 0.5122 -85.5181 308.8369)" class="st1" cx="229.1" cy="229.7" rx="2.4" ry="2.4"/>
			</g>
			<g>
				
					<ellipse transform="matrix(0.5122 -0.8589 0.8589 0.5122 -85.8132 322.7924)" class="st1" cx="241.2" cy="236.9" rx="2.4" ry="2.4"/>
			</g>
		</g>
		<g>
			<g>
				
					<ellipse transform="matrix(0.5143 -0.8576 0.8576 0.5143 24.8924 168.7854)" class="st1" cx="161.5" cy="62.4" rx="2.4" ry="2.3"/>
			</g>
			<g>
				
					<ellipse transform="matrix(0.5146 -0.8574 0.8574 0.5146 24.5038 182.5222)" class="st1" cx="173.5" cy="69.6" rx="2.4" ry="2.3"/>
			</g>
			<g>
				
					<ellipse transform="matrix(0.5137 -0.858 0.858 0.5137 24.2936 196.4965)" class="st1" cx="185.5" cy="76.8" rx="2.4" ry="2.3"/>
			</g>
			<g>
				
					<ellipse transform="matrix(0.5146 -0.8574 0.8574 0.5146 23.8202 210.1163)" class="st1" cx="197.5" cy="84" rx="2.4" ry="2.3"/>
			</g>
			<g>
				<path class="st1" d="M210.7,89.1c-1.1-0.7-2.6-0.3-3.2,0.9c-0.7,1.1-0.3,2.6,0.8,3.3c1.1,0.7,2.6,0.3,3.2-0.9
					C212.2,91.3,211.8,89.8,210.7,89.1z"/>
			</g>
			<g>
				
					<ellipse transform="matrix(0.5146 -0.8574 0.8574 0.5146 23.1253 237.6962)" class="st1" cx="221.5" cy="98.4" rx="2.4" ry="2.3"/>
			</g>
			<g>
				<path class="st1" d="M234.8,103.6c-1.1-0.7-2.6-0.3-3.2,0.9c-0.7,1.1-0.4,2.6,0.8,3.3c1.1,0.7,2.6,0.3,3.2-0.9
					C236.2,105.7,235.9,104.2,234.8,103.6z"/>
			</g>
			<g>
				
					<ellipse transform="matrix(0.5146 -0.8574 0.8574 0.5146 22.4428 265.2924)" class="st1" cx="245.5" cy="112.8" rx="2.4" ry="2.3"/>
			</g>
			<g>
				<path class="st1" d="M256.7,130.5c-1.3,0-2.4,1.1-2.4,2.4c0,1.3,1.1,2.4,2.4,2.4c1.3,0,2.4-1.1,2.4-2.4
					C259.1,131.6,258,130.5,256.7,130.5z"/>
			</g>
			<g>
				<path class="st1" d="M256.7,144.9c-1.3,0-2.4,1.1-2.4,2.4c0,1.3,1.1,2.4,2.4,2.4c1.3,0,2.4-1.1,2.4-2.4
					C259.1,146,258,144.9,256.7,144.9z"/>
			</g>
			<g>
				<path class="st1" d="M256.7,159.4c-1.3,0-2.4,1.1-2.4,2.4c0,1.3,1.1,2.4,2.4,2.4c1.3,0,2.4-1.1,2.4-2.4
					C259.1,160.4,258,159.4,256.7,159.4z"/>
			</g>
			<g>
				<path class="st1" d="M256.7,173.8c-1.3,0-2.4,1.1-2.4,2.4c0,1.3,1.1,2.4,2.4,2.4c1.3,0,2.4-1.1,2.4-2.4
					C259.1,174.9,258,173.8,256.7,173.8z"/>
			</g>
			<g>
				<path class="st1" d="M256.7,188.2c-1.3,0-2.4,1.1-2.4,2.4c0,1.3,1.1,2.4,2.4,2.4c1.3,0,2.4-1.1,2.4-2.4
					C259.1,189.3,258,188.2,256.7,188.2z"/>
			</g>
			<g>
				<path class="st1" d="M256.7,202.6c-1.3,0-2.4,1.1-2.4,2.4c0,1.3,1.1,2.4,2.4,2.4c1.3,0,2.4-1.1,2.4-2.4
					C259.1,203.7,258,202.6,256.7,202.6z"/>
			</g>
			<g>
				<path class="st1" d="M256.7,217c-1.3,0-2.4,1.1-2.4,2.4c0,1.3,1.1,2.4,2.4,2.4c1.3,0,2.4-1.1,2.4-2.4
					C259.1,218.1,258,217,256.7,217z"/>
			</g>
			<g>
				<path class="st1" d="M256.7,231.5c-1.3,0-2.4,1.1-2.4,2.4c0,1.3,1.1,2.4,2.4,2.4c1.3,0,2.4-1.1,2.4-2.4
					C259.1,232.5,258,231.5,256.7,231.5z"/>
			</g>
			<g>
				
					<ellipse transform="matrix(0.8576 -0.5143 0.5143 0.8576 -95.6466 162.4244)" class="st1" cx="245.5" cy="254" rx="2.3" ry="2.4"/>
			</g>
			<g>
				
					<ellipse transform="matrix(0.8578 -0.514 0.514 0.8578 -101.0257 157.1645)" class="st1" cx="233.5" cy="261.2" rx="2.3" ry="2.4"/>
			</g>
			<g>
				
					<ellipse transform="matrix(0.8574 -0.5146 0.5146 0.8574 -106.5214 152.2591)" class="st1" cx="221.5" cy="268.4" rx="2.3" ry="2.4"/>
			</g>
			<g>
				
					<ellipse transform="matrix(0.8576 -0.5143 0.5143 0.8576 -111.8853 146.9688)" class="st1" cx="209.5" cy="275.6" rx="2.3" ry="2.4"/>
			</g>
			<g>
				
					<ellipse transform="matrix(0.8574 -0.5146 0.5146 0.8574 -117.3512 141.9368)" class="st1" cx="197.5" cy="282.8" rx="2.3" ry="2.4"/>
			</g>
			<g>
				<path class="st1" d="M184.2,287.9c-1.1,0.7-1.4,2.1-0.8,3.3c0.7,1.1,2.1,1.5,3.2,0.9c1.1-0.7,1.4-2.1,0.8-3.3
					C186.8,287.6,185.3,287.2,184.2,287.9z"/>
			</g>
			<g>
				
					<ellipse transform="matrix(0.8576 -0.5143 0.5143 0.8576 -128.1237 131.5143)" class="st1" cx="173.5" cy="297.2" rx="2.3" ry="2.4"/>
			</g>
			<g>
				
					<ellipse transform="matrix(0.8574 -0.5146 0.5146 0.8574 -133.6039 126.4737)" class="st1" cx="161.5" cy="304.4" rx="2.3" ry="2.4"/>
			</g>
			<g>
				
					<ellipse transform="matrix(0.514 -0.8578 0.8578 0.514 -193.5486 267.1126)" class="st1" cx="138.9" cy="304.4" rx="2.4" ry="2.3"/>
			</g>
			<g>
				
					<ellipse transform="matrix(0.5137 -0.858 0.858 0.5137 -193.2229 253.4101)" class="st1" cx="126.9" cy="297.2" rx="2.4" ry="2.3"/>
			</g>
			<g>
				<path class="st1" d="M116.2,287.9c-1.1-0.7-2.6-0.3-3.2,0.9c-0.7,1.1-0.3,2.6,0.8,3.3c1.1,0.7,2.6,0.3,3.2-0.9
					C117.6,290,117.3,288.6,116.2,287.9z"/>
			</g>
			<g>
				
					<ellipse transform="matrix(0.5146 -0.8574 0.8574 0.5146 -192.4888 225.5034)" class="st1" cx="102.9" cy="282.8" rx="2.4" ry="2.3"/>
			</g>
			<g>
				
					<ellipse transform="matrix(0.5143 -0.8576 0.8576 0.5143 -192.169 211.8182)" class="st1" cx="90.9" cy="275.6" rx="2.4" ry="2.3"/>
			</g>
			<g>
				
					<ellipse transform="matrix(0.514 -0.8578 0.8578 0.514 -191.8471 198.0977)" class="st1" cx="78.9" cy="268.4" rx="2.4" ry="2.3"/>
			</g>
			<g>
				
					<ellipse transform="matrix(0.5141 -0.8578 0.8578 0.5141 -191.5047 184.2892)" class="st1" cx="66.9" cy="261.2" rx="2.4" ry="2.3"/>
			</g>
			<g>
				
					<ellipse transform="matrix(0.5143 -0.8576 0.8576 0.5143 -191.1429 170.4282)" class="st1" cx="54.9" cy="254" rx="2.4" ry="2.3"/>
			</g>
			<g>
				<ellipse class="st1" cx="43.7" cy="233.9" rx="2.4" ry="2.4"/>
			</g>
			<g>
				<ellipse class="st1" cx="43.7" cy="219.4" rx="2.4" ry="2.4"/>
			</g>
			<g>
				<ellipse class="st1" cx="43.7" cy="205" rx="2.4" ry="2.4"/>
			</g>
			<g>
				<ellipse class="st1" cx="43.7" cy="190.6" rx="2.4" ry="2.4"/>
			</g>
			<g>
				<ellipse class="st1" cx="43.7" cy="176.2" rx="2.4" ry="2.4"/>
			</g>
			<g>
				<ellipse class="st1" cx="43.7" cy="161.8" rx="2.4" ry="2.4"/>
			</g>
			<g>
				<ellipse class="st1" cx="43.7" cy="147.3" rx="2.4" ry="2.4"/>
			</g>
			<g>
				<ellipse class="st1" cx="43.7" cy="132.9" rx="2.4" ry="2.4"/>
			</g>
			<g>
				
					<ellipse transform="matrix(0.8574 -0.5146 0.5146 0.8574 -50.2337 44.3287)" class="st1" cx="54.9" cy="112.8" rx="2.3" ry="2.4"/>
			</g>
			<g>
				<path class="st1" d="M65.7,103.6c-1.1,0.7-1.4,2.1-0.8,3.3c0.7,1.1,2.1,1.5,3.2,0.9c1.1-0.7,1.4-2.1,0.8-3.3
					C68.2,103.3,66.8,102.9,65.7,103.6z"/>
			</g>
			<g>
				<ellipse transform="matrix(0.8578 -0.514 0.514 0.8578 -39.3697 54.5568)" class="st1" cx="78.9" cy="98.4" rx="2.3" ry="2.4"/>
			</g>
			<g>
				<path class="st1" d="M89.7,89.1c-1.1,0.7-1.4,2.1-0.8,3.3c0.7,1.1,2.1,1.5,3.2,0.9c1.1-0.7,1.4-2.1,0.8-3.3
					C92.2,88.9,90.8,88.5,89.7,89.1z"/>
			</g>
			<g>
				
					<ellipse transform="matrix(0.8574 -0.5146 0.5146 0.8574 -28.5628 64.9414)" class="st1" cx="102.9" cy="84" rx="2.3" ry="2.4"/>
			</g>
			<g>
				
					<ellipse transform="matrix(0.8576 -0.5143 0.5143 0.8576 -23.1426 70.0423)" class="st1" cx="114.9" cy="76.8" rx="2.3" ry="2.4"/>
			</g>
			<g>
				
					<ellipse transform="matrix(0.8577 -0.5141 0.5141 0.8577 -17.731 75.1618)" class="st1" cx="126.9" cy="69.6" rx="2.3" ry="2.4"/>
			</g>
			<g>
				
					<ellipse transform="matrix(0.858 -0.5137 0.5137 0.858 -12.3294 80.2373)" class="st1" cx="138.9" cy="62.4" rx="2.3" ry="2.4"/>
			</g>
		</g>
		<g>
			<path class="st2" d="M150.2,304.1c-3.7,0-6.8,3.1-6.8,7c0,3.9,3,7.1,6.8,7.1c3.8,0,6.8-3.2,6.8-7.1
				C157,307.2,154,304.1,150.2,304.1z"/>
			<path class="st1" d="M150.2,302.1c-4.8,0-8.8,4-8.8,9c0,5,3.9,9,8.8,9c4.8,0,8.8-4,8.8-9C159,306.1,155,302.1,150.2,302.1z
				 M150.2,316.2c-2.6,0-4.8-2.3-4.8-5.1c0-2.8,2.2-5.1,4.8-5.1c2.7,0,4.8,2.3,4.8,5.1C155,313.9,152.9,316.2,150.2,316.2z"/>
		</g>
		<g>
			<path class="st2" d="M43.7,240.2c-3.8,0-6.8,3.2-6.8,7c0,3.9,3,7.1,6.8,7.1c3.7,0,6.8-3.2,6.8-7.1
				C50.5,243.4,47.4,240.2,43.7,240.2z"/>
			<path class="st1" d="M43.7,238.2c-4.8,0-8.8,4-8.8,9c0,5,3.9,9,8.8,9c4.8,0,8.8-4,8.8-9C52.5,242.3,48.5,238.2,43.7,238.2z
				 M43.7,252.3c-2.7,0-4.8-2.3-4.8-5.1c0-2.8,2.2-5.1,4.8-5.1c2.7,0,4.8,2.3,4.8,5.1C48.5,250,46.4,252.3,43.7,252.3z"/>
		</g>
		<g>
			<path class="st2" d="M43.7,112.5c-3.8,0-6.8,3.2-6.8,7.1c0,3.9,3,7,6.8,7c3.7,0,6.8-3.2,6.8-7C50.5,115.6,47.4,112.5,43.7,112.5z
				"/>
			<path class="st1" d="M43.7,110.5c-4.8,0-8.8,4-8.8,9c0,5,3.9,9,8.8,9c4.8,0,8.8-4,8.8-9C52.5,114.5,48.5,110.5,43.7,110.5z
				 M43.7,124.6c-2.7,0-4.8-2.3-4.8-5.1c0-2.8,2.2-5.1,4.8-5.1c2.7,0,4.8,2.3,4.8,5.1C48.5,122.3,46.4,124.6,43.7,124.6z"/>
		</g>
		<g>
			<ellipse class="st2" cx="256.7" cy="247.3" rx="6.8" ry="7"/>
			<path class="st1" d="M256.7,238.2c-4.8,0-8.8,4-8.8,9c0,5,3.9,9,8.8,9c4.8,0,8.8-4,8.8-9C265.5,242.3,261.5,238.2,256.7,238.2z
				 M256.7,252.3c-2.6,0-4.8-2.3-4.8-5.1c0-2.8,2.2-5.1,4.8-5.1c2.7,0,4.8,2.3,4.8,5.1C261.5,250,259.4,252.3,256.7,252.3z"/>
		</g>
		<g>
			<ellipse class="st2" cx="256.7" cy="119.5" rx="6.8" ry="7"/>
			<path class="st1" d="M256.7,110.5c-4.8,0-8.8,4-8.8,9c0,5,3.9,9,8.8,9c4.8,0,8.8-4,8.8-9C265.5,114.6,261.5,110.5,256.7,110.5z
				 M256.7,124.6c-2.6,0-4.8-2.3-4.8-5.1c0-2.8,2.2-5.1,4.8-5.1c2.7,0,4.8,2.3,4.8,5.1C261.5,122.3,259.4,124.6,256.7,124.6z"/>
		</g>
		<g>
			<path class="st2" d="M150.2,51.6c-3.7,0-6.8,3.1-6.8,7s3,7.1,6.8,7.1c3.8,0,6.8-3.2,6.8-7.1S154,51.6,150.2,51.6z"/>
			<path class="st1" d="M150.2,49.6c-4.8,0-8.8,4-8.8,9c0,5,3.9,9,8.8,9c4.8,0,8.8-4,8.8-9C159,53.7,155,49.6,150.2,49.6z
				 M150.2,63.7c-2.6,0-4.8-2.3-4.8-5.1c0-2.8,2.2-5.1,4.8-5.1c2.7,0,4.8,2.3,4.8,5.1C155,61.4,152.9,63.7,150.2,63.7z"/>
		</g>
	</g>
	<g>
		<path class="st3" d="M105.6,253.4c0,0-76.1,14.1-90.7,22.3c-5.5,3.2-4.5,9.2-3.4,13.7c1,4.5,6.5,8,13.1,7.9
			c24.4-0.5,74.1-0.7,100.2-5c26-4.3,26.6-21,22.7-33C143.6,247.2,105.6,253.4,105.6,253.4z"/>
		<path class="st3" d="M285.1,276.4c-14.6-8.1-90.8-21.8-90.8-21.8s-38-6-41.8,6c-3.9,12-3.2,28.7,22.8,32.9
			c26.1,4.2,75.8,4.1,100.2,4.5c6.5,0.1,12.1-3.5,13-8C289.6,285.6,290.6,279.5,285.1,276.4z"/>
		<path class="st3" d="M110,112c-13,0-12,26.4-13.9,42.6c-1.9,16.2-15.2,45.5-1.3,48.4c13.8,2.9,18.8-26.2,24.5-53.9
			C125,121.5,126.1,112,110,112z"/>
		<path class="st4" d="M90.4,190.5c-8.4,7.2-11.5,12.2-22,25.5c-10.5,13.3-26,33.6-26,33.6l6.4,5.3c0,0,18.3-13.8,29.5-23.4
			c12.1-10.4,21.1-19.7,23.8-27.9C106.4,189.8,90.4,190.5,90.4,190.5z"/>
		<g>
			<path class="st4" d="M45.4,247.7c-4.8,0-9.2,1.6-14.1,7.3c-4.8,5.7-12.9,19.1-10.5,20.4c2.3,1.3,6.4-6.6,11.7-10.3
				c7.7-5.3,13-3.1,16-7.9C51.1,253,50.2,247.7,45.4,247.7z"/>
			<path class="st4" d="M39.6,261c-3.7,3.3-6,6.7-5.2,7.5c0.8,0.8,4.4-1.2,8.1-4.5c3.7-3.3,6-6.7,5.2-7.5
				C46.9,255.7,43.2,257.7,39.6,261z"/>
		</g>
		<path class="st3" d="M189.1,113.8c-16.1,0-15,9.6-9.3,37.2c5.7,27.6,10.6,56.8,24.5,53.8c13.8-2.9,0.6-32.2-1.3-48.4
			C201.1,140.2,202.1,113.8,189.1,113.8z"/>
		<path class="st4" d="M208.7,192.3c0,0-16-0.7-11.6,13.1c2.6,8.2,11.7,17.5,23.8,27.9c11.2,9.6,29.5,23.4,29.5,23.4l6.4-5.2
			c0,0-15.5-20.3-26-33.6C220.3,204.5,217.1,199.5,208.7,192.3z"/>
		<g>
			<path class="st4" d="M253.8,249.6c-4.8,0-5.8,5.2-3.1,9.5c3,4.8,8.3,2.6,16,7.9c5.3,3.7,9.4,11.5,11.7,10.3
				c2.3-1.3-5.7-14.7-10.6-20.4C263,251.2,258.6,249.6,253.8,249.6z"/>
			<path class="st4" d="M259.6,262.9c-3.7-3.3-7.3-5.3-8.1-4.5c-0.8,0.8,1.5,4.2,5.2,7.5c3.7,3.3,7.3,5.3,8.1,4.5
				C265.6,269.6,263.2,266.2,259.6,262.9z"/>
		</g>
		<path class="st3" d="M161.4,79.5c0.1-5.1-21.7-5.7-21.8-0.6c-0.3,19.1-7.8,23.5-7.8,23.5s0,20.6,18.4,21.3
			c17.5,0.6,18.3-21.2,18.3-21.2S161,99.9,161.4,79.5z"/>
		<path class="st5" d="M150.2,20.5c-14.1,0-27.5,15-25.6,33.3c2,19.3,16,34.5,25.6,34.5c9.4,0,23.5-15.6,25.6-34.5
			C177.8,35.5,164.3,20.5,150.2,20.5z"/>
		<path class="st3" d="M196.4,262.3c-2.4-26.4-19.6-32.7-19.6-50c0-17.3,9.9-66.3,19.4-92.6c2.3-6.4-27.9-17.2-27.9-17.2
			c-2.7,14.6-18.3,16-18.3,16s-12.1-1.5-18.4-16.1c0,0-30.6,7-27.1,15c9.5,21.8,18.3,77.5,18.3,94.8c0,17.3-15.2,24.6-19.2,50
			c-0.3,1.9-0.5,4.1-0.6,6.7c-1.6,30.6,48.1,20.4,48.1,20.4s50.1,12.3,45.7-22.9C196.5,265,196.5,263.6,196.4,262.3z"/>
		<g>
			<path class="st4" d="M282.2,277.1c0,0-11.8-4.9-52.8-8.2c-45.8-3.7-58.6-3-78.4-3.8c-19.9-0.8-33.5-4.9-45.3-6.1
				c-7.5-0.8-15,1.2-15.1,7.3c-0.1,4.6,4.2,9.4,9.9,9.9c5.6,0.5,23-1.6,46.8,1.7c23.8,3.3,51.8,16.9,69.8,20.9
				c18,4.1,41,2.8,55.6,0.8C287.2,297.5,296.6,286.6,282.2,277.1z"/>
			<path class="st4" d="M108.5,259.1c0,0-25-4.3-28.4,4.4c-3.4,8.7,12.9,13.5,28,12.9c0,0-16.3-2.6-14.7-10
				C94.9,259.3,108.5,259.1,108.5,259.1z"/>
		</g>
		<g>
			<path class="st4" d="M194.3,258.9c-11.8,1.2-25.4,5.3-45.3,6.1c-19.8,0.8-32.6,0.1-78.4,3.8c-41,3.3-52.8,8.2-52.8,8.2
				c-14.3,9.5-5,20.5,9.6,22.5c14.6,2,37.7,3.3,55.6-0.8c18-4.1,46-17.7,69.8-20.9c23.8-3.3,41.1-1.1,46.8-1.7
				c5.6-0.5,10-5.3,9.9-9.9C209.3,260.1,201.8,258.1,194.3,258.9z"/>
			<path class="st4" d="M191.5,259.1c0,0,13.5,0.1,15.1,7.3c1.7,7.4-14.6,10-14.6,10c15.1,0.6,31.4-4.2,28-12.9
				C216.5,254.9,191.5,259.1,191.5,259.1z"/>
		</g>
		<path class="st6" d="M150.2,20.5c-14.1,0-27.5,15-25.6,33.3c0.1,0.9,0.3,1.7,0.5,2.6c2.9-13.2,13.6-22.9,24.9-22.9
			c11.6,0,22.7,10.2,25.1,24c0.2-1.2,0.6-2.4,0.7-3.6C177.8,35.5,164.3,20.5,150.2,20.5z"/>
		<g>
			<defs>
				<path id="SVGID_1_" d="M289.3,285.9c0.4-3.6-0.2-7.3-4.2-9.5c-1.6-0.9-4-1.9-7-2.9c-1.8-4.7-6.8-12.6-10.3-16.6
					c-4.3-5-8.2-6.9-12.4-7.2c-4-5.2-16-20.9-24.7-31.9c-9.7-12.3-13.2-17.6-20.3-24c-0.2-10.7-6.3-26.8-7.5-37.4
					c-1.4-12.7-1.2-31.5-7.2-39.2c-3.8-6.1-25.6-14.1-27.2-14.7c0,0,0-0.1,0-0.1s-6.7-2.3-7.1-19.8c6.8-6.2,13-16.9,14.3-29
					c1.6-14-6-26-15.9-30.9c0.2-0.8,0.3-1.5,0.3-2.4c0-5.5-4.5-10-10-10c-5.5,0-10,4.5-10,10c0,0.8,0.1,1.6,0.3,2.4
					c-9.9,4.9-17.4,16.9-15.9,30.9c1.3,12.7,7.8,23.6,14.8,29.6c-1.3,15.3-7.6,19.2-7.6,19.2s0,0.2,0,0.4c-0.1-0.1-0.1-0.3-0.2-0.4
					c0,0-20.5,4.7-26,10.8c-8.3,5.5-7.8,27.2-9.4,41.3c-1.2,10.6-7.2,26.6-7.5,37.4c-7.1,6.4-10.6,11.7-20.3,24
					c-8.6,10.9-20.7,26.6-24.7,31.9c-4.2,0.4-8.1,2.2-12.4,7.2c-3.8,4.5-9.6,13.8-10.8,18.2c-2.4,0.9-4.3,1.7-5.7,2.5
					c-4.1,2.4-4.6,6.3-4.1,10c-1.3,6.6,6.3,12.5,16.6,13.9c14.6,2,37.7,3.3,55.6-0.8c3.8-0.9,8-2.1,12.5-3.6
					c11-0.7,21.3-1.6,29.3-2.9c2.1-0.3,3.9-0.8,5.7-1.3c4,0.2,8,0,11.3-0.3c1.7,2.9,4.9,4.8,8.5,4.8c3.6,0,6.7-1.9,8.4-4.7
					c2.4,0.3,5.1,0.6,8,0.7c2.5,0.9,5.4,1.6,8.6,2.1c9,1.4,20.9,2.4,33.5,3c2.9,0.9,5.7,1.7,8.2,2.3c18,4.1,41,2.8,55.6,0.8
					c3.1-0.4,5.9-1.3,8.3-2.4c3.3-1.1,5.9-3.2,7.1-5.7C289.1,289.8,289.6,287.9,289.3,285.9z M266.7,267c1.7,1.2,3.3,2.8,4.7,4.4
					c-2.1-0.6-4.3-1.2-6.6-1.8c-0.3-1.2-1.8-3.4-4.2-5.7C262.5,264.6,264.5,265.5,266.7,267z M220.9,233.3
					c9.7,8.3,24.6,19.7,28.5,22.7c0.2,1,0.6,2.1,1.3,3.1c0.4,0.7,0.9,1.2,1.4,1.6c0.9,1.4,2.5,3.3,4.6,5.2c1,0.9,1.9,1.7,2.9,2.3
					c-25-6.2-58.4-12.4-64.4-13.5c-4.6-20.3-18.4-26.9-18.4-42.5c0-8.9,2.6-26.2,6.5-44.4c3.4,15.6,7.1,29.3,13.2,34.7
					c0.1,0.9,0.3,1.8,0.6,2.8C199.7,213.6,208.8,222.9,220.9,233.3z M78.2,231.4c12.1-10.4,21.1-19.7,23.8-27.9c0.3-1,0.5-2,0.6-2.8
					c6.5-5.8,10.4-21,13.9-37.8c3.8,20.1,6.3,40.2,6.3,49.4c0,15.1-11.6,22.6-17.2,41.1c0,0-0.1,0-0.1,0s-42.4,7.8-69.9,15.2
					c1.5-0.4,4.2-2.1,6.8-4.5c2.1-1.9,3.7-3.8,4.6-5.2c0.5-0.4,1-0.9,1.4-1.6c0.6-1,1.1-2.1,1.3-3.1
					C53.7,251.1,68.6,239.7,78.2,231.4z M32.5,265.1c2.2-1.5,4.2-2.4,6-3c-3,2.9-4.8,5.7-4.1,6.4c0.2,0.2,0.5,0.2,1,0.1
					c-3.3,0.9-6.4,1.8-9.2,2.6C28,269.2,30.1,266.7,32.5,265.1z"/>
			</defs>
			<clipPath id="SVGID_2_">
				<use xlink:href="#SVGID_1_"  style="overflow:visible;"/>
			</clipPath>
			<rect x="2.5" class="st7" width="147.7" height="313.1"/>
		</g>
	</g>
</g>
</svg>
