<?xml version="1.0" encoding="utf-8"?>
<!-- Generator: Adobe Illustrator 19.2.1, SVG Export Plug-In . SVG Version: 6.00 Build 0)  -->
<svg version="1.1" id="Calque_1" xmlns="http://www.w3.org/2000/svg" xmlns:xlink="http://www.w3.org/1999/xlink" x="0px" y="0px"
	 viewBox="0 0 298 310.9" style="enable-background:new 0 0 298 310.9;" xml:space="preserve">
<style type="text/css">
	.st0{fill:#EFBC64;}
	.st1{fill:#D6D06D;}
	.st2{fill:#A6A155;}
	.st3{fill:#3B4D57;}
	.st4{opacity:0.2;fill:#FFFFFF;}
	.st5{fill:#738C4E;}
	.st6{opacity:0.2;clip-path:url(#SVGID_2_);fill:#3B1011;}
	.st7{fill:#EAE5EC;}
	.st8{opacity:0.2;clip-path:url(#SVGID_4_);fill:#3B1011;}
	.st9{opacity:0.2;clip-path:url(#SVGID_6_);fill:#3B1011;}
</style>
<circle class="st0" cx="149" cy="149" r="149"/>
<g>
	<g>
		<path class="st1" d="M47.2,49c-0.6,0.2-0.9,0.9-0.7,1.5l45.9,117.9c0.2,0.6,0.9,0.9,1.5,0.7c0.6-0.2,0.9-0.9,0.7-1.5L48.7,49.7
			C48.5,49.1,47.8,48.8,47.2,49z"/>
		<ellipse transform="matrix(0.5434 -0.8395 0.8395 0.5434 -25.7951 83.6272)" class="st1" cx="64" cy="65.5" rx="12" ry="1.1"/>
		<ellipse transform="matrix(0.8413 -0.5405 0.5405 0.8413 -28.5559 45.6372)" class="st1" cx="63.5" cy="71.5" rx="7.1" ry="1.1"/>
		<path class="st2" d="M46.3,71.5c-6.4-1.7-11.7-2.6-11.9-2c-0.1,0.6,4.9,2.4,11.3,4.1c6.4,1.7,11.7,2.6,11.9,2
			C57.8,75,52.7,73.2,46.3,71.5z"/>
		<path class="st2" d="M50.2,75.5c-3.9,0.7-6.9,1.7-6.8,2.3c0.1,0.6,3.3,0.5,7.2-0.2c3.9-0.7,6.9-1.7,6.8-2.3
			C57.3,74.7,54.1,74.8,50.2,75.5z"/>
		<ellipse transform="matrix(0.5414 -0.8408 0.8408 0.5414 -35.7889 95.4255)" class="st1" cx="69.6" cy="80.5" rx="12" ry="1.1"/>
		<path class="st1" d="M68.5,85.5c-3.3,2.1-5.7,4.2-5.4,4.7c0.3,0.5,3.3-0.8,6.6-2.9c3.3-2.1,5.7-4.2,5.4-4.7
			C74.7,82.1,71.8,83.4,68.5,85.5z"/>
		
			<ellipse transform="matrix(6.162542e-002 -0.9981 0.9981 6.162542e-002 -22.3667 141.5274)" class="st1" cx="64.1" cy="82.7" rx="7.1" ry="1.1"/>
		
			<ellipse transform="matrix(6.159615e-002 -0.9981 0.9981 6.159615e-002 -40.3734 179.2947)" class="st1" cx="75.2" cy="111.1" rx="7.1" ry="1.1"/>
		<path class="st1" d="M57.6,93.6c-0.4,0.4,1.5,3,4.4,5.7c2.8,2.7,5.5,4.6,5.9,4.2c0.4-0.4-1.5-3-4.4-5.7
			C60.7,95.1,58,93.2,57.6,93.6z"/>
		<path class="st1" d="M50.1,69.1c-0.3,0.3,1.1,2,3,3.9c1.9,1.9,3.7,3.1,4,2.8c0.3-0.3-1.1-2-3-3.9C52.2,70.1,50.4,68.8,50.1,69.1z"
			/>
		<ellipse transform="matrix(0.252 -0.9677 0.9677 0.252 -46.0652 115.4246)" class="st2" cx="51.6" cy="87.5" rx="1.1" ry="12"/>
		<ellipse transform="matrix(0.9851 -0.1717 0.1717 0.9851 -14.8828 10.9789)" class="st2" cx="56" cy="91.5" rx="7.1" ry="1.1"/>
		<path class="st1" d="M74,93.9c-3.6,5.6-6.1,10.3-5.6,10.7c0.5,0.3,3.8-3.9,7.4-9.5c3.6-5.6,6.1-10.3,5.6-10.7
			C80.9,84.1,77.6,88.4,74,93.9z"/>
		<ellipse transform="matrix(0.842 -0.5396 0.5396 0.842 -42.4359 56.008)" class="st1" cx="74.4" cy="100.4" rx="7.1" ry="1.1"/>
		<ellipse transform="matrix(0.251 -0.968 0.968 0.251 -55.5866 131.1584)" class="st2" cx="57" cy="101.5" rx="1.1" ry="12"/>
		<path class="st2" d="M61.2,104.5c-3.9,0.7-6.9,1.7-6.8,2.3c0.1,0.6,3.3,0.5,7.2-0.2c3.9-0.7,6.9-1.7,6.8-2.3
			C68.3,103.7,65,103.8,61.2,104.5z"/>
		
			<ellipse transform="matrix(0.5418 -0.8405 0.8405 0.5418 -54.4951 117.8465)" class="st1" cx="80.8" cy="108.9" rx="12" ry="1.1"/>
		<ellipse transform="matrix(0.8412 -0.5408 0.5408 0.8412 -49.3441 61.672)" class="st1" cx="80.3" cy="114.8" rx="7.1" ry="1.1"/>
		
			<ellipse transform="matrix(0.2522 -0.9677 0.9677 0.2522 -65.1198 147.5248)" class="st2" cx="62.9" cy="115.9" rx="1.1" ry="12"/>
		<ellipse transform="matrix(0.985 -0.1724 0.1724 0.985 -19.6694 13.3993)" class="st2" cx="67.3" cy="119.9" rx="7.1" ry="1.1"/>
		<path class="st1" d="M84.9,121.6c-3.6,5.6-6.1,10.3-5.6,10.7c0.5,0.3,3.8-3.9,7.4-9.5c3.6-5.6,6.1-10.3,5.6-10.7
			C91.8,111.8,88.5,116,84.9,121.6z"/>
		
			<ellipse transform="matrix(0.8422 -0.5392 0.5392 0.8422 -55.6272 66.2036)" class="st1" cx="85.3" cy="128.1" rx="7.1" ry="1.1"/>
		<ellipse transform="matrix(0.2514 -0.9679 0.9679 0.2514 -74.242 162.3925)" class="st2" cx="67.9" cy="129.2" rx="1.1" ry="12"/>
		<ellipse transform="matrix(0.985 -0.1724 0.1724 0.985 -21.8879 14.455)" class="st2" cx="72.3" cy="133.2" rx="7.1" ry="1.1"/>
		
			<ellipse transform="matrix(0.5418 -0.8405 0.8405 0.5418 -74.0271 140.3933)" class="st1" cx="91.8" cy="138.1" rx="12" ry="1.1"/>
		<ellipse transform="matrix(0.8408 -0.5414 0.5414 0.8408 -63.4503 72.3303)" class="st1" cx="91.2" cy="144" rx="7.1" ry="1.1"/>
		
			<ellipse transform="matrix(0.2529 -0.9675 0.9675 0.2529 -85.2264 179.8089)" class="st2" cx="73.8" cy="145.1" rx="1.1" ry="12"/>
		
			<ellipse transform="matrix(0.9853 -0.1707 0.1707 0.9853 -24.2983 15.5337)" class="st2" cx="78.2" cy="149.1" rx="7.1" ry="1.1"/>
		
			<ellipse transform="matrix(0.9318 -0.3629 0.3629 0.9318 -11.0396 18.3161)" class="st1" cx="43.2" cy="38.5" rx="1.1" ry="13.2"/>
		<ellipse transform="matrix(0.9949 -0.101 0.101 0.9949 -3.7238 4.9759)" class="st1" cx="47.3" cy="39.3" rx="1.1" ry="12"/>
		<ellipse transform="matrix(0.5419 -0.8404 0.8404 0.5419 -16.5161 72.7895)" class="st1" cx="58.5" cy="51.5" rx="12" ry="1.1"/>
		<ellipse transform="matrix(0.8418 -0.5398 0.5398 0.8418 -21.8516 40.3942)" class="st1" cx="58" cy="57.5" rx="7.1" ry="1.1"/>
		<path class="st2" d="M42.4,47.5c-3.6-1.7-6.6-2.6-6.9-2c-0.3,0.5,2.4,2.3,6,4c3.6,1.7,6.6,2.6,6.9,2C48.7,51,46,49.2,42.4,47.5z"
			/>
		<ellipse transform="matrix(0.2529 -0.9675 0.9675 0.2529 -26.327 82.9783)" class="st2" cx="40.6" cy="58.5" rx="1.1" ry="12"/>
		<ellipse transform="matrix(0.9855 -0.1698 0.1698 0.9855 -9.9695 8.544)" class="st2" cx="45" cy="62.5" rx="7.1" ry="1.1"/>
		
			<ellipse transform="matrix(6.162371e-002 -0.9981 0.9981 6.162371e-002 -3.9695 103.2298)" class="st1" cx="52.9" cy="53.7" rx="7.1" ry="1.1"/>
	</g>
	<g>
		<path class="st3" d="M251.2,39.1c-10.5,2.5-15.5,18.5-32.5,31c-17,12.5-41,25-54,30c-13,5-95,70-96.8,75.5
			c-1.8,5.5,1.2,26.5,7.8,33c6.5,6.5,22.5,18,32.5,16c10-2,90-69.5,95.5-79c5.5-9.5,23.6-30.5,34.3-39.5c10.7-9,32.7-11,39.7-18.5
			c7-7.5,12-19.5,0-35C270.7,43.5,261.7,36.6,251.2,39.1z"/>
		<circle class="st4" cx="256.1" cy="53.7" r="9.9"/>
	</g>
	<g>
		<path class="st2" d="M116,59.5c0,0-21.9,9.2-21.9,12.7c0,3.5,21.9,6.3,21.9,6.3s21.9-2.8,21.9-6.3C137.9,68.7,116,59.5,116,59.5z"
			/>
		<path class="st1" d="M124.3,52.6c-10.4,8.7-7.6,21.2-7.6,21.2s7.2-8.3,13.8-12.9c6.6-4.6,24.7-10.7,24.7-10.7
			S134.8,43.9,124.3,52.6z"/>
		<path class="st1" d="M108.5,52.6c-10.4-8.7-30.9-2.4-30.9-2.4s18.1,6.2,24.6,10.7c6.6,4.6,13.8,12.9,13.8,12.9
			S118.9,61.3,108.5,52.6z"/>
		<path class="st2" d="M126.9,92.9c-13.7,11.4-10,27.9-10,27.9s9.5-11,18.2-17c8.7-6,32.5-14.1,32.5-14.1S140.6,81.4,126.9,92.9z"/>
		<path class="st2" d="M106,92.9c-13.7-11.4-40.7-3.2-40.7-3.2s23.8,8.1,32.5,14.1c8.7,6,18.2,17,18.2,17S119.7,104.3,106,92.9z"/>
		<path class="st5" d="M116.4,70.8c-1.1,0-2.1,0.9-2.1,2.1v96c0,1.1,0.9,2.1,2.1,2.1c1.1,0,2.1-0.9,2.1-2.1v-96
			C118.5,71.7,117.6,70.8,116.4,70.8z"/>
		<path class="st1" d="M116,78.6c0,0-21.9,4.3-21.9,9.6c0,5.3,21.9,19.3,21.9,19.3s21.9-14,21.9-19.3C137.9,82.9,116,78.6,116,78.6z
			"/>
		<path class="st1" d="M116,115.9c0,0-29.4,4.9-29.4,11c0,6.1,29.4,22.2,29.4,22.2s29.4-16.1,29.4-22.2
			C145.4,120.9,116,115.9,116,115.9z"/>
	</g>
	<g>
		<defs>
			<path id="SVGID_1_" d="M120.6,116.8c3.6-3.7,9.2-9.3,14.5-13c8.7-6,32.5-14.1,32.5-14.1s-16.1-4.9-29.8-1.8
				c-0.7-4.1-13.8-7.5-19.4-8.7v-0.9c5.7-0.9,19.4-3.2,19.4-6c0-1.8-5.9-5.2-11.6-8c1.4-1.2,2.8-2.4,4.3-3.4
				c6.6-4.6,24.7-10.7,24.7-10.7s-20.5-6.2-30.9,2.4c-3,2.5-4.8,5.2-6,7.9c-1.4-0.6-2.3-1-2.3-1s-0.6,0.3-1.7,0.7
				c-1.2-2.6-3-5.3-5.9-7.6c-10.4-8.7-30.9-2.4-30.9-2.4s18.1,6.2,24.6,10.7c1.3,0.9,2.7,2,4,3.1c-5.8,2.9-12.1,6.4-12.1,8.2
				c0,2.9,15.1,5.4,20.2,6.1v0.6c-4.9,1.1-19,4.5-20.1,8.7c-13.5-2.7-29,2-29,2s23.8,8.1,32.5,14.1c5.3,3.6,10.8,9.1,14.4,12.8
				c-8,1.6-25.5,5.6-25.5,10.3c0,5.2,21.5,17.8,27.7,21.3v20.5c0,1.1,0.9,2.1,2.1,2.1c1.1,0,2.1-0.9,2.1-2.1v-21
				c7-4,26.9-15.8,26.9-20.8C145.4,122.4,128.8,118.4,120.6,116.8z"/>
		</defs>
		<clipPath id="SVGID_2_">
			<use xlink:href="#SVGID_1_"  style="overflow:visible;"/>
		</clipPath>
		<rect x="62.2" y="46.6" class="st6" width="54.2" height="157.1"/>
	</g>
	<g>
		<path class="st7" d="M199.5,235.5H78.3c-5.8,0-10.5,5.4-10.5,12v11.9c0,6.6,4.7,14.2,10.5,14.2h121.2c5.8,0,10.5-7.5,10.5-14.2
			v-11.9C209.9,240.8,205.3,235.5,199.5,235.5z"/>
		<g>
			<path class="st7" d="M139.8,126.7H43.2c0,0-3.6,25,0,47.5c3.6,22.5,10.9,48.5,36.9,62c26,13.5,59.7,11,59.7,11s33.8,2.5,59.7-11
				c26-13.5,33.2-39.5,36.9-62c3.6-22.5,0-47.5,0-47.5H139.8z"/>
			<g>
				<defs>
					<path id="SVGID_3_" d="M236.4,126.7h-96.6H43.2c0,0-3.6,25,0,47.5c3.6,22.1,10.7,47.6,35.6,61.3h-0.4c-5.8,0-10.5,5.4-10.5,12
						v11.9c0,6.6,4.7,14.2,10.5,14.2h121.2c5.8,0,10.5-7.5,10.5-14.2v-11.9c0-6.2-4.1-11.2-9.3-11.9c25.1-13.7,32.2-39.2,35.8-61.4
						C240,151.7,236.4,126.7,236.4,126.7z"/>
				</defs>
				<clipPath id="SVGID_4_">
					<use xlink:href="#SVGID_3_"  style="overflow:visible;"/>
				</clipPath>
				<rect x="28.9" y="122.2" class="st8" width="113.1" height="171.8"/>
			</g>
		</g>
	</g>
	<g>
		<path class="st2" d="M211.9,252.4c0,0,8.6,17.6,19.3,17.6c10.7,0,38.9-17.6,38.9-17.6s-28.2-17.6-38.9-17.6
			C220.5,234.7,211.9,252.4,211.9,252.4z"/>
		<path class="st2" d="M183.2,234.7c-10.7,0-38.9,17.6-38.9,17.6s28.2,17.6,38.9,17.6c10.7,0,19.3-17.6,19.3-17.6
			S193.9,234.7,183.2,234.7z"/>
		<path class="st1" d="M207.2,252.4c0,0-14.4,7.1-14.4,15.8c0,8.7,14.4,31.8,14.4,31.8s14.4-23.1,14.4-31.8
			C221.6,259.5,207.2,252.4,207.2,252.4z"/>
		<path class="st1" d="M192.7,236.6c0,8.7,14.4,15.8,14.4,15.8s14.4-7.1,14.4-15.8c0-8.7-14.4-31.8-14.4-31.8
			S192.7,227.8,192.7,236.6z"/>
	</g>
	<g>
		<defs>
			<path id="SVGID_5_" d="M270,252.4c0,0-28.2-17.6-38.9-17.6c-3.7,0-7.2,2.2-10.2,5c0.4-1,0.6-2.1,0.6-3.2
				c0-8.7-14.4-31.8-14.4-31.8s-14.4,23.1-14.4,31.8c0,1.1,0.2,2.1,0.6,3.2c-3-2.8-6.4-5-10.2-5c-10.7,0-38.9,17.6-38.9,17.6
				s28.2,17.6,38.9,17.6c3.7,0,7.2-2.2,10.2-5c-0.4,1-0.6,2.1-0.6,3.2c0,8.7,14.4,31.8,14.4,31.8s14.4-23.1,14.4-31.8
				c0-1.1-0.2-2.1-0.6-3.2c3,2.8,6.4,5,10.2,5C241.8,270,270,252.4,270,252.4z M199.7,257.3c1.8-2.8,2.8-4.9,2.8-4.9
				s-1.1-2.1-2.8-4.9c3.7,3,7.5,4.9,7.5,4.9s3.8-1.9,7.5-4.9c-1.8,2.8-2.9,4.9-2.9,4.9s1.1,2.1,2.9,4.9c-3.7-3-7.5-4.9-7.5-4.9
				S203.4,254.3,199.7,257.3z"/>
		</defs>
		<clipPath id="SVGID_6_">
			<use xlink:href="#SVGID_5_"  style="overflow:visible;"/>
		</clipPath>
		<rect x="137.9" y="191.5" class="st9" width="69.3" height="119.4"/>
	</g>
</g>
<g>
</g>
<g>
</g>
<g>
</g>
<g>
</g>
<g>
</g>
<g>
</g>
</svg>
