<?xml version="1.0" encoding="utf-8"?>
<!-- Generator: Adobe Illustrator 19.2.1, SVG Export Plug-In . SVG Version: 6.00 Build 0)  -->
<svg version="1.1" id="Calque_1" xmlns="http://www.w3.org/2000/svg" xmlns:xlink="http://www.w3.org/1999/xlink" x="0px" y="0px"
	 viewBox="0 0 104.8 107.7" style="enable-background:new 0 0 104.8 107.7;" xml:space="preserve">
<style type="text/css">
	.st0{fill:#C1BB63;}
	.st1{fill:#3C4E58;}
	.st2{fill:#D0C96A;}
	.st3{fill:#A6A256;}
</style>
<path class="st0" d="M63.8,99.6C63.8,99.6,2,74,3.3,5.7C3.3,5.7,98.9,22.1,63.8,99.6z"/>
<path class="st1" d="M65.5,95.2C74.1,75,74.4,57,66.2,41.6C49.5,10,3.9,0.8,2,0.4L0,0l0.2,2c6.4,58.1,36,82.3,59.6,92.4
	c0.6,0.3,1.3,0.1,1.7-0.4l0.3-0.4l0-0.5c0-0.6-0.4-1.1-0.9-1.3C38.5,82.1,10.3,59.2,3.4,4.5L3.3,3.6l0.9,0.2
	c10.5,2.6,45.7,13.2,59.4,39c7.6,14.4,7.4,31.3-0.5,50.3l-0.3,0.9l0,0.2c-0.2,0.8,0.2,1.6,1,1.8C64.5,96.4,65.3,96,65.5,95.2z"/>
<path class="st2" d="M77.7,99.5c0,0-42.8,14.8-73-20.3C4.7,79.2,60.6,44.4,77.7,99.5z"/>
<path class="st3" d="M92.1,96.7c0,0-20.5-24-5.5-52.5C86.7,44.2,123.4,71.5,92.1,96.7z"/>
<path class="st1" d="M23.9,31.8c0.4,0.9,9.9,22.5,24.2,38.5c0.5,0.6,1.5,0.6,2.1,0.1c0.6-0.5,0.6-1.5,0.1-2.1l0,0
	c-14-15.6-23.6-37.5-23.7-37.7c-0.3-0.7-1.2-1.1-1.9-0.8C23.9,30.2,23.6,31.1,23.9,31.8L23.9,31.8z"/>
<path class="st1" d="M13.3,73.2C10.1,74.6,7,76.2,4,77.9l-1.4,0.9l1.1,1.3c30.4,35.5,74.1,20.9,74.6,20.7l1.3-0.5l-0.4-1.4
	c-4.5-14.4-12-24.1-22.3-28.8C42,63.5,25,68.1,13.3,73.2z M75.7,97.9l0.2,0.6l-0.6,0.2c-9,2.3-18.3,2.9-27.5,1.9
	C32.3,98.9,18,91.7,7.5,80.1L7,79.6l0.7-0.4c1.5-0.8,3.8-2,6.8-3.3c9.1-4,26.6-9.6,41.1-3C64.6,77.1,71.4,85.5,75.7,97.9z"/>
<path class="st1" d="M92.8,107.1c0.5-0.7,0.3-1.6-0.3-2c-1.4-1-33.9-24-69.7-19.9c-0.1,0-0.3,0.1-0.4,0.1c-0.6,0.3-0.9,0.9-0.9,1.5
	c0.1,0.8,0.8,1.4,1.6,1.3c0,0,0,0,0,0c34.7-4,67.3,19.1,67.6,19.4C91.4,107.9,92.3,107.7,92.8,107.1z"/>
<path class="st1" d="M102.2,72.5c-0.3-17-17.9-30.3-18.7-30.8l-1.4-1l-0.8,1.5C66,71.1,86.8,96,87,96.2l0.9,1.1l1.1-0.9
	C97.9,89.2,102.4,81.2,102.2,72.5z M88.8,92.8l-0.5,0.4L88,92.7c-3.7-5.2-6.4-11-8-17.1c-2.6-9.9-1.6-20.5,2.9-29.8l0.3-0.7l0.6,0.5
	c4.6,4,15.3,14.6,15.5,26.9C99.4,79.7,95.9,86.5,88.8,92.8z"/>
<path class="st1" d="M89.5,62.5c-0.3-0.2-0.7-0.2-1.1-0.1l-0.2,0.1c-0.7,0.3-1,1-0.8,1.7c4,14.8,0.2,29.8,0.1,30
	c-0.2,0.8,0.3,1.6,1,1.8c0.8,0.2,1.6-0.3,1.8-1c0,0,0,0,0,0c0.2-0.6,4-15.9-0.1-31.5C90.2,63,89.9,62.7,89.5,62.5z"/>
</svg>
