<svg id="i-svg-separateur-1" data-name="i-svg-separateur-1" xmlns="http://www.w3.org/2000/svg" viewBox="0 0 318.26 84.8"><defs><style>.cls-1{fill:#c1bb63;}.cls-2{fill:#3b4d57;}.cls-3{fill:#cfc86a;}.cls-4{fill:#a6a155;}.cls-5{fill:#efbc63;}</style></defs><title>logo-separateur-1</title><path class="cls-1" d="M263.72,2588.41s-66.83-2.65-89.35-67.11C174.37,2521.29,269.74,2503.52,263.72,2588.41Z" transform="translate(-169.37 -2514.93)"/><path class="cls-2" d="M263.79,2583.64c1.09-21.92-4.93-38.92-17.9-50.52-26.63-23.81-72.61-16.66-74.56-16.34l-2,.32,0.89,1.78c26.12,52.24,62.3,64.74,88,66a1.47,1.47,0,0,0,1.46-1l0.17-.51-0.2-.5a1.47,1.47,0,0,0-1.29-.92c-24.4-1.23-58.83-12.94-84.25-61.81l-0.4-.78,0.87-.1c10.74-1.18,47.46-3.51,69.28,16,12.11,10.84,17.82,26.79,16.95,47.4l0,1,0.06,0.21A1.46,1.46,0,0,0,263.79,2583.64Z" transform="translate(-169.37 -2514.93)"/><path class="cls-3" d="M276.74,2583.47s-35,28.76-75.49,6.27C201.25,2589.73,241.54,2537.77,276.74,2583.47Z" transform="translate(-169.37 -2514.93)"/><path class="cls-4" d="M289.28,2575.83s-27.58-15.37-23.33-47.32C266,2528.51,309.92,2541.36,289.28,2575.83Z" transform="translate(-169.37 -2514.93)"/><path class="cls-2" d="M202.78,2538.68c0.69,0.72,17.08,17.72,36.07,27.67a1.46,1.46,0,1,0,1.36-2.59c-18.57-9.73-35.15-26.93-35.31-27.1A1.46,1.46,0,0,0,202.78,2538.68Z" transform="translate(-169.37 -2514.93)"/><path class="cls-2" d="M207.18,2581.17a77.64,77.64,0,0,0-7.09,7.66l-1,1.35,1.49,0.83c40.84,22.72,76.77-6.12,77.13-6.41l1.1-.9-0.87-1.12c-9.19-11.94-19.6-18.42-30.94-19.28C230.79,2562.08,216.4,2572.34,207.18,2581.17Zm67.08,1.53,0.41,0.5-0.53.37a77,77,0,0,1-25.15,11.3,63.12,63.12,0,0,1-44.79-5.23l-0.69-.35,0.51-.58c1.1-1.26,2.89-3.22,5.2-5.43,7.19-6.89,21.64-18.27,37.53-17.07C256.68,2567,265.94,2572.51,274.26,2582.7Z" transform="translate(-169.37 -2514.93)"/><path class="cls-2" d="M293.48,2585.35a1.47,1.47,0,0,0-1-1.8c-1.62-.45-40.09-10.8-72.27,5.52a1.47,1.47,0,0,0-.35.25,1.46,1.46,0,0,0-.29,1.72,1.47,1.47,0,0,0,2,.64c31.14-15.8,69.78-5.42,70.16-5.31A1.46,1.46,0,0,0,293.48,2585.35Z" transform="translate(-169.37 -2514.93)"/><path class="cls-2" d="M290.33,2549.6c-6.21-15.85-27.32-22.18-28.22-22.44l-1.64-.48-0.23,1.69c-4.33,32.51,23.78,48.63,24.07,48.79l1.24,0.69,0.73-1.22C292.15,2566.83,293.51,2557.73,290.33,2549.6Zm-5.5,23.68-0.31.58-0.55-.37a51.34,51.34,0,0,1-13.44-13.28,43.48,43.48,0,0,1-7.65-28.91l0.07-.79,0.75,0.28c5.69,2.14,19.4,8.36,23.92,19.87C290.24,2557.4,289.31,2565,284.83,2573.28Z" transform="translate(-169.37 -2514.93)"/><path class="cls-2" d="M275,2544.68a1.45,1.45,0,0,0-1.09.25l-0.17.14a1.46,1.46,0,0,0-.18,1.9c8.84,12.49,10.51,27.92,10.53,28.07a1.47,1.47,0,0,0,1.6,1.31,1.46,1.46,0,0,0,1.31-1.6c-0.07-.66-1.73-16.3-11-29.47A1.45,1.45,0,0,0,275,2544.68Z" transform="translate(-169.37 -2514.93)"/><path class="cls-1" d="M393.27,2587.81s66.83-2.65,89.35-67.11C482.62,2520.69,387.25,2502.92,393.27,2587.81Z" transform="translate(-169.37 -2514.93)"/><path class="cls-2" d="M393.21,2583c-1.09-21.92,4.93-38.92,17.9-50.52,26.63-23.81,72.61-16.66,74.56-16.34l2,0.32-0.89,1.78c-26.12,52.24-62.3,64.74-88,66a1.47,1.47,0,0,1-1.46-1l-0.17-.51,0.2-.5a1.47,1.47,0,0,1,1.29-.92c24.4-1.23,58.83-12.94,84.25-61.81l0.4-.78-0.87-.1c-10.74-1.18-47.46-3.51-69.28,16-12.11,10.84-17.82,26.79-16.95,47.4l0,1-0.06.21A1.46,1.46,0,0,1,393.21,2583Z" transform="translate(-169.37 -2514.93)"/><path class="cls-3" d="M380.26,2582.87s35,28.76,75.49,6.27C455.75,2589.13,415.45,2537.17,380.26,2582.87Z" transform="translate(-169.37 -2514.93)"/><path class="cls-4" d="M367.71,2575.23s27.58-15.37,23.33-47.32C391,2527.91,347.08,2540.76,367.71,2575.23Z" transform="translate(-169.37 -2514.93)"/><path class="cls-2" d="M454.22,2538.08c-0.69.72-17.08,17.72-36.07,27.67a1.46,1.46,0,1,1-1.36-2.59c18.57-9.73,35.15-26.93,35.31-27.1A1.46,1.46,0,0,1,454.22,2538.08Z" transform="translate(-169.37 -2514.93)"/><path class="cls-2" d="M410,2562.7c-11.34.86-21.75,7.34-30.94,19.28l-0.87,1.12,1.1,0.9c0.36,0.29,36.29,29.13,77.13,6.41l1.49-.83-1-1.35a77.64,77.64,0,0,0-7.09-7.66C440.59,2571.74,426.21,2561.47,410,2562.7Zm0.22,2.92c15.89-1.2,30.33,10.18,37.53,17.07,2.3,2.2,4.1,4.17,5.2,5.43l0.51,0.58-0.69.35a63.12,63.12,0,0,1-44.79,5.23,77,77,0,0,1-25.15-11.3l-0.53-.37,0.41-.5C391.06,2571.91,400.32,2566.37,410.26,2565.61Z" transform="translate(-169.37 -2514.93)"/><path class="cls-2" d="M363.52,2584.75a1.47,1.47,0,0,1,1-1.8c1.62-.45,40.09-10.8,72.27,5.52a1.47,1.47,0,0,1,.35.25,1.46,1.46,0,0,1,.29,1.72,1.47,1.47,0,0,1-2,.64c-31.14-15.8-69.78-5.42-70.16-5.31A1.46,1.46,0,0,1,363.52,2584.75Z" transform="translate(-169.37 -2514.93)"/><path class="cls-2" d="M370.71,2576l0.73,1.22,1.24-.69c0.28-.16,28.4-16.29,24.07-48.79l-0.23-1.69-1.64.48c-0.9.26-22,6.59-28.22,22.44C363.48,2557.13,364.84,2566.22,370.71,2576Zm-1.32-26c4.51-11.52,18.23-17.74,23.92-19.87l0.75-.28,0.07,0.79a43.48,43.48,0,0,1-7.65,28.91A51.34,51.34,0,0,1,373,2572.89l-0.55.37-0.31-.58C367.69,2564.41,366.76,2556.8,369.4,2550.07Z" transform="translate(-169.37 -2514.93)"/><path class="cls-2" d="M382,2544.08a1.45,1.45,0,0,1,1.09.25l0.17,0.14a1.46,1.46,0,0,1,.18,1.9c-8.84,12.49-10.51,27.92-10.53,28.07a1.47,1.47,0,0,1-1.6,1.31,1.46,1.46,0,0,1-1.31-1.6c0.07-.66,1.73-16.3,11-29.47A1.45,1.45,0,0,1,382,2544.08Z" transform="translate(-169.37 -2514.93)"/><circle class="cls-5" cx="156.52" cy="46.18" r="25.85"/><path class="cls-2" d="M329.35,2535.18a27.73,27.73,0,1,0,27.73,27.73A27.77,27.77,0,0,0,329.35,2535.18Zm0,52.14a24.41,24.41,0,1,1,24.41-24.41A24.43,24.43,0,0,1,329.35,2587.32Z" transform="translate(-169.37 -2514.93)"/></svg>
